<?xml version="1.0" encoding="UTF-8" standalone="no"?>
<!DOCTYPE svg PUBLIC "-//W3C//DTD SVG 1.1//EN"
 "http://www.w3.org/Graphics/SVG/1.1/DTD/svg11.dtd">
<!-- Generated by graphviz version 14.1.1 (20251213.1925)
 -->
<!-- Title: SimpleInheritance Pages: 1 -->
<svg width="288pt" height="265pt"
 viewBox="0.00 0.00 288.00 265.00" xmlns="http://www.w3.org/2000/svg" xmlns:xlink="http://www.w3.org/1999/xlink">
<g id="graph0" class="graph" transform="scale(1 1) rotate(0) translate(4 260.75)">
<title>SimpleInheritance</title>
<polygon fill="white" stroke="none" points="-4,4 -4,-260.75 283.75,-260.75 283.75,4 -4,4"/>
<!-- ANIMAL -->
<g id="node1" class="node">
<title>ANIMAL</title>
<polygon fill="lightyellow" stroke="black" points="195.75,-256.75 74,-256.75 74,-138.5 195.75,-138.5 195.75,-256.75"/>
<text xml:space="preserve" text-anchor="middle" x="134.88" y="-239.45" font-family="Arial" font-size="14.00">ANIMAL</text>
<text xml:space="preserve" text-anchor="middle" x="134.88" y="-223.7" font-family="Arial" font-size="14.00">─────────</text>
<text xml:space="preserve" text-anchor="middle" x="134.88" y="-207.95" font-family="Arial" font-size="14.00">+ name: STRING</text>
<text xml:space="preserve" text-anchor="middle" x="134.88" y="-192.2" font-family="Arial" font-size="14.00">+ age: INTEGER</text>
<text xml:space="preserve" text-anchor="middle" x="134.88" y="-176.45" font-family="Arial" font-size="14.00">─────────</text>
<text xml:space="preserve" text-anchor="middle" x="134.88" y="-160.7" font-family="Arial" font-size="14.00">+ speak()*</text>
<text xml:space="preserve" text-anchor="middle" x="134.88" y="-144.95" font-family="Arial" font-size="14.00">+ move()*</text>
</g>
<!-- DOG -->
<g id="node2" class="node">
<title>DOG</title>
<polygon fill="none" stroke="black" points="121.75,-102.5 0,-102.5 0,0 121.75,0 121.75,-102.5"/>
<text xml:space="preserve" text-anchor="middle" x="60.88" y="-85.2" font-family="Arial" font-size="14.00">DOG</text>
<text xml:space="preserve" text-anchor="middle" x="60.88" y="-69.45" font-family="Arial" font-size="14.00">─────────</text>
<text xml:space="preserve" text-anchor="middle" x="60.88" y="-53.7" font-family="Arial" font-size="14.00">+ breed: STRING</text>
<text xml:space="preserve" text-anchor="middle" x="60.88" y="-37.95" font-family="Arial" font-size="14.00">─────────</text>
<text xml:space="preserve" text-anchor="middle" x="60.88" y="-22.2" font-family="Arial" font-size="14.00">+ speak()</text>
<text xml:space="preserve" text-anchor="middle" x="60.88" y="-6.45" font-family="Arial" font-size="14.00">+ fetch()</text>
</g>
<!-- DOG&#45;&gt;ANIMAL -->
<g id="edge1" class="edge">
<title>DOG&#45;&gt;ANIMAL</title>
<path fill="none" stroke="black" d="M86.76,-102.75C90.98,-110.99 95.42,-119.64 99.82,-128.23"/>
<polygon fill="none" stroke="black" points="96.58,-129.59 104.26,-136.9 102.81,-126.4 96.58,-129.59"/>
</g>
<!-- CAT -->
<g id="node3" class="node">
<title>CAT</title>
<polygon fill="none" stroke="black" points="279.75,-102.5 140,-102.5 140,0 279.75,0 279.75,-102.5"/>
<text xml:space="preserve" text-anchor="middle" x="209.88" y="-85.2" font-family="Arial" font-size="14.00">CAT</text>
<text xml:space="preserve" text-anchor="middle" x="209.88" y="-69.45" font-family="Arial" font-size="14.00">─────────</text>
<text xml:space="preserve" text-anchor="middle" x="209.88" y="-53.7" font-family="Arial" font-size="14.00">+ indoor: BOOLEAN</text>
<text xml:space="preserve" text-anchor="middle" x="209.88" y="-37.95" font-family="Arial" font-size="14.00">─────────</text>
<text xml:space="preserve" text-anchor="middle" x="209.88" y="-22.2" font-family="Arial" font-size="14.00">+ speak()</text>
<text xml:space="preserve" text-anchor="middle" x="209.88" y="-6.45" font-family="Arial" font-size="14.00">+ purr()</text>
</g>
<!-- CAT&#45;&gt;ANIMAL -->
<g id="edge2" class="edge">
<title>CAT&#45;&gt;ANIMAL</title>
<path fill="none" stroke="black" d="M183.64,-102.75C179.36,-110.99 174.87,-119.64 170.41,-128.23"/>
<polygon fill="none" stroke="black" points="167.4,-126.41 165.9,-136.9 173.62,-129.64 167.4,-126.41"/>
</g>
</g>
</svg>
