<?xml version="1.0" encoding="UTF-8" standalone="no"?>
<!DOCTYPE svg PUBLIC "-//W3C//DTD SVG 1.1//EN"
 "http://www.w3.org/Graphics/SVG/1.1/DTD/svg11.dtd">
<!-- Generated by graphviz version 14.1.1 (20251213.1925)
 -->
<!-- Title: EiffelHierarchy Pages: 1 -->
<svg width="374pt" height="188pt"
 viewBox="0.00 0.00 374.00 188.00" xmlns="http://www.w3.org/2000/svg" xmlns:xlink="http://www.w3.org/1999/xlink">
<g id="graph0" class="graph" transform="scale(1 1) rotate(0) translate(4 184)">
<title>EiffelHierarchy</title>
<polygon fill="white" stroke="none" points="-4,4 -4,-184 370,-184 370,4 -4,4"/>
<!-- ANY -->
<g id="node1" class="node">
<title>ANY</title>
<polygon fill="lightblue" stroke="black" points="170,-180 116,-180 116,-144 170,-144 170,-180"/>
<text xml:space="preserve" text-anchor="middle" x="143" y="-158.88" font-family="Courier,monospace" font-size="10.00">ANY</text>
</g>
<!-- COMPARABLE -->
<g id="node2" class="node">
<title>COMPARABLE</title>
<polygon fill="lightyellow" stroke="black" points="181,-108 105,-108 105,-72 181,-72 181,-108"/>
<text xml:space="preserve" text-anchor="middle" x="143" y="-86.88" font-family="Courier,monospace" font-size="10.00">COMPARABLE</text>
</g>
<!-- COMPARABLE&#45;&gt;ANY -->
<g id="edge1" class="edge">
<title>COMPARABLE&#45;&gt;ANY</title>
<path fill="none" stroke="black" d="M143,-108.3C143,-115.59 143,-124.27 143,-132.46"/>
<polygon fill="none" stroke="black" points="139.5,-132.38 143,-142.38 146.5,-132.38 139.5,-132.38"/>
</g>
<!-- NUMERIC -->
<g id="node3" class="node">
<title>NUMERIC</title>
<polygon fill="lightyellow" stroke="black" points="87,-108 29,-108 29,-72 87,-72 87,-108"/>
<text xml:space="preserve" text-anchor="middle" x="58" y="-86.88" font-family="Courier,monospace" font-size="10.00">NUMERIC</text>
</g>
<!-- NUMERIC&#45;&gt;ANY -->
<g id="edge2" class="edge">
<title>NUMERIC&#45;&gt;ANY</title>
<path fill="none" stroke="black" d="M79.01,-108.3C89.33,-116.8 101.94,-127.19 113.23,-136.49"/>
<polygon fill="none" stroke="black" points="110.82,-139.04 120.77,-142.69 115.27,-133.63 110.82,-139.04"/>
</g>
<!-- HASHABLE -->
<g id="node4" class="node">
<title>HASHABLE</title>
<polygon fill="lightyellow" stroke="black" points="263,-108 199,-108 199,-72 263,-72 263,-108"/>
<text xml:space="preserve" text-anchor="middle" x="231" y="-86.88" font-family="Courier,monospace" font-size="10.00">HASHABLE</text>
</g>
<!-- HASHABLE&#45;&gt;ANY -->
<g id="edge3" class="edge">
<title>HASHABLE&#45;&gt;ANY</title>
<path fill="none" stroke="black" d="M209.25,-108.3C198.56,-116.8 185.51,-127.19 173.82,-136.49"/>
<polygon fill="none" stroke="black" points="171.64,-133.75 165.99,-142.71 176,-139.22 171.64,-133.75"/>
</g>
<!-- STRING -->
<g id="node5" class="node">
<title>STRING</title>
<polygon fill="none" stroke="black" points="290,-36 236,-36 236,0 290,0 290,-36"/>
<text xml:space="preserve" text-anchor="middle" x="263" y="-14.88" font-family="Courier,monospace" font-size="10.00">STRING</text>
</g>
<!-- STRING&#45;&gt;COMPARABLE -->
<g id="edge4" class="edge">
<title>STRING&#45;&gt;COMPARABLE</title>
<path fill="none" stroke="black" d="M235.77,-34.88C220.05,-44.06 199.99,-55.75 182.56,-65.93"/>
<polygon fill="none" stroke="black" points="180.83,-62.88 173.95,-70.95 184.35,-68.93 180.83,-62.88"/>
</g>
<!-- STRING&#45;&gt;HASHABLE -->
<g id="edge5" class="edge">
<title>STRING&#45;&gt;HASHABLE</title>
<path fill="none" stroke="black" d="M255.09,-36.3C251.6,-43.93 247.42,-53.08 243.52,-61.6"/>
<polygon fill="none" stroke="black" points="240.42,-59.97 239.45,-70.52 246.79,-62.88 240.42,-59.97"/>
</g>
<!-- INTEGER -->
<g id="node6" class="node">
<title>INTEGER</title>
<polygon fill="none" stroke="black" points="130,-36 72,-36 72,0 130,0 130,-36"/>
<text xml:space="preserve" text-anchor="middle" x="101" y="-14.88" font-family="Courier,monospace" font-size="10.00">INTEGER</text>
</g>
<!-- INTEGER&#45;&gt;COMPARABLE -->
<g id="edge6" class="edge">
<title>INTEGER&#45;&gt;COMPARABLE</title>
<path fill="none" stroke="black" d="M111.38,-36.3C116.06,-44.1 121.69,-53.49 126.9,-62.17"/>
<polygon fill="none" stroke="black" points="123.81,-63.82 131.96,-70.6 129.81,-60.22 123.81,-63.82"/>
</g>
<!-- INTEGER&#45;&gt;NUMERIC -->
<g id="edge7" class="edge">
<title>INTEGER&#45;&gt;NUMERIC</title>
<path fill="none" stroke="black" d="M90.37,-36.3C85.58,-44.1 79.81,-53.49 74.48,-62.17"/>
<polygon fill="none" stroke="black" points="71.55,-60.25 69.3,-70.61 77.52,-63.92 71.55,-60.25"/>
</g>
<!-- INTEGER&#45;&gt;HASHABLE -->
<g id="edge8" class="edge">
<title>INTEGER&#45;&gt;HASHABLE</title>
<path fill="none" stroke="black" d="M130.5,-34.88C147.77,-44.18 169.87,-56.08 188.94,-66.35"/>
<polygon fill="none" stroke="black" points="187.09,-69.33 197.55,-70.99 190.41,-63.17 187.09,-69.33"/>
</g>
<!-- REAL -->
<g id="node7" class="node">
<title>REAL</title>
<polygon fill="none" stroke="black" points="54,-36 0,-36 0,0 54,0 54,-36"/>
<text xml:space="preserve" text-anchor="middle" x="27" y="-14.88" font-family="Courier,monospace" font-size="10.00">REAL</text>
</g>
<!-- REAL&#45;&gt;COMPARABLE -->
<g id="edge9" class="edge">
<title>REAL&#45;&gt;COMPARABLE</title>
<path fill="none" stroke="black" d="M54.49,-35.59C69.36,-44.56 87.97,-55.79 104.28,-65.64"/>
<polygon fill="none" stroke="black" points="102.42,-68.6 112.79,-70.77 106.04,-62.61 102.42,-68.6"/>
</g>
<!-- REAL&#45;&gt;NUMERIC -->
<g id="edge10" class="edge">
<title>REAL&#45;&gt;NUMERIC</title>
<path fill="none" stroke="black" d="M34.66,-36.3C38.04,-43.93 42.09,-53.08 45.87,-61.6"/>
<polygon fill="none" stroke="black" points="42.56,-62.79 49.81,-70.51 48.96,-59.95 42.56,-62.79"/>
</g>
<!-- BOOLEAN -->
<g id="node8" class="node">
<title>BOOLEAN</title>
<polygon fill="none" stroke="black" points="366,-36 308,-36 308,0 366,0 366,-36"/>
<text xml:space="preserve" text-anchor="middle" x="337" y="-14.88" font-family="Courier,monospace" font-size="10.00">BOOLEAN</text>
</g>
<!-- BOOLEAN&#45;&gt;HASHABLE -->
<g id="edge11" class="edge">
<title>BOOLEAN&#45;&gt;HASHABLE</title>
<path fill="none" stroke="black" d="M310.53,-36.48C297.27,-45.24 281.04,-55.96 266.7,-65.42"/>
<polygon fill="none" stroke="black" points="264.82,-62.47 258.4,-70.91 268.67,-68.32 264.82,-62.47"/>
</g>
<!-- CHARACTER -->
<g id="node9" class="node">
<title>CHARACTER</title>
<polygon fill="none" stroke="black" points="218,-36 148,-36 148,0 218,0 218,-36"/>
<text xml:space="preserve" text-anchor="middle" x="183" y="-14.88" font-family="Courier,monospace" font-size="10.00">CHARACTER</text>
</g>
<!-- CHARACTER&#45;&gt;COMPARABLE -->
<g id="edge12" class="edge">
<title>CHARACTER&#45;&gt;COMPARABLE</title>
<path fill="none" stroke="black" d="M173.11,-36.3C168.66,-44.1 163.29,-53.49 158.33,-62.17"/>
<polygon fill="none" stroke="black" points="155.45,-60.16 153.52,-70.58 161.53,-63.64 155.45,-60.16"/>
</g>
<!-- CHARACTER&#45;&gt;HASHABLE -->
<g id="edge13" class="edge">
<title>CHARACTER&#45;&gt;HASHABLE</title>
<path fill="none" stroke="black" d="M194.87,-36.3C200.27,-44.19 206.79,-53.7 212.8,-62.45"/>
<polygon fill="none" stroke="black" points="209.87,-64.38 218.42,-70.65 215.65,-60.42 209.87,-64.38"/>
</g>
</g>
</svg>
