<?xml version="1.0" encoding="UTF-8" standalone="no"?>
<!DOCTYPE svg PUBLIC "-//W3C//DTD SVG 1.1//EN"
 "http://www.w3.org/Graphics/SVG/1.1/DTD/svg11.dtd">
<!-- Generated by graphviz version 14.1.1 (20251213.1925)
 -->
<!-- Title: Microservices Pages: 1 -->
<svg width="450pt" height="461pt"
 viewBox="0.00 0.00 450.00 461.00" xmlns="http://www.w3.org/2000/svg" xmlns:xlink="http://www.w3.org/1999/xlink">
<g id="graph0" class="graph" transform="scale(1 1) rotate(0) translate(4 457)">
<title>Microservices</title>
<polygon fill="white" stroke="none" points="-4,4 -4,-457 445.75,-457 445.75,4 -4,4"/>
<g id="clust1" class="cluster">
<title>cluster_frontend</title>
<polygon fill="lightcyan" stroke="black" points="8,-304 8,-445 106,-445 106,-304 8,-304"/>
<text xml:space="preserve" text-anchor="middle" x="57" y="-427.7" font-family="Times New Roman,serif" font-size="14.00">Frontend</text>
</g>
<g id="clust2" class="cluster">
<title>cluster_gateway</title>
<polygon fill="lightyellow" stroke="black" points="126,-363 126,-445 310.88,-445 310.88,-363 126,-363"/>
<text xml:space="preserve" text-anchor="middle" x="218.44" y="-427.7" font-family="Times New Roman,serif" font-size="14.00">API Gateway</text>
</g>
<g id="clust3" class="cluster">
<title>cluster_services</title>
<polygon fill="lightgreen" stroke="black" points="226,-96 226,-355 323.25,-355 323.25,-96 226,-96"/>
<text xml:space="preserve" text-anchor="middle" x="274.62" y="-337.7" font-family="Times New Roman,serif" font-size="14.00">Microservices</text>
</g>
<g id="clust4" class="cluster">
<title>cluster_data</title>
<polygon fill="lightpink" stroke="black" points="343.25,-8 343.25,-307 433.75,-307 433.75,-8 343.25,-8"/>
<text xml:space="preserve" text-anchor="middle" x="388.5" y="-289.7" font-family="Times New Roman,serif" font-size="14.00">Data Layer</text>
</g>
<!-- WebApp -->
<g id="node1" class="node">
<title>WebApp</title>
<path fill="none" stroke="black" d="M78.5,-353.5C78.5,-353.5 35.5,-353.5 35.5,-353.5 29.5,-353.5 23.5,-347.5 23.5,-341.5 23.5,-341.5 23.5,-324.5 23.5,-324.5 23.5,-318.5 29.5,-312.5 35.5,-312.5 35.5,-312.5 78.5,-312.5 78.5,-312.5 84.5,-312.5 90.5,-318.5 90.5,-324.5 90.5,-324.5 90.5,-341.5 90.5,-341.5 90.5,-347.5 84.5,-353.5 78.5,-353.5"/>
<text xml:space="preserve" text-anchor="middle" x="57" y="-336.2" font-family="Times New Roman,serif" font-size="14.00">Web App</text>
<text xml:space="preserve" text-anchor="middle" x="57" y="-319.7" font-family="Times New Roman,serif" font-size="14.00">(React)</text>
</g>
<!-- Gateway -->
<g id="node3" class="node">
<title>Gateway</title>
<path fill="none" stroke="black" d="M186,-412.5C186,-412.5 146,-412.5 146,-412.5 140,-412.5 134,-406.5 134,-400.5 134,-400.5 134,-383.5 134,-383.5 134,-377.5 140,-371.5 146,-371.5 146,-371.5 186,-371.5 186,-371.5 192,-371.5 198,-377.5 198,-383.5 198,-383.5 198,-400.5 198,-400.5 198,-406.5 192,-412.5 186,-412.5"/>
<text xml:space="preserve" text-anchor="middle" x="166" y="-395.2" font-family="Times New Roman,serif" font-size="14.00">Kong</text>
<text xml:space="preserve" text-anchor="middle" x="166" y="-378.7" font-family="Times New Roman,serif" font-size="14.00">Gateway</text>
</g>
<!-- WebApp&#45;&gt;Gateway -->
<g id="edge1" class="edge">
<title>WebApp&#45;&gt;Gateway</title>
<path fill="none" stroke="black" d="M90.98,-351.18C101.41,-356.94 113.08,-363.37 124.01,-369.4"/>
<polygon fill="black" stroke="black" points="122.01,-372.29 132.45,-374.05 125.39,-366.16 122.01,-372.29"/>
</g>
<!-- MobileApp -->
<g id="node2" class="node">
<title>MobileApp</title>
<path fill="none" stroke="black" d="M86,-412.5C86,-412.5 28,-412.5 28,-412.5 22,-412.5 16,-406.5 16,-400.5 16,-400.5 16,-383.5 16,-383.5 16,-377.5 22,-371.5 28,-371.5 28,-371.5 86,-371.5 86,-371.5 92,-371.5 98,-377.5 98,-383.5 98,-383.5 98,-400.5 98,-400.5 98,-406.5 92,-412.5 86,-412.5"/>
<text xml:space="preserve" text-anchor="middle" x="57" y="-395.2" font-family="Times New Roman,serif" font-size="14.00">Mobile App</text>
<text xml:space="preserve" text-anchor="middle" x="57" y="-378.7" font-family="Times New Roman,serif" font-size="14.00">(Flutter)</text>
</g>
<!-- MobileApp&#45;&gt;Gateway -->
<g id="edge2" class="edge">
<title>MobileApp&#45;&gt;Gateway</title>
<path fill="none" stroke="black" d="M98.45,-392C106.32,-392 114.6,-392 122.54,-392"/>
<polygon fill="black" stroke="black" points="122.32,-395.5 132.32,-392 122.32,-388.5 122.32,-395.5"/>
</g>
<!-- Auth -->
<g id="node4" class="node">
<title>Auth</title>
<path fill="none" stroke="black" d="M290.88,-412.5C290.88,-412.5 258.38,-412.5 258.38,-412.5 252.38,-412.5 246.38,-406.5 246.38,-400.5 246.38,-400.5 246.38,-383.5 246.38,-383.5 246.38,-377.5 252.38,-371.5 258.38,-371.5 258.38,-371.5 290.88,-371.5 290.88,-371.5 296.88,-371.5 302.88,-377.5 302.88,-383.5 302.88,-383.5 302.88,-400.5 302.88,-400.5 302.88,-406.5 296.88,-412.5 290.88,-412.5"/>
<text xml:space="preserve" text-anchor="middle" x="274.62" y="-395.2" font-family="Times New Roman,serif" font-size="14.00">Auth</text>
<text xml:space="preserve" text-anchor="middle" x="274.62" y="-378.7" font-family="Times New Roman,serif" font-size="14.00">Service</text>
</g>
<!-- Gateway&#45;&gt;Auth -->
<g id="edge3" class="edge">
<title>Gateway&#45;&gt;Auth</title>
<path fill="none" stroke="black" d="M198.41,-392C209.75,-392 222.68,-392 234.59,-392"/>
<polygon fill="black" stroke="black" points="234.54,-395.5 244.54,-392 234.54,-388.5 234.54,-395.5"/>
</g>
<!-- UserSvc -->
<g id="node5" class="node">
<title>UserSvc</title>
<path fill="none" stroke="black" d="M290.88,-145.5C290.88,-145.5 258.38,-145.5 258.38,-145.5 252.38,-145.5 246.38,-139.5 246.38,-133.5 246.38,-133.5 246.38,-116.5 246.38,-116.5 246.38,-110.5 252.38,-104.5 258.38,-104.5 258.38,-104.5 290.88,-104.5 290.88,-104.5 296.88,-104.5 302.88,-110.5 302.88,-116.5 302.88,-116.5 302.88,-133.5 302.88,-133.5 302.88,-139.5 296.88,-145.5 290.88,-145.5"/>
<text xml:space="preserve" text-anchor="middle" x="274.62" y="-128.2" font-family="Times New Roman,serif" font-size="14.00">User</text>
<text xml:space="preserve" text-anchor="middle" x="274.62" y="-111.7" font-family="Times New Roman,serif" font-size="14.00">Service</text>
</g>
<!-- Gateway&#45;&gt;UserSvc -->
<g id="edge4" class="edge">
<title>Gateway&#45;&gt;UserSvc</title>
<path fill="none" stroke="black" d="M167.14,-371.16C168.45,-327.07 176.91,-222.85 226,-155 228.98,-150.88 232.72,-147.2 236.78,-143.94"/>
<polygon fill="black" stroke="black" points="238.58,-146.95 244.78,-138.36 234.58,-141.21 238.58,-146.95"/>
</g>
<!-- OrderSvc -->
<g id="node6" class="node">
<title>OrderSvc</title>
<path fill="none" stroke="black" d="M290.88,-204.5C290.88,-204.5 258.38,-204.5 258.38,-204.5 252.38,-204.5 246.38,-198.5 246.38,-192.5 246.38,-192.5 246.38,-175.5 246.38,-175.5 246.38,-169.5 252.38,-163.5 258.38,-163.5 258.38,-163.5 290.88,-163.5 290.88,-163.5 296.88,-163.5 302.88,-169.5 302.88,-175.5 302.88,-175.5 302.88,-192.5 302.88,-192.5 302.88,-198.5 296.88,-204.5 290.88,-204.5"/>
<text xml:space="preserve" text-anchor="middle" x="274.62" y="-187.2" font-family="Times New Roman,serif" font-size="14.00">Order</text>
<text xml:space="preserve" text-anchor="middle" x="274.62" y="-170.7" font-family="Times New Roman,serif" font-size="14.00">Service</text>
</g>
<!-- Gateway&#45;&gt;OrderSvc -->
<g id="edge5" class="edge">
<title>Gateway&#45;&gt;OrderSvc</title>
<path fill="none" stroke="black" d="M169.29,-371.19C174.13,-335.6 188.26,-262.19 226,-214 229.13,-210 232.96,-206.38 237.07,-203.16"/>
<polygon fill="black" stroke="black" points="238.87,-206.17 245.11,-197.61 234.9,-200.41 238.87,-206.17"/>
</g>
<!-- PaymentSvc -->
<g id="node7" class="node">
<title>PaymentSvc</title>
<path fill="none" stroke="black" d="M294.62,-263.5C294.62,-263.5 254.62,-263.5 254.62,-263.5 248.62,-263.5 242.62,-257.5 242.62,-251.5 242.62,-251.5 242.62,-234.5 242.62,-234.5 242.62,-228.5 248.62,-222.5 254.62,-222.5 254.62,-222.5 294.62,-222.5 294.62,-222.5 300.62,-222.5 306.62,-228.5 306.62,-234.5 306.62,-234.5 306.62,-251.5 306.62,-251.5 306.62,-257.5 300.62,-263.5 294.62,-263.5"/>
<text xml:space="preserve" text-anchor="middle" x="274.62" y="-246.2" font-family="Times New Roman,serif" font-size="14.00">Payment</text>
<text xml:space="preserve" text-anchor="middle" x="274.62" y="-229.7" font-family="Times New Roman,serif" font-size="14.00">Service</text>
</g>
<!-- Gateway&#45;&gt;PaymentSvc -->
<g id="edge6" class="edge">
<title>Gateway&#45;&gt;PaymentSvc</title>
<path fill="none" stroke="black" d="M173.45,-371.03C182.13,-345.53 199.57,-302.27 226,-273 228.28,-270.47 230.83,-268.07 233.52,-265.82"/>
<polygon fill="black" stroke="black" points="235.36,-268.82 241.28,-260.03 231.17,-263.21 235.36,-268.82"/>
</g>
<!-- UserDB -->
<g id="node9" class="node">
<title>UserDB</title>
<path fill="none" stroke="black" d="M419.38,-141.06C419.38,-143.89 405.54,-146.19 388.5,-146.19 371.46,-146.19 357.62,-143.89 357.62,-141.06 357.62,-141.06 357.62,-94.94 357.62,-94.94 357.62,-92.11 371.46,-89.81 388.5,-89.81 405.54,-89.81 419.38,-92.11 419.38,-94.94 419.38,-94.94 419.38,-141.06 419.38,-141.06"/>
<path fill="none" stroke="black" d="M419.38,-141.06C419.38,-138.23 405.54,-135.94 388.5,-135.94 371.46,-135.94 357.62,-138.23 357.62,-141.06"/>
<text xml:space="preserve" text-anchor="middle" x="388.5" y="-121.2" font-family="Times New Roman,serif" font-size="14.00">Users</text>
<text xml:space="preserve" text-anchor="middle" x="388.5" y="-104.7" font-family="Times New Roman,serif" font-size="14.00">Postgres</text>
</g>
<!-- UserSvc&#45;&gt;UserDB -->
<g id="edge7" class="edge">
<title>UserSvc&#45;&gt;UserDB</title>
<path fill="none" stroke="black" d="M303.28,-123.27C316.25,-122.46 331.97,-121.47 346.3,-120.58"/>
<polygon fill="black" stroke="black" points="346.14,-124.09 355.91,-119.98 345.71,-117.11 346.14,-124.09"/>
</g>
<!-- Cache -->
<g id="node11" class="node">
<title>Cache</title>
<path fill="none" stroke="black" d="M415.5,-67.06C415.5,-69.89 403.4,-72.19 388.5,-72.19 373.6,-72.19 361.5,-69.89 361.5,-67.06 361.5,-67.06 361.5,-20.94 361.5,-20.94 361.5,-18.11 373.6,-15.81 388.5,-15.81 403.4,-15.81 415.5,-18.11 415.5,-20.94 415.5,-20.94 415.5,-67.06 415.5,-67.06"/>
<path fill="none" stroke="black" d="M415.5,-67.06C415.5,-64.23 403.4,-61.94 388.5,-61.94 373.6,-61.94 361.5,-64.23 361.5,-67.06"/>
<text xml:space="preserve" text-anchor="middle" x="388.5" y="-47.2" font-family="Times New Roman,serif" font-size="14.00">Redis</text>
<text xml:space="preserve" text-anchor="middle" x="388.5" y="-30.7" font-family="Times New Roman,serif" font-size="14.00">Cache</text>
</g>
<!-- UserSvc&#45;&gt;Cache -->
<g id="edge8" class="edge">
<title>UserSvc&#45;&gt;Cache</title>
<path fill="none" stroke="black" d="M303.28,-104.98C318.1,-94.25 336.52,-80.91 352.34,-69.45"/>
<polygon fill="black" stroke="black" points="354.04,-72.54 360.09,-63.84 349.94,-66.87 354.04,-72.54"/>
</g>
<!-- OrderDB -->
<g id="node10" class="node">
<title>OrderDB</title>
<path fill="none" stroke="black" d="M425.75,-215.06C425.75,-217.89 409.05,-220.19 388.5,-220.19 367.95,-220.19 351.25,-217.89 351.25,-215.06 351.25,-215.06 351.25,-168.94 351.25,-168.94 351.25,-166.11 367.95,-163.81 388.5,-163.81 409.05,-163.81 425.75,-166.11 425.75,-168.94 425.75,-168.94 425.75,-215.06 425.75,-215.06"/>
<path fill="none" stroke="black" d="M425.75,-215.06C425.75,-212.23 409.05,-209.94 388.5,-209.94 367.95,-209.94 351.25,-212.23 351.25,-215.06"/>
<text xml:space="preserve" text-anchor="middle" x="388.5" y="-195.2" font-family="Times New Roman,serif" font-size="14.00">Orders</text>
<text xml:space="preserve" text-anchor="middle" x="388.5" y="-178.7" font-family="Times New Roman,serif" font-size="14.00">MongoDB</text>
</g>
<!-- OrderSvc&#45;&gt;OrderDB -->
<g id="edge9" class="edge">
<title>OrderSvc&#45;&gt;OrderDB</title>
<path fill="none" stroke="black" d="M303.28,-185.98C314.28,-186.76 327.25,-187.69 339.69,-188.58"/>
<polygon fill="black" stroke="black" points="339.14,-192.05 349.37,-189.27 339.64,-185.07 339.14,-192.05"/>
</g>
<!-- Queue -->
<g id="node12" class="node">
<title>Queue</title>
<polygon fill="none" stroke="black" points="425.75,-274 355.25,-274 351.25,-270 351.25,-238 421.75,-238 425.75,-242 425.75,-274"/>
<polyline fill="none" stroke="black" points="421.75,-270 351.25,-270"/>
<polyline fill="none" stroke="black" points="421.75,-270 421.75,-238"/>
<polyline fill="none" stroke="black" points="421.75,-270 425.75,-274"/>
<text xml:space="preserve" text-anchor="middle" x="388.5" y="-250.95" font-family="Times New Roman,serif" font-size="14.00">RabbitMQ</text>
</g>
<!-- OrderSvc&#45;&gt;Queue -->
<g id="edge10" class="edge">
<title>OrderSvc&#45;&gt;Queue</title>
<path fill="none" stroke="black" d="M303.32,-200.92C309.92,-205.09 316.89,-209.62 323.25,-214 332.4,-220.3 334.05,-222.77 343.25,-229 344.6,-229.92 345.98,-230.84 347.38,-231.76"/>
<polygon fill="black" stroke="black" points="345.21,-234.52 355.51,-236.97 348.98,-228.63 345.21,-234.52"/>
</g>
<!-- PaymentSvc&#45;&gt;Queue -->
<g id="edge11" class="edge">
<title>PaymentSvc&#45;&gt;Queue</title>
<path fill="none" stroke="black" d="M307.09,-246.66C317.26,-247.84 328.77,-249.18 339.84,-250.46"/>
<polygon fill="black" stroke="black" points="339.3,-253.92 349.64,-251.6 340.11,-246.97 339.3,-253.92"/>
</g>
<!-- NotifySvc -->
<g id="node8" class="node">
<title>NotifySvc</title>
<path fill="none" stroke="black" d="M303.25,-322.5C303.25,-322.5 246,-322.5 246,-322.5 240,-322.5 234,-316.5 234,-310.5 234,-310.5 234,-293.5 234,-293.5 234,-287.5 240,-281.5 246,-281.5 246,-281.5 303.25,-281.5 303.25,-281.5 309.25,-281.5 315.25,-287.5 315.25,-293.5 315.25,-293.5 315.25,-310.5 315.25,-310.5 315.25,-316.5 309.25,-322.5 303.25,-322.5"/>
<text xml:space="preserve" text-anchor="middle" x="274.62" y="-305.2" font-family="Times New Roman,serif" font-size="14.00">Notification</text>
<text xml:space="preserve" text-anchor="middle" x="274.62" y="-288.7" font-family="Times New Roman,serif" font-size="14.00">Service</text>
</g>
<!-- Queue&#45;&gt;NotifySvc -->
<g id="edge12" class="edge">
<title>Queue&#45;&gt;NotifySvc</title>
<path fill="none" stroke="black" d="M351.06,-270.98C343.11,-274.25 334.56,-277.77 326.18,-281.22"/>
<polygon fill="black" stroke="black" points="325.02,-277.91 317.1,-284.95 327.68,-284.38 325.02,-277.91"/>
</g>
</g>
</svg>
