<?xml version="1.0" encoding="UTF-8" standalone="no"?>
<!DOCTYPE svg PUBLIC "-//W3C//DTD SVG 1.1//EN"
 "http://www.w3.org/Graphics/SVG/1.1/DTD/svg11.dtd">
<!-- Generated by graphviz version 14.1.1 (20251213.1925)
 -->
<!-- Title: DatabaseSchema Pages: 1 -->
<svg width="739pt" height="262pt"
 viewBox="0.00 0.00 739.00 262.00" xmlns="http://www.w3.org/2000/svg" xmlns:xlink="http://www.w3.org/1999/xlink">
<g id="graph0" class="graph" transform="scale(1 1) rotate(0) translate(4 258)">
<title>DatabaseSchema</title>
<polygon fill="white" stroke="none" points="-4,4 -4,-258 734.5,-258 734.5,4 -4,4"/>
<!-- users -->
<g id="node1" class="node">
<title>users</title>
<polygon fill="none" stroke="black" points="562.75,-191.5 562.75,-247.5 730.5,-247.5 730.5,-191.5 562.75,-191.5"/>
<text xml:space="preserve" text-anchor="middle" x="582.75" y="-216" font-family="Arial" font-size="10.00">users</text>
<polyline fill="none" stroke="black" points="602.75,-191.5 602.75,-247.5"/>
<text xml:space="preserve" text-anchor="start" x="610.75" y="-234" font-family="Arial" font-size="10.00">id : INT PK</text>
<text xml:space="preserve" text-anchor="start" x="610.75" y="-222" font-family="Arial" font-size="10.00">name : VARCHAR(100)</text>
<text xml:space="preserve" text-anchor="start" x="610.75" y="-210" font-family="Arial" font-size="10.00">email : VARCHAR(255)</text>
<text xml:space="preserve" text-anchor="start" x="610.75" y="-198" font-family="Arial" font-size="10.00">created_at : TIMESTAMP</text>
</g>
<!-- orders -->
<g id="node2" class="node">
<title>orders</title>
<polygon fill="none" stroke="black" points="311,-185.5 311,-253.5 481.75,-253.5 481.75,-185.5 311,-185.5"/>
<text xml:space="preserve" text-anchor="middle" x="332.5" y="-216" font-family="Arial" font-size="10.00">orders</text>
<polyline fill="none" stroke="black" points="354,-185.5 354,-253.5"/>
<text xml:space="preserve" text-anchor="start" x="362" y="-240" font-family="Arial" font-size="10.00">id : INT PK</text>
<text xml:space="preserve" text-anchor="start" x="362" y="-228" font-family="Arial" font-size="10.00">user_id : INT FK</text>
<text xml:space="preserve" text-anchor="start" x="362" y="-216" font-family="Arial" font-size="10.00">status : VARCHAR(20)</text>
<text xml:space="preserve" text-anchor="start" x="362" y="-204" font-family="Arial" font-size="10.00">total : DECIMAL(10,2)</text>
<text xml:space="preserve" text-anchor="start" x="362" y="-192" font-family="Arial" font-size="10.00">created_at : TIMESTAMP</text>
</g>
<!-- orders&#45;&gt;users -->
<g id="edge1" class="edge">
<title>orders&#45;&gt;users</title>
<path fill="none" stroke="black" d="M482.11,-219.5C504.65,-219.5 529.11,-219.5 552.09,-219.5"/>
<polygon fill="black" stroke="black" points="552.19,-219.5 562.19,-224 557.53,-219.5 561.86,-219.5 561.86,-219.5 561.86,-219.5 557.53,-219.5 562.19,-215 552.19,-219.5"/>
<text xml:space="preserve" text-anchor="middle" x="524.88" y="-222.7" font-family="Times New Roman,serif" font-size="14.00">user_id</text>
</g>
<!-- order_items -->
<g id="node3" class="node">
<title>order_items</title>
<polygon fill="none" stroke="black" points="11.62,-124.5 11.62,-192.5 194.38,-192.5 194.38,-124.5 11.62,-124.5"/>
<text xml:space="preserve" text-anchor="middle" x="45.12" y="-155" font-family="Arial" font-size="10.00">order_items</text>
<polyline fill="none" stroke="black" points="78.62,-124.5 78.62,-192.5"/>
<text xml:space="preserve" text-anchor="start" x="86.62" y="-179" font-family="Arial" font-size="10.00">id : INT PK</text>
<text xml:space="preserve" text-anchor="start" x="86.62" y="-167" font-family="Arial" font-size="10.00">order_id : INT FK</text>
<text xml:space="preserve" text-anchor="start" x="86.62" y="-155" font-family="Arial" font-size="10.00">product_id : INT FK</text>
<text xml:space="preserve" text-anchor="start" x="86.62" y="-143" font-family="Arial" font-size="10.00">quantity : INT</text>
<text xml:space="preserve" text-anchor="start" x="86.62" y="-131" font-family="Arial" font-size="10.00">price : DECIMAL(10,2)</text>
</g>
<!-- order_items&#45;&gt;orders -->
<g id="edge2" class="edge">
<title>order_items&#45;&gt;orders</title>
<path fill="none" stroke="black" d="M194.6,-177.47C228.35,-184.53 266.73,-192.57 300.83,-199.71"/>
<polygon fill="black" stroke="black" points="300.68,-199.68 309.55,-206.13 305.9,-200.77 310.14,-201.66 310.14,-201.66 310.14,-201.66 305.9,-200.77 311.39,-197.32 300.68,-199.68"/>
<text xml:space="preserve" text-anchor="middle" x="255.88" y="-199.46" font-family="Times New Roman,serif" font-size="14.00">order_id</text>
</g>
<!-- products -->
<g id="node4" class="node">
<title>products</title>
<polygon fill="none" stroke="black" points="309.5,-98.5 309.5,-166.5 483.25,-166.5 483.25,-98.5 309.5,-98.5"/>
<text xml:space="preserve" text-anchor="middle" x="336.25" y="-129" font-family="Arial" font-size="10.00">products</text>
<polyline fill="none" stroke="black" points="363,-98.5 363,-166.5"/>
<text xml:space="preserve" text-anchor="start" x="371" y="-153" font-family="Arial" font-size="10.00">id : INT PK</text>
<text xml:space="preserve" text-anchor="start" x="371" y="-141" font-family="Arial" font-size="10.00">name : VARCHAR(200)</text>
<text xml:space="preserve" text-anchor="start" x="371" y="-129" font-family="Arial" font-size="10.00">description : TEXT</text>
<text xml:space="preserve" text-anchor="start" x="371" y="-117" font-family="Arial" font-size="10.00">price : DECIMAL(10,2)</text>
<text xml:space="preserve" text-anchor="start" x="371" y="-105" font-family="Arial" font-size="10.00">stock : INT</text>
</g>
<!-- order_items&#45;&gt;products -->
<g id="edge3" class="edge">
<title>order_items&#45;&gt;products</title>
<path fill="none" stroke="black" d="M194.6,-150.42C227.75,-147.46 265.37,-144.1 299.01,-141.1"/>
<polygon fill="black" stroke="black" points="299.02,-141.1 309.38,-144.69 304.34,-140.62 308.65,-140.24 308.65,-140.24 308.65,-140.24 304.34,-140.62 308.58,-135.73 299.02,-141.1"/>
<text xml:space="preserve" text-anchor="middle" x="255.88" y="-150.26" font-family="Times New Roman,serif" font-size="14.00">product_id</text>
</g>
<!-- categories -->
<g id="node5" class="node">
<title>categories</title>
<polygon fill="none" stroke="black" points="305.75,-0.5 305.75,-44.5 487,-44.5 487,-0.5 305.75,-0.5"/>
<text xml:space="preserve" text-anchor="middle" x="336.25" y="-19" font-family="Arial" font-size="10.00">categories</text>
<polyline fill="none" stroke="black" points="366.75,-0.5 366.75,-44.5"/>
<text xml:space="preserve" text-anchor="start" x="374.75" y="-31" font-family="Arial" font-size="10.00">id : INT PK</text>
<text xml:space="preserve" text-anchor="start" x="374.75" y="-19" font-family="Arial" font-size="10.00">name : VARCHAR(100)</text>
<text xml:space="preserve" text-anchor="start" x="374.75" y="-7" font-family="Arial" font-size="10.00">parent_id : INT FK</text>
</g>
<!-- categories&#45;&gt;categories -->
<g id="edge6" class="edge">
<title>categories&#45;&gt;categories</title>
<path fill="none" stroke="black" stroke-dasharray="5,2" d="M372.57,-44.99C370.62,-54.69 378.56,-63 396.38,-63 406.68,-63 413.68,-60.22 417.37,-56.01"/>
<polygon fill="black" stroke="black" points="420.73,-57.01 419.81,-46.46 413.94,-55.28 420.73,-57.01"/>
<text xml:space="preserve" text-anchor="middle" x="396.38" y="-66.2" font-family="Times New Roman,serif" font-size="14.00">parent_id</text>
</g>
<!-- product_categories -->
<g id="node6" class="node">
<title>product_categories</title>
<polygon fill="none" stroke="black" points="0,-65.5 0,-101.5 206,-101.5 206,-65.5 0,-65.5"/>
<text xml:space="preserve" text-anchor="middle" x="49.25" y="-80" font-family="Arial" font-size="10.00">product_categories</text>
<polyline fill="none" stroke="black" points="98.5,-65.5 98.5,-101.5"/>
<text xml:space="preserve" text-anchor="start" x="106.5" y="-86" font-family="Arial" font-size="10.00">product_id : INT FK</text>
<text xml:space="preserve" text-anchor="start" x="106.5" y="-74" font-family="Arial" font-size="10.00">category_id : INT FK</text>
</g>
<!-- product_categories&#45;&gt;products -->
<g id="edge4" class="edge">
<title>product_categories&#45;&gt;products</title>
<path fill="none" stroke="black" d="M206.32,-100.71C236.52,-105.79 269.46,-111.32 299.25,-116.34"/>
<polygon fill="black" stroke="black" points="299.04,-116.3 308.15,-122.4 304.3,-117.18 308.57,-117.9 308.57,-117.9 308.57,-117.9 304.3,-117.18 309.65,-113.52 299.04,-116.3"/>
<text xml:space="preserve" text-anchor="middle" x="255.88" y="-117.03" font-family="Times New Roman,serif" font-size="14.00">product_id</text>
</g>
<!-- product_categories&#45;&gt;categories -->
<g id="edge5" class="edge">
<title>product_categories&#45;&gt;categories</title>
<path fill="none" stroke="black" d="M192.21,-65.03C224.84,-58.2 262.04,-50.41 295.62,-43.38"/>
<polygon fill="black" stroke="black" points="295.33,-43.44 306.04,-45.8 300.55,-42.35 304.79,-41.46 304.79,-41.46 304.79,-41.46 300.55,-42.35 304.2,-36.99 295.33,-43.44"/>
<text xml:space="preserve" text-anchor="middle" x="255.88" y="-59.85" font-family="Times New Roman,serif" font-size="14.00">category_id</text>
</g>
</g>
</svg>
