<?xml version="1.0" encoding="UTF-8" standalone="no"?>
<!DOCTYPE svg PUBLIC "-//W3C//DTD SVG 1.1//EN"
 "http://www.w3.org/Graphics/SVG/1.1/DTD/svg11.dtd">
<!-- Generated by graphviz version 14.1.1 (20251213.1925)
 -->
<!-- Title: TrafficLight Pages: 1 -->
<svg width="460pt" height="156pt"
 viewBox="0.00 0.00 460.00 156.00" xmlns="http://www.w3.org/2000/svg" xmlns:xlink="http://www.w3.org/1999/xlink">
<g id="graph0" class="graph" transform="scale(1 1) rotate(0) translate(4 152.4)">
<title>TrafficLight</title>
<polygon fill="white" stroke="none" points="-4,4 -4,-152.4 455.6,-152.4 455.6,4 -4,4"/>
<!-- start -->
<g id="node1" class="node">
<title>start</title>
<ellipse fill="black" stroke="black" cx="7.2" cy="-43.2" rx="7.2" ry="7.2"/>
</g>
<!-- RED -->
<g id="node2" class="node">
<title>RED</title>
<ellipse fill="red" stroke="black" cx="94.6" cy="-43.2" rx="43.2" ry="43.2"/>
<text xml:space="preserve" text-anchor="middle" x="94.6" y="-38.92" font-family="Arial Bold" font-size="12.00" fill="white">RED</text>
</g>
<!-- start&#45;&gt;RED -->
<g id="edge1" class="edge">
<title>start&#45;&gt;RED</title>
<path fill="none" stroke="black" d="M14.62,-43.2C20.49,-43.2 29.78,-43.2 39.97,-43.2"/>
<polygon fill="black" stroke="black" points="39.74,-46.7 49.74,-43.2 39.74,-39.7 39.74,-46.7"/>
</g>
<!-- GREEN -->
<g id="node4" class="node">
<title>GREEN</title>
<ellipse fill="green" stroke="black" cx="251.5" cy="-105.2" rx="43.2" ry="43.2"/>
<text xml:space="preserve" text-anchor="middle" x="251.5" y="-100.92" font-family="Arial Bold" font-size="12.00" fill="white">GREEN</text>
</g>
<!-- RED&#45;&gt;GREEN -->
<g id="edge2" class="edge">
<title>RED&#45;&gt;GREEN</title>
<path fill="none" stroke="black" d="M135.09,-59.01C154.95,-66.95 179.23,-76.67 200.39,-85.14"/>
<polygon fill="black" stroke="black" points="198.82,-88.29 209.41,-88.75 201.43,-81.79 198.82,-88.29"/>
<text xml:space="preserve" text-anchor="middle" x="173.05" y="-82.95" font-family="Times New Roman,serif" font-size="14.00">45 sec</text>
</g>
<!-- YELLOW -->
<g id="node3" class="node">
<title>YELLOW</title>
<ellipse fill="yellow" stroke="black" cx="408.4" cy="-43.2" rx="43.2" ry="43.2"/>
<text xml:space="preserve" text-anchor="middle" x="408.4" y="-38.92" font-family="Arial Bold" font-size="12.00">YELLOW</text>
</g>
<!-- YELLOW&#45;&gt;RED -->
<g id="edge4" class="edge">
<title>YELLOW&#45;&gt;RED</title>
<path fill="none" stroke="black" d="M364.88,-40.17C343.79,-38.81 317.91,-37.37 294.7,-36.7 256.32,-35.59 246.68,-35.59 208.3,-36.7 189.08,-37.25 168.03,-38.34 149.38,-39.47"/>
<polygon fill="black" stroke="black" points="149.39,-35.96 139.63,-40.07 149.83,-42.94 149.39,-35.96"/>
<text xml:space="preserve" text-anchor="middle" x="251.5" y="-39.9" font-family="Times New Roman,serif" font-size="14.00">5 sec</text>
</g>
<!-- GREEN&#45;&gt;YELLOW -->
<g id="edge3" class="edge">
<title>GREEN&#45;&gt;YELLOW</title>
<path fill="none" stroke="black" d="M291.99,-89.39C311.85,-81.45 336.13,-71.73 357.29,-63.26"/>
<polygon fill="black" stroke="black" points="358.33,-66.61 366.31,-59.65 355.72,-60.11 358.33,-66.61"/>
<text xml:space="preserve" text-anchor="middle" x="329.95" y="-82.95" font-family="Times New Roman,serif" font-size="14.00">30 sec</text>
</g>
</g>
</svg>
