<?xml version="1.0" encoding="UTF-8" standalone="no"?>
<!DOCTYPE svg PUBLIC "-//W3C//DTD SVG 1.1//EN"
 "http://www.w3.org/Graphics/SVG/1.1/DTD/svg11.dtd">
<!-- Generated by graphviz version 14.1.1 (20251213.1925)
 -->
<!-- Title: OrderProcessing Pages: 1 -->
<svg width="343pt" height="620pt"
 viewBox="0.00 0.00 343.00 620.00" xmlns="http://www.w3.org/2000/svg" xmlns:xlink="http://www.w3.org/1999/xlink">
<g id="graph0" class="graph" transform="scale(1 1) rotate(0) translate(4 616)">
<title>OrderProcessing</title>
<polygon fill="white" stroke="none" points="-4,4 -4,-616 339.14,-616 339.14,4 -4,4"/>
<!-- start -->
<g id="node1" class="node">
<title>start</title>
<ellipse fill="black" stroke="black" cx="201.12" cy="-604.8" rx="7.2" ry="7.2"/>
</g>
<!-- PENDING -->
<g id="node3" class="node">
<title>PENDING</title>
<polygon fill="lightyellow" stroke="black" points="240.25,-545.1 162,-545.1 162,-509.1 240.25,-509.1 240.25,-545.1"/>
<text xml:space="preserve" text-anchor="middle" x="201.12" y="-521.68" font-family="Arial" font-size="14.00">PENDING</text>
</g>
<!-- start&#45;&gt;PENDING -->
<g id="edge1" class="edge">
<title>start&#45;&gt;PENDING</title>
<path fill="none" stroke="black" d="M201.12,-597.35C201.12,-588.37 201.12,-571.56 201.12,-556.75"/>
<polygon fill="black" stroke="black" points="204.62,-557.01 201.12,-547.01 197.62,-557.01 204.62,-557.01"/>
<text xml:space="preserve" text-anchor="middle" x="234.87" y="-566.3" font-family="Times New Roman,serif" font-size="14.00">order placed</text>
</g>
<!-- end -->
<g id="node2" class="node">
<title>end</title>
<ellipse fill="none" stroke="black" cx="151.12" cy="-14.8" rx="10.8" ry="10.8"/>
<ellipse fill="none" stroke="black" cx="151.12" cy="-14.8" rx="14.8" ry="14.8"/>
</g>
<!-- CONFIRMED -->
<g id="node4" class="node">
<title>CONFIRMED</title>
<polygon fill="lightblue" stroke="black" points="194.75,-456.6 95.5,-456.6 95.5,-420.6 194.75,-420.6 194.75,-456.6"/>
<text xml:space="preserve" text-anchor="middle" x="145.12" y="-433.18" font-family="Arial" font-size="14.00">CONFIRMED</text>
</g>
<!-- PENDING&#45;&gt;CONFIRMED -->
<g id="edge2" class="edge">
<title>PENDING&#45;&gt;CONFIRMED</title>
<path fill="none" stroke="black" d="M162.83,-508.62C156.27,-503.88 150.31,-498.08 146.37,-491.1 142.53,-484.27 141.17,-476.08 141.04,-468.26"/>
<polygon fill="black" stroke="black" points="144.53,-468.59 141.56,-458.42 137.54,-468.22 144.53,-468.59"/>
<text xml:space="preserve" text-anchor="middle" x="194.75" y="-477.8" font-family="Times New Roman,serif" font-size="14.00">payment received</text>
</g>
<!-- CANCELLED -->
<g id="node8" class="node">
<title>CANCELLED</title>
<polygon fill="lightpink" stroke="black" points="273.62,-368.1 176.62,-368.1 176.62,-332.1 273.62,-332.1 273.62,-368.1"/>
<text xml:space="preserve" text-anchor="middle" x="225.12" y="-344.68" font-family="Arial" font-size="14.00">CANCELLED</text>
</g>
<!-- PENDING&#45;&gt;CANCELLED -->
<g id="edge3" class="edge">
<title>PENDING&#45;&gt;CANCELLED</title>
<path fill="none" stroke="black" d="M228.82,-508.97C234.59,-503.97 239.9,-497.98 243.12,-491.1 262.92,-448.84 254.1,-431.46 243.12,-386.1 242.52,-383.62 241.71,-381.11 240.77,-378.65"/>
<polygon fill="black" stroke="black" points="243.99,-377.27 236.63,-369.64 237.63,-380.19 243.99,-377.27"/>
<text xml:space="preserve" text-anchor="middle" x="295.02" y="-433.55" font-family="Times New Roman,serif" font-size="14.00">timeout/cancel</text>
</g>
<!-- PROCESSING -->
<g id="node5" class="node">
<title>PROCESSING</title>
<polygon fill="lightcyan" stroke="black" points="127.87,-368.1 20.37,-368.1 20.37,-332.1 127.87,-332.1 127.87,-368.1"/>
<text xml:space="preserve" text-anchor="middle" x="74.12" y="-344.68" font-family="Arial" font-size="14.00">PROCESSING</text>
</g>
<!-- CONFIRMED&#45;&gt;PROCESSING -->
<g id="edge4" class="edge">
<title>CONFIRMED&#45;&gt;PROCESSING</title>
<path fill="none" stroke="black" d="M95.01,-420.81C87.35,-416.09 80.41,-410.12 75.62,-402.6 71.3,-395.81 69.83,-387.42 69.75,-379.4"/>
<polygon fill="black" stroke="black" points="73.23,-379.86 70.34,-369.66 66.24,-379.43 73.23,-379.86"/>
<text xml:space="preserve" text-anchor="middle" x="109.37" y="-389.3" font-family="Times New Roman,serif" font-size="14.00">pick &amp; pack</text>
</g>
<!-- CONFIRMED&#45;&gt;CANCELLED -->
<g id="edge5" class="edge">
<title>CONFIRMED&#45;&gt;CANCELLED</title>
<path fill="none" stroke="black" d="M149.03,-420.33C152.16,-409.55 157.45,-395.89 165.87,-386.1 169.39,-382.01 173.51,-378.28 177.9,-374.9"/>
<polygon fill="black" stroke="black" points="179.73,-377.89 185.97,-369.33 175.76,-372.13 179.73,-377.89"/>
<text xml:space="preserve" text-anchor="middle" x="204.5" y="-389.3" font-family="Times New Roman,serif" font-size="14.00">cancel request</text>
</g>
<!-- SHIPPED -->
<g id="node6" class="node">
<title>SHIPPED</title>
<polygon fill="lightgreen" stroke="black" points="127.75,-279.6 52.5,-279.6 52.5,-243.6 127.75,-243.6 127.75,-279.6"/>
<text xml:space="preserve" text-anchor="middle" x="90.12" y="-256.18" font-family="Arial" font-size="14.00">SHIPPED</text>
</g>
<!-- PROCESSING&#45;&gt;SHIPPED -->
<g id="edge6" class="edge">
<title>PROCESSING&#45;&gt;SHIPPED</title>
<path fill="none" stroke="black" d="M22.66,-331.7C5.99,-323.12 -6.06,-311.58 3.37,-297.6 12.22,-284.49 26.89,-276.29 41.67,-271.16"/>
<polygon fill="black" stroke="black" points="42.35,-274.61 50.92,-268.38 40.33,-267.91 42.35,-274.61"/>
<text xml:space="preserve" text-anchor="middle" x="42.75" y="-300.8" font-family="Times New Roman,serif" font-size="14.00">courier pickup</text>
</g>
<!-- SHIPPED&#45;&gt;PROCESSING -->
<g id="edge8" class="edge">
<title>SHIPPED&#45;&gt;PROCESSING</title>
<path fill="none" stroke="black" d="M87.76,-279.82C86.3,-289.85 84.3,-302.73 82.12,-314.1 81.71,-316.26 81.26,-318.49 80.79,-320.72"/>
<polygon fill="black" stroke="black" points="77.43,-319.71 78.68,-330.23 84.26,-321.22 77.43,-319.71"/>
<text xml:space="preserve" text-anchor="middle" x="124.24" y="-300.8" font-family="Times New Roman,serif" font-size="14.00">delivery failed</text>
</g>
<!-- DELIVERED -->
<g id="node7" class="node">
<title>DELIVERED</title>
<polygon fill="green" stroke="black" points="136.37,-191.1 43.87,-191.1 43.87,-155.1 136.37,-155.1 136.37,-191.1"/>
<text xml:space="preserve" text-anchor="middle" x="90.12" y="-167.67" font-family="Arial" font-size="14.00" fill="white">DELIVERED</text>
</g>
<!-- SHIPPED&#45;&gt;DELIVERED -->
<g id="edge7" class="edge">
<title>SHIPPED&#45;&gt;DELIVERED</title>
<path fill="none" stroke="black" d="M90.12,-243.51C90.12,-231.86 90.12,-216.15 90.12,-202.62"/>
<polygon fill="black" stroke="black" points="93.62,-202.96 90.12,-192.96 86.62,-202.96 93.62,-202.96"/>
<text xml:space="preserve" text-anchor="middle" x="142.25" y="-212.3" font-family="Times New Roman,serif" font-size="14.00">delivery confirmed</text>
</g>
<!-- DELIVERED&#45;&gt;end -->
<g id="edge9" class="edge">
<title>DELIVERED&#45;&gt;end</title>
<path fill="none" stroke="black" d="M87.54,-154.7C85.12,-132.96 83.64,-95.15 97.12,-66.6 104.16,-51.69 117.68,-38.98 129.43,-30"/>
<polygon fill="black" stroke="black" points="131.38,-32.91 137.47,-24.25 127.3,-27.22 131.38,-32.91"/>
</g>
<!-- REFUNDED -->
<g id="node9" class="node">
<title>REFUNDED</title>
<polygon fill="lightgray" stroke="black" points="196.62,-102.6 105.62,-102.6 105.62,-66.6 196.62,-66.6 196.62,-102.6"/>
<text xml:space="preserve" text-anchor="middle" x="151.12" y="-79.17" font-family="Arial" font-size="14.00">REFUNDED</text>
</g>
<!-- DELIVERED&#45;&gt;REFUNDED -->
<g id="edge10" class="edge">
<title>DELIVERED&#45;&gt;REFUNDED</title>
<path fill="none" stroke="black" d="M102.18,-155.01C110.81,-142.77 122.6,-126.05 132.45,-112.09"/>
<polygon fill="black" stroke="black" points="135.11,-114.38 138.02,-104.19 129.39,-110.34 135.11,-114.38"/>
<text xml:space="preserve" text-anchor="middle" x="163.59" y="-123.8" font-family="Times New Roman,serif" font-size="14.00">return request</text>
</g>
<!-- CANCELLED&#45;&gt;end -->
<g id="edge11" class="edge">
<title>CANCELLED&#45;&gt;end</title>
<path fill="none" stroke="black" d="M225.12,-331.87C225.12,-314.41 225.12,-286.63 225.12,-262.6 225.12,-262.6 225.12,-262.6 225.12,-83.6 225.12,-56.02 196.84,-36.63 175.25,-25.84"/>
<polygon fill="black" stroke="black" points="176.96,-22.78 166.42,-21.75 174.02,-29.13 176.96,-22.78"/>
</g>
<!-- REFUNDED&#45;&gt;end -->
<g id="edge12" class="edge">
<title>REFUNDED&#45;&gt;end</title>
<path fill="none" stroke="black" d="M151.12,-66.14C151.12,-58.55 151.12,-49.5 151.12,-41.19"/>
<polygon fill="black" stroke="black" points="154.62,-41.3 151.12,-31.3 147.62,-41.3 154.62,-41.3"/>
</g>
</g>
</svg>
