<?xml version="1.0" encoding="UTF-8" standalone="no"?>
<!DOCTYPE svg PUBLIC "-//W3C//DTD SVG 1.1//EN"
 "http://www.w3.org/Graphics/SVG/1.1/DTD/svg11.dtd">
<!-- Generated by graphviz version 14.1.1 (20251213.1925)
 -->
<!-- Title: LoginFlow Pages: 1 -->
<svg width="433pt" height="1159pt"
 viewBox="0.00 0.00 433.00 1159.00" xmlns="http://www.w3.org/2000/svg" xmlns:xlink="http://www.w3.org/1999/xlink">
<g id="graph0" class="graph" transform="scale(1 1) rotate(0) translate(4 1154.5)">
<title>LoginFlow</title>
<polygon fill="white" stroke="none" points="-4,4 -4,-1154.5 428.85,-1154.5 428.85,4 -4,4"/>
<!-- start -->
<g id="node1" class="node">
<title>start</title>
<ellipse fill="lightgreen" stroke="black" cx="337.5" cy="-1132.5" rx="29.61" ry="18"/>
<text xml:space="preserve" text-anchor="middle" x="337.5" y="-1127.08" font-family="Arial" font-size="14.00">Start</text>
</g>
<!-- input -->
<g id="node3" class="node">
<title>input</title>
<polygon fill="none" stroke="black" points="424.85,-1077.5 285.9,-1077.5 250.15,-998.5 389.1,-998.5 424.85,-1077.5"/>
<text xml:space="preserve" text-anchor="middle" x="337.5" y="-1040.45" font-family="Arial" font-size="14.00">Enter</text>
<text xml:space="preserve" text-anchor="middle" x="337.5" y="-1024.7" font-family="Arial" font-size="14.00">Credentials</text>
</g>
<!-- start&#45;&gt;input -->
<g id="edge1" class="edge">
<title>start&#45;&gt;input</title>
<path fill="none" stroke="black" d="M337.5,-1114.1C337.5,-1106.89 337.5,-1098.12 337.5,-1089.15"/>
<polygon fill="black" stroke="black" points="341,-1089.3 337.5,-1079.3 334,-1089.3 341,-1089.3"/>
</g>
<!-- finish -->
<g id="node2" class="node">
<title>finish</title>
<ellipse fill="lightpink" stroke="black" cx="104.5" cy="-18" rx="27" ry="18"/>
<text xml:space="preserve" text-anchor="middle" x="104.5" y="-12.57" font-family="Arial" font-size="14.00">End</text>
</g>
<!-- validate -->
<g id="node4" class="node">
<title>validate</title>
<polygon fill="none" stroke="black" points="290.5,-961.5 223.5,-922 290.5,-882.5 357.5,-922 290.5,-961.5"/>
<text xml:space="preserve" text-anchor="middle" x="290.5" y="-924.45" font-family="Arial" font-size="14.00">Valid</text>
<text xml:space="preserve" text-anchor="middle" x="290.5" y="-908.7" font-family="Arial" font-size="14.00">Format?</text>
</g>
<!-- input&#45;&gt;validate -->
<g id="edge2" class="edge">
<title>input&#45;&gt;validate</title>
<path fill="none" stroke="black" d="M321.46,-998.09C317.03,-987.35 312.21,-975.65 307.72,-964.76"/>
<polygon fill="black" stroke="black" points="310.99,-963.51 303.94,-955.6 304.51,-966.18 310.99,-963.51"/>
</g>
<!-- check_db -->
<g id="node5" class="node">
<title>check_db</title>
<polygon fill="none" stroke="black" points="313.38,-830 239.62,-830 239.62,-790.5 313.38,-790.5 313.38,-830"/>
<text xml:space="preserve" text-anchor="middle" x="276.5" y="-812.7" font-family="Arial" font-size="14.00">Query</text>
<text xml:space="preserve" text-anchor="middle" x="276.5" y="-796.95" font-family="Arial" font-size="14.00">Database</text>
</g>
<!-- validate&#45;&gt;check_db -->
<g id="edge3" class="edge">
<title>validate&#45;&gt;check_db</title>
<path fill="none" stroke="black" d="M285.88,-884.76C284.08,-870.66 282.04,-854.69 280.33,-841.26"/>
<polygon fill="black" stroke="black" points="283.85,-841.18 279.11,-831.71 276.9,-842.07 283.85,-841.18"/>
<text xml:space="preserve" text-anchor="middle" x="293.21" y="-851.2" font-family="Times New Roman,serif" font-size="14.00">Yes</text>
</g>
<!-- show_error -->
<g id="node12" class="node">
<title>show_error</title>
<polygon fill="none" stroke="black" points="351.25,-112.5 267.75,-112.5 267.75,-73 351.25,-73 351.25,-112.5"/>
<text xml:space="preserve" text-anchor="middle" x="309.5" y="-95.2" font-family="Arial" font-size="14.00">Show Error</text>
<text xml:space="preserve" text-anchor="middle" x="309.5" y="-79.45" font-family="Arial" font-size="14.00">Message</text>
</g>
<!-- validate&#45;&gt;show_error -->
<g id="edge4" class="edge">
<title>validate&#45;&gt;show_error</title>
<path fill="none" stroke="black" d="M312.7,-895.42C328.71,-874.31 347.5,-842.81 347.5,-811.25 347.5,-811.25 347.5,-811.25 347.5,-203.5 347.5,-175.04 335.95,-144.6 325.58,-123.01"/>
<polygon fill="black" stroke="black" points="328.79,-121.6 321.17,-114.23 322.53,-124.74 328.79,-121.6"/>
<text xml:space="preserve" text-anchor="middle" x="355.75" y="-511.7" font-family="Times New Roman,serif" font-size="14.00">No</text>
</g>
<!-- user_exists -->
<g id="node6" class="node">
<title>user_exists</title>
<polygon fill="none" stroke="black" points="259.5,-753.5 200,-714 259.5,-674.5 319,-714 259.5,-753.5"/>
<text xml:space="preserve" text-anchor="middle" x="259.5" y="-716.45" font-family="Arial" font-size="14.00">User</text>
<text xml:space="preserve" text-anchor="middle" x="259.5" y="-700.7" font-family="Arial" font-size="14.00">Exists?</text>
</g>
<!-- check_db&#45;&gt;user_exists -->
<g id="edge5" class="edge">
<title>check_db&#45;&gt;user_exists</title>
<path fill="none" stroke="black" d="M273.06,-790.18C271.52,-781.64 269.63,-771.18 267.76,-760.81"/>
<polygon fill="black" stroke="black" points="271.24,-760.39 266.02,-751.17 264.35,-761.63 271.24,-760.39"/>
</g>
<!-- check_pwd -->
<g id="node7" class="node">
<title>check_pwd</title>
<polygon fill="none" stroke="black" points="200.5,-622 125.25,-582.5 200.5,-543 275.75,-582.5 200.5,-622"/>
<text xml:space="preserve" text-anchor="middle" x="200.5" y="-584.95" font-family="Arial" font-size="14.00">Password</text>
<text xml:space="preserve" text-anchor="middle" x="200.5" y="-569.2" font-family="Arial" font-size="14.00">Correct?</text>
</g>
<!-- user_exists&#45;&gt;check_pwd -->
<g id="edge6" class="edge">
<title>user_exists&#45;&gt;check_pwd</title>
<path fill="none" stroke="black" d="M245.96,-683.29C238.14,-666.11 228.16,-644.21 219.55,-625.31"/>
<polygon fill="black" stroke="black" points="222.75,-623.9 215.42,-616.26 216.38,-626.81 222.75,-623.9"/>
<text xml:space="preserve" text-anchor="middle" x="243.66" y="-643.2" font-family="Times New Roman,serif" font-size="14.00">Yes</text>
</g>
<!-- user_exists&#45;&gt;show_error -->
<g id="edge7" class="edge">
<title>user_exists&#45;&gt;show_error</title>
<path fill="none" stroke="black" d="M276.71,-685.88C291.17,-660.45 309.5,-620.86 309.5,-583.5 309.5,-583.5 309.5,-583.5 309.5,-203.5 309.5,-176.65 309.5,-146.11 309.5,-124.07"/>
<polygon fill="black" stroke="black" points="313,-124.3 309.5,-114.3 306,-124.3 313,-124.3"/>
<text xml:space="preserve" text-anchor="middle" x="317.75" y="-368.7" font-family="Times New Roman,serif" font-size="14.00">No</text>
</g>
<!-- check_2fa -->
<g id="node8" class="node">
<title>check_2fa</title>
<polygon fill="none" stroke="black" points="200.5,-490.5 127.5,-451 200.5,-411.5 273.5,-451 200.5,-490.5"/>
<text xml:space="preserve" text-anchor="middle" x="200.5" y="-453.45" font-family="Arial" font-size="14.00">2FA</text>
<text xml:space="preserve" text-anchor="middle" x="200.5" y="-437.7" font-family="Arial" font-size="14.00">Enabled?</text>
</g>
<!-- check_pwd&#45;&gt;check_2fa -->
<g id="edge8" class="edge">
<title>check_pwd&#45;&gt;check_2fa</title>
<path fill="none" stroke="black" d="M200.5,-542.65C200.5,-529.97 200.5,-515.71 200.5,-502.31"/>
<polygon fill="black" stroke="black" points="204,-502.34 200.5,-492.34 197,-502.34 204,-502.34"/>
<text xml:space="preserve" text-anchor="middle" x="210.62" y="-511.7" font-family="Times New Roman,serif" font-size="14.00">Yes</text>
</g>
<!-- increment_fail -->
<g id="node13" class="node">
<title>increment_fail</title>
<polygon fill="none" stroke="black" points="124.25,-393.5 46.75,-393.5 46.75,-354 124.25,-354 124.25,-393.5"/>
<text xml:space="preserve" text-anchor="middle" x="85.5" y="-376.2" font-family="Arial" font-size="14.00">Increment</text>
<text xml:space="preserve" text-anchor="middle" x="85.5" y="-360.45" font-family="Arial" font-size="14.00">Fail Count</text>
</g>
<!-- check_pwd&#45;&gt;increment_fail -->
<g id="edge9" class="edge">
<title>check_pwd&#45;&gt;increment_fail</title>
<path fill="none" stroke="black" d="M172.96,-557.31C155.1,-540.26 132.61,-515.99 118.5,-490.5 103.54,-463.48 94.85,-429.07 90.18,-404.82"/>
<polygon fill="black" stroke="black" points="93.69,-404.51 88.47,-395.29 86.8,-405.75 93.69,-404.51"/>
<text xml:space="preserve" text-anchor="middle" x="149.92" y="-511.7" font-family="Times New Roman,serif" font-size="14.00">No</text>
</g>
<!-- send_2fa -->
<g id="node9" class="node">
<title>send_2fa</title>
<polygon fill="none" stroke="black" points="255.12,-336 179.88,-336 179.88,-296.5 255.12,-296.5 255.12,-336"/>
<text xml:space="preserve" text-anchor="middle" x="217.5" y="-318.7" font-family="Arial" font-size="14.00">Send 2FA</text>
<text xml:space="preserve" text-anchor="middle" x="217.5" y="-302.95" font-family="Arial" font-size="14.00">Code</text>
</g>
<!-- check_2fa&#45;&gt;send_2fa -->
<g id="edge14" class="edge">
<title>check_2fa&#45;&gt;send_2fa</title>
<path fill="none" stroke="black" d="M205.15,-413.73C207.8,-393 211.09,-367.31 213.61,-347.65"/>
<polygon fill="black" stroke="black" points="217.07,-348.15 214.87,-337.79 210.13,-347.26 217.07,-348.15"/>
<text xml:space="preserve" text-anchor="middle" x="222.6" y="-368.7" font-family="Times New Roman,serif" font-size="14.00">Yes</text>
</g>
<!-- create_session -->
<g id="node11" class="node">
<title>create_session</title>
<polygon fill="none" stroke="black" points="179.5,-112.5 115.5,-112.5 115.5,-73 179.5,-73 179.5,-112.5"/>
<text xml:space="preserve" text-anchor="middle" x="147.5" y="-95.2" font-family="Arial" font-size="14.00">Create</text>
<text xml:space="preserve" text-anchor="middle" x="147.5" y="-79.45" font-family="Arial" font-size="14.00">Session</text>
</g>
<!-- check_2fa&#45;&gt;create_session -->
<g id="edge15" class="edge">
<title>check_2fa&#45;&gt;create_session</title>
<path fill="none" stroke="black" d="M190.26,-416.9C183.66,-394.31 175.41,-363.6 170.5,-336 157.06,-260.4 151.11,-170.04 148.79,-123.98"/>
<polygon fill="black" stroke="black" points="152.3,-124.07 148.32,-114.25 145.31,-124.41 152.3,-124.07"/>
<text xml:space="preserve" text-anchor="middle" x="170.04" y="-265.2" font-family="Times New Roman,serif" font-size="14.00">No</text>
</g>
<!-- verify_2fa -->
<g id="node10" class="node">
<title>verify_2fa</title>
<polygon fill="none" stroke="black" points="228.5,-244 175.75,-204.5 228.5,-165 281.25,-204.5 228.5,-244"/>
<text xml:space="preserve" text-anchor="middle" x="228.5" y="-206.95" font-family="Arial" font-size="14.00">2FA</text>
<text xml:space="preserve" text-anchor="middle" x="228.5" y="-191.2" font-family="Arial" font-size="14.00">Valid?</text>
</g>
<!-- send_2fa&#45;&gt;verify_2fa -->
<g id="edge16" class="edge">
<title>send_2fa&#45;&gt;verify_2fa</title>
<path fill="none" stroke="black" d="M219.42,-296.13C220.61,-284.19 222.21,-268.25 223.73,-253.07"/>
<polygon fill="black" stroke="black" points="227.21,-253.49 224.72,-243.19 220.24,-252.79 227.21,-253.49"/>
</g>
<!-- verify_2fa&#45;&gt;create_session -->
<g id="edge17" class="edge">
<title>verify_2fa&#45;&gt;create_session</title>
<path fill="none" stroke="black" d="M209.92,-178.32C197.54,-161.55 181.26,-139.5 168.43,-122.11"/>
<polygon fill="black" stroke="black" points="171.36,-120.18 162.6,-114.21 165.72,-124.34 171.36,-120.18"/>
<text xml:space="preserve" text-anchor="middle" x="195.7" y="-133.7" font-family="Times New Roman,serif" font-size="14.00">Yes</text>
</g>
<!-- verify_2fa&#45;&gt;show_error -->
<g id="edge18" class="edge">
<title>verify_2fa&#45;&gt;show_error</title>
<path fill="none" stroke="black" d="M245.72,-177.43C255.24,-163.33 267.45,-145.72 279,-130.5 281.2,-127.59 283.55,-124.6 285.93,-121.64"/>
<polygon fill="black" stroke="black" points="288.45,-124.08 292.07,-114.12 283.04,-119.65 288.45,-124.08"/>
<text xml:space="preserve" text-anchor="middle" x="287.25" y="-133.7" font-family="Times New Roman,serif" font-size="14.00">No</text>
</g>
<!-- create_session&#45;&gt;finish -->
<g id="edge19" class="edge">
<title>create_session&#45;&gt;finish</title>
<path fill="none" stroke="black" d="M136.2,-72.64C131.21,-64.19 125.27,-54.14 119.88,-45.03"/>
<polygon fill="black" stroke="black" points="122.99,-43.41 114.89,-36.58 116.97,-46.97 122.99,-43.41"/>
</g>
<!-- show_error&#45;&gt;input -->
<g id="edge20" class="edge">
<title>show_error&#45;&gt;input</title>
<path fill="none" stroke="black" d="M333.55,-112.83C355.81,-132.82 385.5,-166.42 385.5,-203.5 385.5,-923 385.5,-923 385.5,-923 385.5,-945.39 377.54,-968.45 368.1,-987.92"/>
<polygon fill="black" stroke="black" points="365.05,-986.21 363.6,-996.7 371.27,-989.4 365.05,-986.21"/>
</g>
<!-- check_lockout -->
<g id="node14" class="node">
<title>check_lockout</title>
<polygon fill="none" stroke="black" points="59.5,-244 0,-204.5 59.5,-165 119,-204.5 59.5,-244"/>
<text xml:space="preserve" text-anchor="middle" x="59.5" y="-206.95" font-family="Arial" font-size="14.00">Locked</text>
<text xml:space="preserve" text-anchor="middle" x="59.5" y="-191.2" font-family="Arial" font-size="14.00">Out?</text>
</g>
<!-- increment_fail&#45;&gt;check_lockout -->
<g id="edge10" class="edge">
<title>increment_fail&#45;&gt;check_lockout</title>
<path fill="none" stroke="black" d="M82.52,-353.56C78.68,-328.9 71.9,-285.25 66.68,-251.71"/>
<polygon fill="black" stroke="black" points="70.21,-251.6 65.21,-242.26 63.29,-252.68 70.21,-251.6"/>
</g>
<!-- check_lockout&#45;&gt;show_error -->
<g id="edge12" class="edge">
<title>check_lockout&#45;&gt;show_error</title>
<path fill="none" stroke="black" d="M83.43,-180.89C101.91,-164.61 128.84,-143.33 156,-130.5 187.64,-115.56 225.9,-106.38 256.31,-100.93"/>
<polygon fill="black" stroke="black" points="256.79,-104.4 266.06,-99.27 255.62,-97.5 256.79,-104.4"/>
<text xml:space="preserve" text-anchor="middle" x="164.25" y="-133.7" font-family="Times New Roman,serif" font-size="14.00">No</text>
</g>
<!-- lockout -->
<g id="node15" class="node">
<title>lockout</title>
<polygon fill="none" stroke="black" points="96.88,-112.5 32.12,-112.5 32.12,-73 96.88,-73 96.88,-112.5"/>
<text xml:space="preserve" text-anchor="middle" x="64.5" y="-95.2" font-family="Arial" font-size="14.00">Lock</text>
<text xml:space="preserve" text-anchor="middle" x="64.5" y="-79.45" font-family="Arial" font-size="14.00">Account</text>
</g>
<!-- check_lockout&#45;&gt;lockout -->
<g id="edge11" class="edge">
<title>check_lockout&#45;&gt;lockout</title>
<path fill="none" stroke="black" d="M61.22,-165.73C61.84,-152.06 62.54,-136.81 63.13,-123.88"/>
<polygon fill="black" stroke="black" points="66.61,-124.43 63.56,-114.28 59.61,-124.12 66.61,-124.43"/>
<text xml:space="preserve" text-anchor="middle" x="72.87" y="-133.7" font-family="Times New Roman,serif" font-size="14.00">Yes</text>
</g>
<!-- lockout&#45;&gt;finish -->
<g id="edge13" class="edge">
<title>lockout&#45;&gt;finish</title>
<path fill="none" stroke="black" d="M75.01,-72.64C79.6,-64.28 85.06,-54.35 90.03,-45.32"/>
<polygon fill="black" stroke="black" points="93.07,-47.05 94.82,-36.6 86.94,-43.68 93.07,-47.05"/>
</g>
</g>
</svg>
