<?xml version="1.0" encoding="UTF-8" standalone="no"?>
<!DOCTYPE svg PUBLIC "-//W3C//DTD SVG 1.1//EN"
 "http://www.w3.org/Graphics/SVG/1.1/DTD/svg11.dtd">
<!-- Generated by graphviz version 14.1.1 (20251213.1925)
 -->
<!-- Title: CICD Pages: 1 -->
<svg width="1429pt" height="180pt"
 viewBox="0.00 0.00 1429.00 180.00" xmlns="http://www.w3.org/2000/svg" xmlns:xlink="http://www.w3.org/1999/xlink">
<g id="graph0" class="graph" transform="scale(1 1) rotate(0) translate(4 176)">
<title>CICD</title>
<polygon fill="white" stroke="none" points="-4,4 -4,-176 1424.5,-176 1424.5,4 -4,4"/>
<g id="clust1" class="cluster">
<title>cluster_ci</title>
<polygon fill="lightcyan" stroke="black" points="8,-64 8,-144 589,-144 589,-64 8,-64"/>
<text xml:space="preserve" text-anchor="middle" x="298.5" y="-126.7" font-family="Times New Roman,serif" font-size="14.00">Continuous Integration</text>
</g>
<g id="clust2" class="cluster">
<title>cluster_cd</title>
<polygon fill="lightgreen" stroke="black" points="610,-44 610,-164 1412.5,-164 1412.5,-44 610,-44"/>
<text xml:space="preserve" text-anchor="middle" x="1011.25" y="-146.7" font-family="Times New Roman,serif" font-size="14.00">Continuous Deployment</text>
</g>
<!-- commit -->
<g id="node1" class="node">
<title>commit</title>
<polygon fill="none" stroke="black" points="80,-111.75 20,-111.75 16,-107.75 16,-72.25 76,-72.25 80,-76.25 80,-111.75"/>
<polyline fill="none" stroke="black" points="76,-107.75 16,-107.75"/>
<polyline fill="none" stroke="black" points="76,-107.75 76,-72.25"/>
<polyline fill="none" stroke="black" points="76,-107.75 80,-111.75"/>
<text xml:space="preserve" text-anchor="middle" x="48" y="-94.45" font-family="Arial" font-size="14.00">Git</text>
<text xml:space="preserve" text-anchor="middle" x="48" y="-78.7" font-family="Arial" font-size="14.00">Commit</text>
</g>
<!-- lint -->
<g id="node2" class="node">
<title>lint</title>
<path fill="none" stroke="black" d="M164.5,-111.75C164.5,-111.75 129,-111.75 129,-111.75 123,-111.75 117,-105.75 117,-99.75 117,-99.75 117,-84.25 117,-84.25 117,-78.25 123,-72.25 129,-72.25 129,-72.25 164.5,-72.25 164.5,-72.25 170.5,-72.25 176.5,-78.25 176.5,-84.25 176.5,-84.25 176.5,-99.75 176.5,-99.75 176.5,-105.75 170.5,-111.75 164.5,-111.75"/>
<text xml:space="preserve" text-anchor="middle" x="146.75" y="-94.45" font-family="Arial" font-size="14.00">Lint &amp;</text>
<text xml:space="preserve" text-anchor="middle" x="146.75" y="-78.7" font-family="Arial" font-size="14.00">Format</text>
</g>
<!-- commit&#45;&gt;lint -->
<g id="edge1" class="edge">
<title>commit&#45;&gt;lint</title>
<path fill="none" stroke="black" d="M80.41,-92C88.36,-92 97.01,-92 105.34,-92"/>
<polygon fill="black" stroke="black" points="105.28,-95.5 115.28,-92 105.28,-88.5 105.28,-95.5"/>
</g>
<!-- unit -->
<g id="node3" class="node">
<title>unit</title>
<path fill="none" stroke="black" d="M255.5,-111.75C255.5,-111.75 225.5,-111.75 225.5,-111.75 219.5,-111.75 213.5,-105.75 213.5,-99.75 213.5,-99.75 213.5,-84.25 213.5,-84.25 213.5,-78.25 219.5,-72.25 225.5,-72.25 225.5,-72.25 255.5,-72.25 255.5,-72.25 261.5,-72.25 267.5,-78.25 267.5,-84.25 267.5,-84.25 267.5,-99.75 267.5,-99.75 267.5,-105.75 261.5,-111.75 255.5,-111.75"/>
<text xml:space="preserve" text-anchor="middle" x="240.5" y="-94.45" font-family="Arial" font-size="14.00">Unit</text>
<text xml:space="preserve" text-anchor="middle" x="240.5" y="-78.7" font-family="Arial" font-size="14.00">Tests</text>
</g>
<!-- lint&#45;&gt;unit -->
<g id="edge2" class="edge">
<title>lint&#45;&gt;unit</title>
<path fill="none" stroke="black" d="M176.78,-92C184.7,-92 193.4,-92 201.73,-92"/>
<polygon fill="black" stroke="black" points="201.63,-95.5 211.63,-92 201.63,-88.5 201.63,-95.5"/>
</g>
<!-- integration -->
<g id="node4" class="node">
<title>integration</title>
<path fill="none" stroke="black" d="M372.25,-111.75C372.25,-111.75 316.5,-111.75 316.5,-111.75 310.5,-111.75 304.5,-105.75 304.5,-99.75 304.5,-99.75 304.5,-84.25 304.5,-84.25 304.5,-78.25 310.5,-72.25 316.5,-72.25 316.5,-72.25 372.25,-72.25 372.25,-72.25 378.25,-72.25 384.25,-78.25 384.25,-84.25 384.25,-84.25 384.25,-99.75 384.25,-99.75 384.25,-105.75 378.25,-111.75 372.25,-111.75"/>
<text xml:space="preserve" text-anchor="middle" x="344.38" y="-94.45" font-family="Arial" font-size="14.00">Integration</text>
<text xml:space="preserve" text-anchor="middle" x="344.38" y="-78.7" font-family="Arial" font-size="14.00">Tests</text>
</g>
<!-- unit&#45;&gt;integration -->
<g id="edge3" class="edge">
<title>unit&#45;&gt;integration</title>
<path fill="none" stroke="black" d="M267.74,-92C275.44,-92 284.14,-92 292.83,-92"/>
<polygon fill="black" stroke="black" points="292.64,-95.5 302.64,-92 292.64,-88.5 292.64,-95.5"/>
</g>
<!-- build -->
<g id="node5" class="node">
<title>build</title>
<path fill="none" stroke="black" d="M467.25,-111.75C467.25,-111.75 433.25,-111.75 433.25,-111.75 427.25,-111.75 421.25,-105.75 421.25,-99.75 421.25,-99.75 421.25,-84.25 421.25,-84.25 421.25,-78.25 427.25,-72.25 433.25,-72.25 433.25,-72.25 467.25,-72.25 467.25,-72.25 473.25,-72.25 479.25,-78.25 479.25,-84.25 479.25,-84.25 479.25,-99.75 479.25,-99.75 479.25,-105.75 473.25,-111.75 467.25,-111.75"/>
<text xml:space="preserve" text-anchor="middle" x="450.25" y="-94.45" font-family="Arial" font-size="14.00">Build</text>
<text xml:space="preserve" text-anchor="middle" x="450.25" y="-78.7" font-family="Arial" font-size="14.00">Artifact</text>
</g>
<!-- integration&#45;&gt;build -->
<g id="edge4" class="edge">
<title>integration&#45;&gt;build</title>
<path fill="none" stroke="black" d="M384.65,-92C392.75,-92 401.3,-92 409.42,-92"/>
<polygon fill="black" stroke="black" points="409.41,-95.5 419.41,-92 409.41,-88.5 409.41,-95.5"/>
</g>
<!-- scan -->
<g id="node6" class="node">
<title>scan</title>
<path fill="none" stroke="black" d="M569,-111.75C569,-111.75 528.25,-111.75 528.25,-111.75 522.25,-111.75 516.25,-105.75 516.25,-99.75 516.25,-99.75 516.25,-84.25 516.25,-84.25 516.25,-78.25 522.25,-72.25 528.25,-72.25 528.25,-72.25 569,-72.25 569,-72.25 575,-72.25 581,-78.25 581,-84.25 581,-84.25 581,-99.75 581,-99.75 581,-105.75 575,-111.75 569,-111.75"/>
<text xml:space="preserve" text-anchor="middle" x="548.62" y="-94.45" font-family="Arial" font-size="14.00">Security</text>
<text xml:space="preserve" text-anchor="middle" x="548.62" y="-78.7" font-family="Arial" font-size="14.00">Scan</text>
</g>
<!-- build&#45;&gt;scan -->
<g id="edge5" class="edge">
<title>build&#45;&gt;scan</title>
<path fill="none" stroke="black" d="M479.64,-92C487.51,-92 496.22,-92 504.72,-92"/>
<polygon fill="black" stroke="black" points="504.55,-95.5 514.55,-92 504.55,-88.5 504.55,-95.5"/>
</g>
<!-- stage_deploy -->
<g id="node7" class="node">
<title>stage_deploy</title>
<path fill="none" stroke="black" d="M679,-111.75C679,-111.75 630,-111.75 630,-111.75 624,-111.75 618,-105.75 618,-99.75 618,-99.75 618,-84.25 618,-84.25 618,-78.25 624,-72.25 630,-72.25 630,-72.25 679,-72.25 679,-72.25 685,-72.25 691,-78.25 691,-84.25 691,-84.25 691,-99.75 691,-99.75 691,-105.75 685,-111.75 679,-111.75"/>
<text xml:space="preserve" text-anchor="middle" x="654.5" y="-94.45" font-family="Arial" font-size="14.00">Deploy to</text>
<text xml:space="preserve" text-anchor="middle" x="654.5" y="-78.7" font-family="Arial" font-size="14.00">Staging</text>
</g>
<!-- scan&#45;&gt;stage_deploy -->
<g id="edge6" class="edge">
<title>scan&#45;&gt;stage_deploy</title>
<path fill="none" stroke="black" d="M581.36,-92C589.23,-92 597.84,-92 606.28,-92"/>
<polygon fill="black" stroke="black" points="606.09,-95.5 616.09,-92 606.09,-88.5 606.09,-95.5"/>
</g>
<!-- stage_test -->
<g id="node8" class="node">
<title>stage_test</title>
<path fill="none" stroke="black" d="M770,-111.75C770,-111.75 740,-111.75 740,-111.75 734,-111.75 728,-105.75 728,-99.75 728,-99.75 728,-84.25 728,-84.25 728,-78.25 734,-72.25 740,-72.25 740,-72.25 770,-72.25 770,-72.25 776,-72.25 782,-78.25 782,-84.25 782,-84.25 782,-99.75 782,-99.75 782,-105.75 776,-111.75 770,-111.75"/>
<text xml:space="preserve" text-anchor="middle" x="755" y="-94.45" font-family="Arial" font-size="14.00">E2E</text>
<text xml:space="preserve" text-anchor="middle" x="755" y="-78.7" font-family="Arial" font-size="14.00">Tests</text>
</g>
<!-- stage_deploy&#45;&gt;stage_test -->
<g id="edge7" class="edge">
<title>stage_deploy&#45;&gt;stage_test</title>
<path fill="none" stroke="black" d="M691.34,-92C699.4,-92 707.97,-92 716.11,-92"/>
<polygon fill="black" stroke="black" points="716.09,-95.5 726.09,-92 716.09,-88.5 716.09,-95.5"/>
</g>
<!-- approval -->
<g id="node9" class="node">
<title>approval</title>
<path fill="none" stroke="black" d="M877.83,-125.55C877.83,-125.55 829.42,-97.95 829.42,-97.95 824.21,-94.97 824.21,-89.03 829.42,-86.05 829.42,-86.05 877.83,-58.45 877.83,-58.45 883.04,-55.47 893.46,-55.47 898.67,-58.45 898.67,-58.45 947.08,-86.05 947.08,-86.05 952.29,-89.03 952.29,-94.97 947.08,-97.95 947.08,-97.95 898.67,-125.55 898.67,-125.55 893.46,-128.53 883.04,-128.53 877.83,-125.55"/>
<text xml:space="preserve" text-anchor="middle" x="888.25" y="-94.45" font-family="Arial" font-size="14.00">Manual</text>
<text xml:space="preserve" text-anchor="middle" x="888.25" y="-78.7" font-family="Arial" font-size="14.00">Approval</text>
</g>
<!-- stage_test&#45;&gt;approval -->
<g id="edge8" class="edge">
<title>stage_test&#45;&gt;approval</title>
<path fill="none" stroke="black" d="M782.24,-92C789.61,-92 798.02,-92 806.81,-92"/>
<polygon fill="black" stroke="black" points="806.58,-95.5 816.58,-92 806.58,-88.5 806.58,-95.5"/>
</g>
<!-- prod_deploy -->
<g id="node10" class="node">
<title>prod_deploy</title>
<path fill="none" stroke="black" d="M1116,-110.75C1116,-110.75 1059.5,-110.75 1059.5,-110.75 1053.5,-110.75 1047.5,-104.75 1047.5,-98.75 1047.5,-98.75 1047.5,-83.25 1047.5,-83.25 1047.5,-77.25 1053.5,-71.25 1059.5,-71.25 1059.5,-71.25 1116,-71.25 1116,-71.25 1122,-71.25 1128,-77.25 1128,-83.25 1128,-83.25 1128,-98.75 1128,-98.75 1128,-104.75 1122,-110.75 1116,-110.75"/>
<text xml:space="preserve" text-anchor="middle" x="1087.75" y="-93.45" font-family="Arial" font-size="14.00">Deploy to</text>
<text xml:space="preserve" text-anchor="middle" x="1087.75" y="-77.7" font-family="Arial" font-size="14.00">Production</text>
</g>
<!-- approval&#45;&gt;prod_deploy -->
<g id="edge9" class="edge">
<title>approval&#45;&gt;prod_deploy</title>
<path fill="none" stroke="black" d="M957.77,-91.65C983.43,-91.52 1012.1,-91.38 1035.89,-91.26"/>
<polygon fill="black" stroke="black" points="1035.64,-94.76 1045.62,-91.21 1035.6,-87.76 1035.64,-94.76"/>
<text xml:space="preserve" text-anchor="middle" x="1002.5" y="-94.76" font-family="Times New Roman,serif" font-size="14.00">Approved</text>
</g>
<!-- rollback -->
<g id="node13" class="node">
<title>rollback</title>
<polygon fill="lightpink" stroke="black" points="1401.12,-36 1333.38,-36 1333.38,0 1401.12,0 1401.12,-36"/>
<text xml:space="preserve" text-anchor="middle" x="1367.25" y="-12.57" font-family="Arial" font-size="14.00">Rollback</text>
</g>
<!-- approval&#45;&gt;rollback -->
<g id="edge10" class="edge">
<title>approval&#45;&gt;rollback</title>
<path fill="none" stroke="black" d="M940.09,-81.69C971.07,-75.58 1011.49,-67.9 1047.5,-62 1145.13,-46.02 1260.21,-31.09 1321.89,-23.41"/>
<polygon fill="black" stroke="black" points="1322.13,-26.91 1331.63,-22.2 1321.27,-19.96 1322.13,-26.91"/>
<text xml:space="preserve" text-anchor="middle" x="1169.62" y="-49.79" font-family="Times New Roman,serif" font-size="14.00">Rejected</text>
</g>
<!-- smoke -->
<g id="node11" class="node">
<title>smoke</title>
<path fill="none" stroke="black" d="M1258,-110.75C1258,-110.75 1223.25,-110.75 1223.25,-110.75 1217.25,-110.75 1211.25,-104.75 1211.25,-98.75 1211.25,-98.75 1211.25,-83.25 1211.25,-83.25 1211.25,-77.25 1217.25,-71.25 1223.25,-71.25 1223.25,-71.25 1258,-71.25 1258,-71.25 1264,-71.25 1270,-77.25 1270,-83.25 1270,-83.25 1270,-98.75 1270,-98.75 1270,-104.75 1264,-110.75 1258,-110.75"/>
<text xml:space="preserve" text-anchor="middle" x="1240.62" y="-93.45" font-family="Arial" font-size="14.00">Smoke</text>
<text xml:space="preserve" text-anchor="middle" x="1240.62" y="-77.7" font-family="Arial" font-size="14.00">Tests</text>
</g>
<!-- prod_deploy&#45;&gt;smoke -->
<g id="edge11" class="edge">
<title>prod_deploy&#45;&gt;smoke</title>
<path fill="none" stroke="black" d="M1128.39,-91C1150.44,-91 1177.81,-91 1199.88,-91"/>
<polygon fill="black" stroke="black" points="1199.69,-94.5 1209.69,-91 1199.69,-87.5 1199.69,-94.5"/>
</g>
<!-- monitor -->
<g id="node12" class="node">
<title>monitor</title>
<path fill="none" stroke="black" d="M1392.5,-110.75C1392.5,-110.75 1342,-110.75 1342,-110.75 1336,-110.75 1330,-104.75 1330,-98.75 1330,-98.75 1330,-83.25 1330,-83.25 1330,-77.25 1336,-71.25 1342,-71.25 1342,-71.25 1392.5,-71.25 1392.5,-71.25 1398.5,-71.25 1404.5,-77.25 1404.5,-83.25 1404.5,-83.25 1404.5,-98.75 1404.5,-98.75 1404.5,-104.75 1398.5,-110.75 1392.5,-110.75"/>
<text xml:space="preserve" text-anchor="middle" x="1367.25" y="-93.45" font-family="Arial" font-size="14.00">Monitor &amp;</text>
<text xml:space="preserve" text-anchor="middle" x="1367.25" y="-77.7" font-family="Arial" font-size="14.00">Alert</text>
</g>
<!-- smoke&#45;&gt;monitor -->
<g id="edge12" class="edge">
<title>smoke&#45;&gt;monitor</title>
<path fill="none" stroke="black" d="M1270.22,-91C1284.44,-91 1302.02,-91 1318.24,-91"/>
<polygon fill="black" stroke="black" points="1318.22,-94.5 1328.22,-91 1318.22,-87.5 1318.22,-94.5"/>
<text xml:space="preserve" text-anchor="middle" x="1300" y="-94.2" font-family="Times New Roman,serif" font-size="14.00">Pass</text>
</g>
<!-- smoke&#45;&gt;rollback -->
<g id="edge13" class="edge">
<title>smoke&#45;&gt;rollback</title>
<path fill="none" stroke="black" d="M1270.22,-74.25C1286.39,-64.78 1306.9,-52.76 1324.81,-42.27"/>
<polygon fill="black" stroke="black" points="1326.56,-45.3 1333.42,-37.23 1323.03,-39.26 1326.56,-45.3"/>
<text xml:space="preserve" text-anchor="middle" x="1300" y="-66.39" font-family="Times New Roman,serif" font-size="14.00">Fail</text>
</g>
</g>
</svg>
