<?xml version="1.0" encoding="UTF-8" standalone="no"?>
<!DOCTYPE svg PUBLIC "-//W3C//DTD SVG 1.1//EN"
 "http://www.w3.org/Graphics/SVG/1.1/DTD/svg11.dtd">
<!-- Generated by graphviz version 14.1.1 (20251213.1925)
 -->
<!-- Title: NetworkTopology Pages: 1 -->
<svg width="671pt" height="681pt"
 viewBox="0.00 0.00 671.00 681.00" xmlns="http://www.w3.org/2000/svg" xmlns:xlink="http://www.w3.org/1999/xlink">
<g id="graph0" class="graph" transform="scale(1 1) rotate(0) translate(4 676.58)">
<title>NetworkTopology</title>
<polygon fill="white" stroke="none" points="-4,4 -4,-676.58 666.91,-676.58 666.91,4 -4,4"/>
<!-- internet -->
<g id="node1" class="node">
<title>internet</title>
<polygon fill="lightblue" stroke="black" points="54,-503.13 0,-503.13 0,-467.13 54,-467.13 54,-503.13"/>
<text xml:space="preserve" text-anchor="middle" x="27" y="-487.63" font-family="Arial" font-size="10.00">Internet</text>
<text xml:space="preserve" text-anchor="middle" x="27" y="-475.63" font-family="Arial" font-size="10.00">Cloud</text>
</g>
<!-- firewall -->
<g id="node2" class="node">
<title>firewall</title>
<polygon fill="red" stroke="black" points="198.84,-432.98 144.84,-432.98 144.84,-396.98 198.84,-396.98 198.84,-432.98"/>
<text xml:space="preserve" text-anchor="middle" x="171.84" y="-411.48" font-family="Arial" font-size="10.00" fill="white">Firewall</text>
</g>
<!-- internet&#45;&#45;firewall -->
<g id="edge1" class="edge">
<title>internet&#45;&#45;firewall</title>
<path fill="none" stroke="black" d="M54.24,-471.93C80.14,-459.39 118.86,-440.63 144.72,-428.11"/>
</g>
<!-- router -->
<g id="node3" class="node">
<title>router</title>
<polygon fill="lightyellow" stroke="black" points="348.91,-362.32 298.91,-362.32 294.91,-358.32 294.91,-326.32 344.91,-326.32 348.91,-330.32 348.91,-362.32"/>
<polyline fill="none" stroke="black" points="344.91,-358.32 294.91,-358.32"/>
<polyline fill="none" stroke="black" points="344.91,-358.32 344.91,-326.32"/>
<polyline fill="none" stroke="black" points="344.91,-358.32 348.91,-362.32"/>
<text xml:space="preserve" text-anchor="middle" x="321.91" y="-346.82" font-family="Arial" font-size="10.00">Core</text>
<text xml:space="preserve" text-anchor="middle" x="321.91" y="-334.82" font-family="Arial" font-size="10.00">Router</text>
</g>
<!-- firewall&#45;&#45;router -->
<g id="edge2" class="edge">
<title>firewall&#45;&#45;router</title>
<path fill="none" stroke="black" d="M199.02,-402.18C226.05,-389.45 267.3,-370.03 294.43,-357.26"/>
</g>
<!-- sw1 -->
<g id="node4" class="node">
<title>sw1</title>
<polygon fill="lightgreen" stroke="black" points="520.88,-343.39 466.63,-343.39 466.63,-307.39 520.88,-307.39 520.88,-343.39"/>
<text xml:space="preserve" text-anchor="middle" x="493.76" y="-327.89" font-family="Arial" font-size="10.00">Switch 1</text>
<text xml:space="preserve" text-anchor="middle" x="493.76" y="-315.89" font-family="Arial" font-size="10.00">(Floor 1)</text>
</g>
<!-- router&#45;&#45;sw1 -->
<g id="edge3" class="edge">
<title>router&#45;&#45;sw1</title>
<path fill="none" stroke="black" d="M349.14,-341.32C381.23,-337.79 434.22,-331.95 466.37,-328.41"/>
</g>
<!-- sw2 -->
<g id="node5" class="node">
<title>sw2</title>
<polygon fill="lightgreen" stroke="black" points="372.76,-529.94 318.51,-529.94 318.51,-493.94 372.76,-493.94 372.76,-529.94"/>
<text xml:space="preserve" text-anchor="middle" x="345.63" y="-514.44" font-family="Arial" font-size="10.00">Switch 2</text>
<text xml:space="preserve" text-anchor="middle" x="345.63" y="-502.44" font-family="Arial" font-size="10.00">(Floor 2)</text>
</g>
<!-- router&#45;&#45;sw2 -->
<g id="edge4" class="edge">
<title>router&#45;&#45;sw2</title>
<path fill="none" stroke="black" d="M324.5,-362.58C329.05,-394.74 338.44,-461.13 343.01,-493.45"/>
</g>
<!-- sw3 -->
<g id="node6" class="node">
<title>sw3</title>
<polygon fill="lightgreen" stroke="black" points="293.09,-198.96 213.34,-198.96 213.34,-162.96 293.09,-162.96 293.09,-198.96"/>
<text xml:space="preserve" text-anchor="middle" x="253.22" y="-183.46" font-family="Arial" font-size="10.00">Switch 3</text>
<text xml:space="preserve" text-anchor="middle" x="253.22" y="-171.46" font-family="Arial" font-size="10.00">(Server Room)</text>
</g>
<!-- router&#45;&#45;sw3 -->
<g id="edge5" class="edge">
<title>router&#45;&#45;sw3</title>
<path fill="none" stroke="black" d="M314.17,-325.9C300.9,-294.36 274,-230.39 260.83,-199.06"/>
</g>
<!-- ws1 -->
<g id="node11" class="node">
<title>ws1</title>
<polygon fill="none" stroke="black" points="662.91,-417.24 608.91,-417.24 608.91,-381.24 662.91,-381.24 662.91,-417.24"/>
<text xml:space="preserve" text-anchor="middle" x="635.91" y="-395.74" font-family="Arial" font-size="10.00">WS 1</text>
</g>
<!-- sw1&#45;&#45;ws1 -->
<g id="edge6" class="edge">
<title>sw1&#45;&#45;ws1</title>
<path fill="none" stroke="black" d="M521.17,-339.63C546.34,-352.71 583.44,-371.98 608.59,-385.05"/>
</g>
<!-- ws2 -->
<g id="node12" class="node">
<title>ws2</title>
<polygon fill="none" stroke="black" points="647.16,-242.35 593.16,-242.35 593.16,-206.35 647.16,-206.35 647.16,-242.35"/>
<text xml:space="preserve" text-anchor="middle" x="620.16" y="-220.85" font-family="Arial" font-size="10.00">WS 2</text>
</g>
<!-- sw1&#45;&#45;ws2 -->
<g id="edge7" class="edge">
<title>sw1&#45;&#45;ws2</title>
<path fill="none" stroke="black" d="M516.65,-307.09C539.56,-288.78 574.59,-260.78 597.44,-242.51"/>
</g>
<!-- ws3 -->
<g id="node13" class="node">
<title>ws3</title>
<polygon fill="none" stroke="black" points="295.48,-672.58 241.48,-672.58 241.48,-636.58 295.48,-636.58 295.48,-672.58"/>
<text xml:space="preserve" text-anchor="middle" x="268.48" y="-651.08" font-family="Arial" font-size="10.00">WS 3</text>
</g>
<!-- sw2&#45;&#45;ws3 -->
<g id="edge8" class="edge">
<title>sw2&#45;&#45;ws3</title>
<path fill="none" stroke="black" d="M335.7,-530.3C320.89,-557.69 293.16,-608.95 278.37,-636.3"/>
</g>
<!-- ws4 -->
<g id="node14" class="node">
<title>ws4</title>
<polygon fill="none" stroke="black" points="476.96,-650.12 422.96,-650.12 422.96,-614.12 476.96,-614.12 476.96,-650.12"/>
<text xml:space="preserve" text-anchor="middle" x="449.96" y="-628.62" font-family="Arial" font-size="10.00">WS 4</text>
</g>
<!-- sw2&#45;&#45;ws4 -->
<g id="edge9" class="edge">
<title>sw2&#45;&#45;ws4</title>
<path fill="none" stroke="black" d="M361.48,-530.19C381.09,-552.78 414.29,-591.03 433.97,-613.69"/>
</g>
<!-- web1 -->
<g id="node7" class="node">
<title>web1</title>
<polygon fill="none" stroke="black" points="401.42,-92.86 351.42,-92.86 347.42,-88.86 347.42,-56.86 397.42,-56.86 401.42,-60.86 401.42,-92.86"/>
<polyline fill="none" stroke="black" points="397.42,-88.86 347.42,-88.86"/>
<polyline fill="none" stroke="black" points="397.42,-88.86 397.42,-56.86"/>
<polyline fill="none" stroke="black" points="397.42,-88.86 401.42,-92.86"/>
<text xml:space="preserve" text-anchor="middle" x="374.42" y="-77.36" font-family="Arial" font-size="10.00">Web</text>
<text xml:space="preserve" text-anchor="middle" x="374.42" y="-65.36" font-family="Arial" font-size="10.00">Server 1</text>
</g>
<!-- sw3&#45;&#45;web1 -->
<g id="edge10" class="edge">
<title>sw3&#45;&#45;web1</title>
<path fill="none" stroke="black" d="M274.33,-162.48C296.57,-143.01 331.39,-112.53 353.55,-93.13"/>
</g>
<!-- web2 -->
<g id="node8" class="node">
<title>web2</title>
<polygon fill="none" stroke="black" points="288.74,-36 238.74,-36 234.74,-32 234.74,0 284.74,0 288.74,-4 288.74,-36"/>
<polyline fill="none" stroke="black" points="284.74,-32 234.74,-32"/>
<polyline fill="none" stroke="black" points="284.74,-32 284.74,0"/>
<polyline fill="none" stroke="black" points="284.74,-32 288.74,-36"/>
<text xml:space="preserve" text-anchor="middle" x="261.74" y="-20.5" font-family="Arial" font-size="10.00">Web</text>
<text xml:space="preserve" text-anchor="middle" x="261.74" y="-8.5" font-family="Arial" font-size="10.00">Server 2</text>
</g>
<!-- sw3&#45;&#45;web2 -->
<g id="edge11" class="edge">
<title>sw3&#45;&#45;web2</title>
<path fill="none" stroke="black" d="M254.18,-162.58C255.82,-131.12 259.16,-67.31 260.8,-36.06"/>
</g>
<!-- db -->
<g id="node9" class="node">
<title>db</title>
<path fill="none" stroke="black" d="M119.13,-206.89C119.13,-209.1 106.13,-210.89 90.13,-210.89 74.12,-210.89 61.13,-209.1 61.13,-206.89 61.13,-206.89 61.13,-170.89 61.13,-170.89 61.13,-168.68 74.12,-166.89 90.13,-166.89 106.13,-166.89 119.13,-168.68 119.13,-170.89 119.13,-170.89 119.13,-206.89 119.13,-206.89"/>
<path fill="none" stroke="black" d="M119.13,-206.89C119.13,-204.68 106.13,-202.89 90.13,-202.89 74.12,-202.89 61.13,-204.68 61.13,-206.89"/>
<text xml:space="preserve" text-anchor="middle" x="90.13" y="-191.39" font-family="Arial" font-size="10.00">Database</text>
<text xml:space="preserve" text-anchor="middle" x="90.13" y="-179.39" font-family="Arial" font-size="10.00">Server</text>
</g>
<!-- sw3&#45;&#45;db -->
<g id="edge12" class="edge">
<title>sw3&#45;&#45;db</title>
<path fill="none" stroke="black" d="M212.9,-182.92C183.94,-184.33 145.57,-186.19 119.48,-187.46"/>
</g>
<!-- file -->
<g id="node10" class="node">
<title>file</title>
<polygon fill="none" stroke="black" points="161.67,-87.37 158.67,-91.37 137.67,-91.37 134.67,-87.37 107.67,-87.37 107.67,-51.37 161.67,-51.37 161.67,-87.37"/>
<text xml:space="preserve" text-anchor="middle" x="134.67" y="-71.87" font-family="Arial" font-size="10.00">File</text>
<text xml:space="preserve" text-anchor="middle" x="134.67" y="-59.87" font-family="Arial" font-size="10.00">Server</text>
</g>
<!-- sw3&#45;&#45;file -->
<g id="edge13" class="edge">
<title>sw3&#45;&#45;file</title>
<path fill="none" stroke="black" d="M233.64,-162.53C211.67,-141.86 176.25,-108.51 154.27,-87.82"/>
</g>
</g>
</svg>
