<?xml version="1.0" encoding="UTF-8" standalone="no"?>
<!DOCTYPE svg PUBLIC "-//W3C//DTD SVG 1.1//EN"
 "http://www.w3.org/Graphics/SVG/1.1/DTD/svg11.dtd">
<!-- Generated by graphviz version 14.1.1 (20251213.1925)
 -->
<!-- Title: LibraryDeps Pages: 1 -->
<svg width="478pt" height="260pt"
 viewBox="0.00 0.00 478.00 260.00" xmlns="http://www.w3.org/2000/svg" xmlns:xlink="http://www.w3.org/1999/xlink">
<g id="graph0" class="graph" transform="scale(1 1) rotate(0) translate(4 256)">
<title>LibraryDeps</title>
<polygon fill="white" stroke="none" points="-4,4 -4,-256 474.12,-256 474.12,4 -4,4"/>
<!-- base -->
<g id="node1" class="node">
<title>base</title>
<polygon fill="lightgray" stroke="black" points="218.25,-252 161.75,-252 161.75,-216 218.25,-216 218.25,-252"/>
<text xml:space="preserve" text-anchor="middle" x="190" y="-230.5" font-family="Arial" font-size="10.00">ISE base</text>
</g>
<!-- time -->
<g id="node2" class="node">
<title>time</title>
<polygon fill="lightgray" stroke="black" points="172.12,-36 117.88,-36 117.88,0 172.12,0 172.12,-36"/>
<text xml:space="preserve" text-anchor="middle" x="145" y="-14.5" font-family="Arial" font-size="10.00">ISE time</text>
</g>
<!-- testing -->
<g id="node3" class="node">
<title>testing</title>
<polygon fill="lightgray" stroke="black" points="255.38,-36 190.62,-36 190.62,0 255.38,0 255.38,-36"/>
<text xml:space="preserve" text-anchor="middle" x="223" y="-14.5" font-family="Arial" font-size="10.00">ISE testing</text>
</g>
<!-- simple_mml -->
<g id="node4" class="node">
<title>simple_mml</title>
<polygon fill="lightblue" stroke="black" points="197.62,-180 110.38,-180 110.38,-144 197.62,-144 197.62,-180"/>
<text xml:space="preserve" text-anchor="middle" x="154" y="-164.5" font-family="Arial" font-size="10.00">simple_mml</text>
<text xml:space="preserve" text-anchor="middle" x="154" y="-152.5" font-family="Arial" font-size="10.00">(MML contracts)</text>
</g>
<!-- simple_mml&#45;&gt;base -->
<g id="edge1" class="edge">
<title>simple_mml&#45;&gt;base</title>
<path fill="none" stroke="black" d="M162.9,-180.3C166.87,-188.02 171.63,-197.29 176.06,-205.89"/>
<polygon fill="black" stroke="black" points="172.83,-207.26 180.51,-214.55 179.05,-204.06 172.83,-207.26"/>
</g>
<!-- simple_logger -->
<g id="node5" class="node">
<title>simple_logger</title>
<polygon fill="lightblue" stroke="black" points="368,-180 292,-180 292,-144 368,-144 368,-180"/>
<text xml:space="preserve" text-anchor="middle" x="330" y="-164.5" font-family="Arial" font-size="10.00">simple_logger</text>
<text xml:space="preserve" text-anchor="middle" x="330" y="-152.5" font-family="Arial" font-size="10.00">(logging)</text>
</g>
<!-- simple_logger&#45;&gt;base -->
<g id="edge2" class="edge">
<title>simple_logger&#45;&gt;base</title>
<path fill="none" stroke="black" d="M295.03,-180.48C274.8,-190.6 249.31,-203.34 228.51,-213.75"/>
<polygon fill="black" stroke="black" points="227.15,-210.51 219.77,-218.12 230.28,-216.78 227.15,-210.51"/>
</g>
<!-- simple_json -->
<g id="node6" class="node">
<title>simple_json</title>
<polygon fill="lightgreen" stroke="black" points="168.88,-108 101.12,-108 101.12,-72 168.88,-72 168.88,-108"/>
<text xml:space="preserve" text-anchor="middle" x="135" y="-86.5" font-family="Arial" font-size="10.00">simple_json</text>
</g>
<!-- simple_json&#45;&gt;base -->
<g id="edge3" class="edge">
<title>simple_json&#45;&gt;base</title>
<path fill="none" stroke="black" d="M119.52,-108.42C105.1,-126.89 87.68,-156.56 101,-180 111.82,-199.04 132.49,-211.96 151.18,-220.27"/>
<polygon fill="black" stroke="black" points="149.6,-223.4 160.18,-223.96 152.26,-216.93 149.6,-223.4"/>
</g>
<!-- simple_json&#45;&gt;simple_mml -->
<g id="edge4" class="edge">
<title>simple_json&#45;&gt;simple_mml</title>
<path fill="none" stroke="black" d="M139.7,-108.3C141.72,-115.76 144.14,-124.68 146.41,-133.03"/>
<polygon fill="black" stroke="black" points="142.96,-133.7 148.96,-142.43 149.72,-131.87 142.96,-133.7"/>
</g>
<!-- simple_http -->
<g id="node7" class="node">
<title>simple_http</title>
<polygon fill="lightgreen" stroke="black" points="83.12,-108 16.88,-108 16.88,-72 83.12,-72 83.12,-108"/>
<text xml:space="preserve" text-anchor="middle" x="50" y="-86.5" font-family="Arial" font-size="10.00">simple_http</text>
</g>
<!-- simple_http&#45;&gt;base -->
<g id="edge5" class="edge">
<title>simple_http&#45;&gt;base</title>
<path fill="none" stroke="black" d="M54.59,-108.28C60.49,-127.72 72.39,-159.28 92,-180 108.27,-197.19 131.37,-210.05 151.06,-218.8"/>
<polygon fill="black" stroke="black" points="149.61,-221.99 160.18,-222.65 152.33,-215.54 149.61,-221.99"/>
</g>
<!-- simple_http&#45;&gt;simple_mml -->
<g id="edge6" class="edge">
<title>simple_http&#45;&gt;simple_mml</title>
<path fill="none" stroke="black" d="M75.98,-108.48C88.98,-117.24 104.91,-127.96 118.97,-137.42"/>
<polygon fill="black" stroke="black" points="116.85,-140.21 127.1,-142.89 120.76,-134.41 116.85,-140.21"/>
</g>
<!-- simple_process -->
<g id="node8" class="node">
<title>simple_process</title>
<polygon fill="lightgreen" stroke="black" points="470.12,-180 385.88,-180 385.88,-144 470.12,-144 470.12,-180"/>
<text xml:space="preserve" text-anchor="middle" x="428" y="-158.5" font-family="Arial" font-size="10.00">simple_process</text>
</g>
<!-- simple_process&#45;&gt;base -->
<g id="edge7" class="edge">
<title>simple_process&#45;&gt;base</title>
<path fill="none" stroke="black" d="M385.47,-177.34C382.61,-178.25 379.76,-179.15 377,-180 326.44,-195.58 267.67,-211.96 229.71,-222.31"/>
<polygon fill="black" stroke="black" points="228.82,-218.92 220.09,-224.92 230.66,-225.68 228.82,-218.92"/>
</g>
<!-- simple_xml -->
<g id="node9" class="node">
<title>simple_xml</title>
<polygon fill="lightgreen" stroke="black" points="252.75,-108 187.25,-108 187.25,-72 252.75,-72 252.75,-108"/>
<text xml:space="preserve" text-anchor="middle" x="220" y="-86.5" font-family="Arial" font-size="10.00">simple_xml</text>
</g>
<!-- simple_xml&#45;&gt;base -->
<g id="edge8" class="edge">
<title>simple_xml&#45;&gt;base</title>
<path fill="none" stroke="black" d="M218.34,-108.22C216.4,-126.26 212.71,-155.36 207,-180 205.12,-188.1 202.59,-196.73 200.05,-204.64"/>
<polygon fill="black" stroke="black" points="196.74,-203.51 196.89,-214.1 203.38,-205.73 196.74,-203.51"/>
</g>
<!-- simple_xml&#45;&gt;simple_mml -->
<g id="edge9" class="edge">
<title>simple_xml&#45;&gt;simple_mml</title>
<path fill="none" stroke="black" d="M203.69,-108.3C195.93,-116.53 186.51,-126.52 177.97,-135.58"/>
<polygon fill="black" stroke="black" points="175.48,-133.12 171.17,-142.79 180.57,-137.92 175.48,-133.12"/>
</g>
<!-- simple_graphviz -->
<g id="node10" class="node">
<title>simple_graphviz</title>
<polygon fill="lightyellow" stroke="black" points="357.25,-108 270.75,-108 270.75,-72 357.25,-72 357.25,-108"/>
<text xml:space="preserve" text-anchor="middle" x="314" y="-86.5" font-family="Arial" font-size="10.00">simple_graphviz</text>
</g>
<!-- simple_graphviz&#45;&gt;base -->
<g id="edge10" class="edge">
<title>simple_graphviz&#45;&gt;base</title>
<path fill="none" stroke="black" d="M298.8,-108.41C277.2,-133.14 237.51,-178.59 212.5,-207.23"/>
<polygon fill="black" stroke="black" points="209.88,-204.91 205.94,-214.75 215.15,-209.52 209.88,-204.91"/>
</g>
<!-- simple_graphviz&#45;&gt;simple_mml -->
<g id="edge11" class="edge">
<title>simple_graphviz&#45;&gt;simple_mml</title>
<path fill="none" stroke="black" d="M274.04,-108.48C252.86,-117.75 226.65,-129.22 204.12,-139.07"/>
<polygon fill="black" stroke="black" points="202.87,-135.8 195.12,-143.01 205.68,-142.21 202.87,-135.8"/>
</g>
<!-- simple_graphviz&#45;&gt;simple_logger -->
<g id="edge12" class="edge">
<title>simple_graphviz&#45;&gt;simple_logger</title>
<path fill="none" stroke="black" d="M317.96,-108.3C319.64,-115.68 321.65,-124.48 323.54,-132.75"/>
<polygon fill="black" stroke="black" points="320.11,-133.45 325.75,-142.42 326.94,-131.89 320.11,-133.45"/>
</g>
<!-- simple_web_server -->
<g id="node11" class="node">
<title>simple_web_server</title>
<polygon fill="lightyellow" stroke="black" points="100,-36 0,-36 0,0 100,0 100,-36"/>
<text xml:space="preserve" text-anchor="middle" x="50" y="-14.5" font-family="Arial" font-size="10.00">simple_web_server</text>
</g>
<!-- simple_web_server&#45;&gt;base -->
<g id="edge13" class="edge">
<title>simple_web_server&#45;&gt;base</title>
<path fill="none" stroke="black" d="M31.4,-36.24C22.47,-45.8 12.71,-58.47 8,-72 2.74,-87.11 2.74,-92.89 8,-108 21.41,-146.55 32.54,-155.26 65,-180 90.67,-199.56 124.65,-213.36 150.7,-221.97"/>
<polygon fill="black" stroke="black" points="149.29,-225.19 159.88,-224.88 151.41,-218.52 149.29,-225.19"/>
</g>
<!-- simple_web_server&#45;&gt;simple_json -->
<g id="edge15" class="edge">
<title>simple_web_server&#45;&gt;simple_json</title>
<path fill="none" stroke="black" d="M71.01,-36.3C81.33,-44.8 93.94,-55.19 105.23,-64.49"/>
<polygon fill="black" stroke="black" points="102.82,-67.04 112.77,-70.69 107.27,-61.63 102.82,-67.04"/>
</g>
<!-- simple_web_server&#45;&gt;simple_http -->
<g id="edge14" class="edge">
<title>simple_web_server&#45;&gt;simple_http</title>
<path fill="none" stroke="black" d="M50,-36.3C50,-43.59 50,-52.27 50,-60.46"/>
<polygon fill="black" stroke="black" points="46.5,-60.38 50,-70.38 53.5,-60.38 46.5,-60.38"/>
</g>
</g>
</svg>
