<?xml version="1.0" encoding="UTF-8" standalone="no"?>
<!DOCTYPE svg PUBLIC "-//W3C//DTD SVG 1.1//EN"
 "http://www.w3.org/Graphics/SVG/1.1/DTD/svg11.dtd">
<!-- Generated by graphviz version 14.1.1 (20251213.1925)
 -->
<!-- Title: OrgChart Pages: 1 -->
<svg width="682pt" height="271pt"
 viewBox="0.00 0.00 682.00 271.00" xmlns="http://www.w3.org/2000/svg" xmlns:xlink="http://www.w3.org/1999/xlink">
<g id="graph0" class="graph" transform="scale(1 1) rotate(0) translate(4 266.5)">
<title>OrgChart</title>
<polygon fill="white" stroke="none" points="-4,4 -4,-266.5 678,-266.5 678,4 -4,4"/>
<!-- CEO -->
<g id="node1" class="node">
<title>CEO</title>
<polygon fill="gold" stroke="black" points="506.5,-262.5 422.25,-262.5 422.25,-223 506.5,-223 506.5,-262.5"/>
<text xml:space="preserve" text-anchor="middle" x="464.38" y="-245.2" font-family="Arial" font-size="14.00">Jane Smith</text>
<text xml:space="preserve" text-anchor="middle" x="464.38" y="-229.45" font-family="Arial" font-size="14.00">CEO</text>
</g>
<!-- CTO -->
<g id="node2" class="node">
<title>CTO</title>
<polygon fill="lightblue" stroke="black" points="402.75,-187 308,-187 308,-147.5 402.75,-147.5 402.75,-187"/>
<text xml:space="preserve" text-anchor="middle" x="355.38" y="-169.7" font-family="Arial" font-size="14.00">Bob Johnson</text>
<text xml:space="preserve" text-anchor="middle" x="355.38" y="-153.95" font-family="Arial" font-size="14.00">CTO</text>
</g>
<!-- CEO&#45;&gt;CTO -->
<g id="edge1" class="edge">
<title>CEO&#45;&gt;CTO</title>
<path fill="none" stroke="black" d="M436.02,-222.63C422.9,-213.78 407.13,-203.15 393.03,-193.64"/>
<polygon fill="black" stroke="black" points="395.09,-190.81 384.84,-188.12 391.18,-196.61 395.09,-190.81"/>
</g>
<!-- CFO -->
<g id="node3" class="node">
<title>CFO</title>
<polygon fill="lightgreen" stroke="black" points="508,-187 420.75,-187 420.75,-147.5 508,-147.5 508,-187"/>
<text xml:space="preserve" text-anchor="middle" x="464.38" y="-169.7" font-family="Arial" font-size="14.00">Alice Brown</text>
<text xml:space="preserve" text-anchor="middle" x="464.38" y="-153.95" font-family="Arial" font-size="14.00">CFO</text>
</g>
<!-- CEO&#45;&gt;CFO -->
<g id="edge2" class="edge">
<title>CEO&#45;&gt;CFO</title>
<path fill="none" stroke="black" d="M464.38,-222.82C464.38,-215.51 464.38,-206.95 464.38,-198.81"/>
<polygon fill="black" stroke="black" points="467.88,-198.88 464.38,-188.88 460.88,-198.88 467.88,-198.88"/>
</g>
<!-- COO -->
<g id="node4" class="node">
<title>COO</title>
<polygon fill="lightyellow" stroke="black" points="624.5,-187 528.25,-187 528.25,-147.5 624.5,-147.5 624.5,-187"/>
<text xml:space="preserve" text-anchor="middle" x="576.38" y="-169.7" font-family="Arial" font-size="14.00">Charlie Davis</text>
<text xml:space="preserve" text-anchor="middle" x="576.38" y="-153.95" font-family="Arial" font-size="14.00">COO</text>
</g>
<!-- CEO&#45;&gt;COO -->
<g id="edge3" class="edge">
<title>CEO&#45;&gt;COO</title>
<path fill="none" stroke="black" d="M493.51,-222.63C507.12,-213.7 523.51,-202.94 538.1,-193.37"/>
<polygon fill="black" stroke="black" points="539.68,-196.52 546.12,-188.1 535.84,-190.66 539.68,-196.52"/>
</g>
<!-- VP_Eng -->
<g id="node5" class="node">
<title>VP_Eng</title>
<polygon fill="lightcyan" stroke="black" points="251.25,-111.5 141.5,-111.5 141.5,-72 251.25,-72 251.25,-111.5"/>
<text xml:space="preserve" text-anchor="middle" x="196.38" y="-94.2" font-family="Arial" font-size="14.00">Diana Lee</text>
<text xml:space="preserve" text-anchor="middle" x="196.38" y="-78.45" font-family="Arial" font-size="14.00">VP Engineering</text>
</g>
<!-- CTO&#45;&gt;VP_Eng -->
<g id="edge4" class="edge">
<title>CTO&#45;&gt;VP_Eng</title>
<path fill="none" stroke="black" d="M314.01,-147.13C293.85,-137.81 269.4,-126.51 248.02,-116.62"/>
<polygon fill="black" stroke="black" points="249.72,-113.56 239.18,-112.54 246.79,-119.91 249.72,-113.56"/>
</g>
<!-- VP_Product -->
<g id="node6" class="node">
<title>VP_Product</title>
<polygon fill="lightcyan" stroke="black" points="397.5,-111.5 313.25,-111.5 313.25,-72 397.5,-72 397.5,-111.5"/>
<text xml:space="preserve" text-anchor="middle" x="355.38" y="-94.2" font-family="Arial" font-size="14.00">Eve Wilson</text>
<text xml:space="preserve" text-anchor="middle" x="355.38" y="-78.45" font-family="Arial" font-size="14.00">VP Product</text>
</g>
<!-- CTO&#45;&gt;VP_Product -->
<g id="edge5" class="edge">
<title>CTO&#45;&gt;VP_Product</title>
<path fill="none" stroke="black" d="M355.38,-147.32C355.38,-140.01 355.38,-131.45 355.38,-123.31"/>
<polygon fill="black" stroke="black" points="358.88,-123.38 355.38,-113.38 351.88,-123.38 358.88,-123.38"/>
</g>
<!-- VP_Finance -->
<g id="node7" class="node">
<title>VP_Finance</title>
<polygon fill="palegreen" stroke="black" points="508,-111.5 420.75,-111.5 420.75,-72 508,-72 508,-111.5"/>
<text xml:space="preserve" text-anchor="middle" x="464.38" y="-94.2" font-family="Arial" font-size="14.00">Frank Miller</text>
<text xml:space="preserve" text-anchor="middle" x="464.38" y="-78.45" font-family="Arial" font-size="14.00">VP Finance</text>
</g>
<!-- CFO&#45;&gt;VP_Finance -->
<g id="edge6" class="edge">
<title>CFO&#45;&gt;VP_Finance</title>
<path fill="none" stroke="black" d="M464.38,-147.32C464.38,-140.01 464.38,-131.45 464.38,-123.31"/>
<polygon fill="black" stroke="black" points="467.88,-123.38 464.38,-113.38 460.88,-123.38 467.88,-123.38"/>
</g>
<!-- VP_Ops -->
<g id="node8" class="node">
<title>VP_Ops</title>
<polygon fill="moccasin" stroke="black" points="630.62,-111.5 526.12,-111.5 526.12,-72 630.62,-72 630.62,-111.5"/>
<text xml:space="preserve" text-anchor="middle" x="578.38" y="-94.2" font-family="Arial" font-size="14.00">Grace Taylor</text>
<text xml:space="preserve" text-anchor="middle" x="578.38" y="-78.45" font-family="Arial" font-size="14.00">VP Operations</text>
</g>
<!-- COO&#45;&gt;VP_Ops -->
<g id="edge7" class="edge">
<title>COO&#45;&gt;VP_Ops</title>
<path fill="none" stroke="black" d="M576.89,-147.32C577.09,-140.01 577.32,-131.45 577.54,-123.31"/>
<polygon fill="black" stroke="black" points="581.04,-123.47 577.81,-113.38 574.04,-123.28 581.04,-123.47"/>
</g>
<!-- Dev1 -->
<g id="node9" class="node">
<title>Dev1</title>
<polygon fill="white" stroke="black" points="88.75,-36 0,-36 0,0 88.75,0 88.75,-36"/>
<text xml:space="preserve" text-anchor="middle" x="44.38" y="-12.57" font-family="Arial" font-size="14.00">Dev Team 1</text>
</g>
<!-- VP_Eng&#45;&gt;Dev1 -->
<g id="edge8" class="edge">
<title>VP_Eng&#45;&gt;Dev1</title>
<path fill="none" stroke="black" d="M155.64,-71.52C135.95,-62.23 112.19,-51.01 91.7,-41.34"/>
<polygon fill="black" stroke="black" points="93.22,-38.19 82.69,-37.08 90.23,-44.52 93.22,-38.19"/>
</g>
<!-- Dev2 -->
<g id="node10" class="node">
<title>Dev2</title>
<polygon fill="white" stroke="black" points="195.75,-36 107,-36 107,0 195.75,0 195.75,-36"/>
<text xml:space="preserve" text-anchor="middle" x="151.38" y="-12.57" font-family="Arial" font-size="14.00">Dev Team 2</text>
</g>
<!-- VP_Eng&#45;&gt;Dev2 -->
<g id="edge9" class="edge">
<title>VP_Eng&#45;&gt;Dev2</title>
<path fill="none" stroke="black" d="M184.32,-71.52C179.38,-63.65 173.57,-54.39 168.23,-45.87"/>
<polygon fill="black" stroke="black" points="171.32,-44.21 163.04,-37.6 165.39,-47.93 171.32,-44.21"/>
</g>
<!-- QA -->
<g id="node11" class="node">
<title>QA</title>
<polygon fill="white" stroke="black" points="286.88,-36 213.88,-36 213.88,0 286.88,0 286.88,-36"/>
<text xml:space="preserve" text-anchor="middle" x="250.38" y="-12.57" font-family="Arial" font-size="14.00">QA Team</text>
</g>
<!-- VP_Eng&#45;&gt;QA -->
<g id="edge10" class="edge">
<title>VP_Eng&#45;&gt;QA</title>
<path fill="none" stroke="black" d="M210.85,-71.52C216.9,-63.47 224.04,-53.99 230.57,-45.31"/>
<polygon fill="black" stroke="black" points="233.21,-47.62 236.43,-37.53 227.62,-43.41 233.21,-47.62"/>
</g>
<!-- PM -->
<g id="node12" class="node">
<title>PM</title>
<polygon fill="white" stroke="black" points="406.12,-36 304.62,-36 304.62,0 406.12,0 406.12,-36"/>
<text xml:space="preserve" text-anchor="middle" x="355.38" y="-12.57" font-family="Arial" font-size="14.00">Product Mgmt</text>
</g>
<!-- VP_Product&#45;&gt;PM -->
<g id="edge11" class="edge">
<title>VP_Product&#45;&gt;PM</title>
<path fill="none" stroke="black" d="M355.38,-71.52C355.38,-64.25 355.38,-55.79 355.38,-47.83"/>
<polygon fill="black" stroke="black" points="358.88,-47.83 355.38,-37.83 351.88,-47.83 358.88,-47.83"/>
</g>
<!-- Accounting -->
<g id="node13" class="node">
<title>Accounting</title>
<polygon fill="white" stroke="black" points="506.75,-36 424,-36 424,0 506.75,0 506.75,-36"/>
<text xml:space="preserve" text-anchor="middle" x="465.38" y="-12.57" font-family="Arial" font-size="14.00">Accounting</text>
</g>
<!-- VP_Finance&#45;&gt;Accounting -->
<g id="edge12" class="edge">
<title>VP_Finance&#45;&gt;Accounting</title>
<path fill="none" stroke="black" d="M464.64,-71.52C464.74,-64.25 464.86,-55.79 464.97,-47.83"/>
<polygon fill="black" stroke="black" points="468.47,-47.88 465.11,-37.83 461.47,-47.78 468.47,-47.88"/>
</g>
<!-- HR -->
<g id="node14" class="node">
<title>HR</title>
<polygon fill="white" stroke="black" points="592.38,-36 538.38,-36 538.38,0 592.38,0 592.38,-36"/>
<text xml:space="preserve" text-anchor="middle" x="565.38" y="-12.57" font-family="Arial" font-size="14.00">HR</text>
</g>
<!-- VP_Ops&#45;&gt;HR -->
<g id="edge13" class="edge">
<title>VP_Ops&#45;&gt;HR</title>
<path fill="none" stroke="black" d="M574.89,-71.52C573.56,-64.16 572.01,-55.59 570.55,-47.54"/>
<polygon fill="black" stroke="black" points="574.01,-47.02 568.78,-37.81 567.12,-48.27 574.01,-47.02"/>
</g>
<!-- Support -->
<g id="node15" class="node">
<title>Support</title>
<polygon fill="white" stroke="black" points="674,-36 610.75,-36 610.75,0 674,0 674,-36"/>
<text xml:space="preserve" text-anchor="middle" x="642.38" y="-12.57" font-family="Arial" font-size="14.00">Support</text>
</g>
<!-- VP_Ops&#45;&gt;Support -->
<g id="edge14" class="edge">
<title>VP_Ops&#45;&gt;Support</title>
<path fill="none" stroke="black" d="M595.53,-71.52C602.86,-63.3 611.52,-53.59 619.4,-44.76"/>
<polygon fill="black" stroke="black" points="621.88,-47.24 625.92,-37.45 616.65,-42.58 621.88,-47.24"/>
</g>
</g>
</svg>
