<?xml version="1.0" encoding="UTF-8" standalone="no"?>
<!DOCTYPE svg PUBLIC "-//W3C//DTD SVG 1.1//EN"
 "http://www.w3.org/Graphics/SVG/1.1/DTD/svg11.dtd">
<!-- Generated by graphviz version 14.1.1 (20251213.1925)
 -->
<!-- Title: BugTriage Pages: 1 -->
<svg width="500pt" height="782pt"
 viewBox="0.00 0.00 500.00 782.00" xmlns="http://www.w3.org/2000/svg" xmlns:xlink="http://www.w3.org/1999/xlink">
<g id="graph0" class="graph" transform="scale(1 1) rotate(0) translate(4 777.5)">
<title>BugTriage</title>
<polygon fill="white" stroke="none" points="-4,4 -4,-777.5 495.62,-777.5 495.62,4 -4,4"/>
<!-- root -->
<g id="node1" class="node">
<title>root</title>
<polygon fill="lightyellow" stroke="black" points="380.38,-773.5 309.62,-773.5 309.62,-734 380.38,-734 380.38,-773.5"/>
<text xml:space="preserve" text-anchor="middle" x="345" y="-756.2" font-family="Arial" font-size="14.00">New Bug</text>
<text xml:space="preserve" text-anchor="middle" x="345" y="-740.45" font-family="Arial" font-size="14.00">Report</text>
</g>
<!-- q1 -->
<g id="node2" class="node">
<title>q1</title>
<polygon fill="none" stroke="black" points="345,-697 248,-657.5 345,-618 442,-657.5 345,-697"/>
<text xml:space="preserve" text-anchor="middle" x="345" y="-659.95" font-family="Arial" font-size="14.00">Security</text>
<text xml:space="preserve" text-anchor="middle" x="345" y="-644.2" font-family="Arial" font-size="14.00">Vulnerability?</text>
</g>
<!-- root&#45;&gt;q1 -->
<g id="edge1" class="edge">
<title>root&#45;&gt;q1</title>
<path fill="none" stroke="black" d="M345,-733.68C345,-726.34 345,-717.58 345,-708.67"/>
<polygon fill="black" stroke="black" points="348.5,-708.91 345,-698.91 341.5,-708.91 348.5,-708.91"/>
</g>
<!-- q2 -->
<g id="node3" class="node">
<title>q2</title>
<polygon fill="none" stroke="black" points="286,-565.5 205.5,-526 286,-486.5 366.5,-526 286,-565.5"/>
<text xml:space="preserve" text-anchor="middle" x="286" y="-528.45" font-family="Arial" font-size="14.00">Production</text>
<text xml:space="preserve" text-anchor="middle" x="286" y="-512.7" font-family="Arial" font-size="14.00">Impact?</text>
</g>
<!-- q1&#45;&gt;q2 -->
<g id="edge3" class="edge">
<title>q1&#45;&gt;q2</title>
<path fill="none" stroke="black" d="M330.11,-623.82C322.52,-607.16 313.2,-586.71 305.09,-568.9"/>
<polygon fill="black" stroke="black" points="308.43,-567.8 301.1,-560.15 302.06,-570.7 308.43,-567.8"/>
<text xml:space="preserve" text-anchor="middle" x="327.28" y="-586.7" font-family="Times New Roman,serif" font-size="14.00">No</text>
</g>
<!-- p1 -->
<g id="node7" class="node">
<title>p1</title>
<polygon fill="red" stroke="black" points="459,-414.25 347,-414.25 347,-374.75 459,-374.75 459,-414.25"/>
<text xml:space="preserve" text-anchor="middle" x="403" y="-396.95" font-family="Arial" font-size="14.00" fill="white">P1 &#45; Critical</text>
<text xml:space="preserve" text-anchor="middle" x="403" y="-381.2" font-family="Arial" font-size="14.00" fill="white">Fix Immediately</text>
</g>
<!-- q1&#45;&gt;p1 -->
<g id="edge2" class="edge">
<title>q1&#45;&gt;p1</title>
<path fill="none" stroke="black" d="M358.03,-622.77C364.19,-605.8 371.22,-584.78 376,-565.5 387.96,-517.24 395.78,-459.9 399.79,-425.67"/>
<polygon fill="black" stroke="black" points="403.23,-426.41 400.88,-416.08 396.27,-425.62 403.23,-426.41"/>
<text xml:space="preserve" text-anchor="middle" x="401.3" y="-520.95" font-family="Times New Roman,serif" font-size="14.00">Yes</text>
</g>
<!-- q3 -->
<g id="node4" class="node">
<title>q3</title>
<polygon fill="none" stroke="black" points="239,-434 149.5,-394.5 239,-355 328.5,-394.5 239,-434"/>
<text xml:space="preserve" text-anchor="middle" x="239" y="-396.95" font-family="Arial" font-size="14.00">Workaround</text>
<text xml:space="preserve" text-anchor="middle" x="239" y="-381.2" font-family="Arial" font-size="14.00">Exists?</text>
</g>
<!-- q2&#45;&gt;q3 -->
<g id="edge5" class="edge">
<title>q2&#45;&gt;q3</title>
<path fill="none" stroke="black" d="M274.02,-491.99C268.21,-475.98 261.15,-456.53 254.89,-439.29"/>
<polygon fill="black" stroke="black" points="258.34,-438.53 251.64,-430.33 251.76,-440.92 258.34,-438.53"/>
<text xml:space="preserve" text-anchor="middle" x="273.56" y="-455.2" font-family="Times New Roman,serif" font-size="14.00">No</text>
</g>
<!-- q2&#45;&gt;p1 -->
<g id="edge4" class="edge">
<title>q2&#45;&gt;p1</title>
<path fill="none" stroke="black" d="M310.24,-498.17C330.1,-476.19 358.08,-445.22 378.11,-423.05"/>
<polygon fill="black" stroke="black" points="380.5,-425.62 384.61,-415.85 375.31,-420.93 380.5,-425.62"/>
<text xml:space="preserve" text-anchor="middle" x="361.63" y="-455.2" font-family="Times New Roman,serif" font-size="14.00">Yes</text>
</g>
<!-- q4 -->
<g id="node5" class="node">
<title>q4</title>
<polygon fill="none" stroke="black" points="173,-302.5 109,-263 173,-223.5 237,-263 173,-302.5"/>
<text xml:space="preserve" text-anchor="middle" x="173" y="-265.45" font-family="Arial" font-size="14.00">User</text>
<text xml:space="preserve" text-anchor="middle" x="173" y="-249.7" font-family="Arial" font-size="14.00">Facing?</text>
</g>
<!-- q3&#45;&gt;q4 -->
<g id="edge6" class="edge">
<title>q3&#45;&gt;q4</title>
<path fill="none" stroke="black" d="M222.85,-361.82C213.94,-344.34 202.79,-322.46 193.3,-303.83"/>
<polygon fill="black" stroke="black" points="196.42,-302.25 188.76,-294.93 190.18,-305.42 196.42,-302.25"/>
<text xml:space="preserve" text-anchor="middle" x="220.08" y="-323.7" font-family="Times New Roman,serif" font-size="14.00">Yes</text>
</g>
<!-- p2 -->
<g id="node8" class="node">
<title>p2</title>
<polygon fill="orange" stroke="black" points="357.12,-282.75 254.88,-282.75 254.88,-243.25 357.12,-243.25 357.12,-282.75"/>
<text xml:space="preserve" text-anchor="middle" x="306" y="-265.45" font-family="Arial" font-size="14.00">P2 &#45; High</text>
<text xml:space="preserve" text-anchor="middle" x="306" y="-249.7" font-family="Arial" font-size="14.00">Fix This Sprint</text>
</g>
<!-- q3&#45;&gt;p2 -->
<g id="edge7" class="edge">
<title>q3&#45;&gt;p2</title>
<path fill="none" stroke="black" d="M255.39,-361.82C266.28,-340.78 280.46,-313.37 291.04,-292.92"/>
<polygon fill="black" stroke="black" points="294.03,-294.76 295.51,-284.27 287.81,-291.54 294.03,-294.76"/>
<text xml:space="preserve" text-anchor="middle" x="284.76" y="-323.7" font-family="Times New Roman,serif" font-size="14.00">No</text>
</g>
<!-- q5 -->
<g id="node6" class="node">
<title>q5</title>
<polygon fill="none" stroke="black" points="103,-171 0,-131.5 103,-92 206,-131.5 103,-171"/>
<text xml:space="preserve" text-anchor="middle" x="103" y="-133.95" font-family="Arial" font-size="14.00">Affects</text>
<text xml:space="preserve" text-anchor="middle" x="103" y="-118.2" font-family="Arial" font-size="14.00">Core Feature?</text>
</g>
<!-- q4&#45;&gt;q5 -->
<g id="edge9" class="edge">
<title>q4&#45;&gt;q5</title>
<path fill="none" stroke="black" d="M157.29,-232.94C148,-215.74 136.06,-193.67 125.75,-174.59"/>
<polygon fill="black" stroke="black" points="128.93,-173.11 121.1,-165.98 122.77,-176.44 128.93,-173.11"/>
<text xml:space="preserve" text-anchor="middle" x="150.44" y="-192.2" font-family="Times New Roman,serif" font-size="14.00">No</text>
</g>
<!-- p3 -->
<g id="node9" class="node">
<title>p3</title>
<polygon fill="yellow" stroke="black" points="277.25,-39.5 172.75,-39.5 172.75,0 277.25,0 277.25,-39.5"/>
<text xml:space="preserve" text-anchor="middle" x="225" y="-22.2" font-family="Arial" font-size="14.00">P3 &#45; Medium</text>
<text xml:space="preserve" text-anchor="middle" x="225" y="-6.45" font-family="Arial" font-size="14.00">Fix Next Sprint</text>
</g>
<!-- q4&#45;&gt;p3 -->
<g id="edge8" class="edge">
<title>q4&#45;&gt;p3</title>
<path fill="none" stroke="black" d="M189.45,-233.5C198.67,-216.04 209.42,-192.92 215,-171 225.37,-130.3 226.66,-81.5 226.19,-50.8"/>
<polygon fill="black" stroke="black" points="229.69,-51.02 225.96,-41.11 222.69,-51.19 229.69,-51.02"/>
<text xml:space="preserve" text-anchor="middle" x="235.68" y="-126.45" font-family="Times New Roman,serif" font-size="14.00">Yes</text>
</g>
<!-- q5&#45;&gt;p3 -->
<g id="edge10" class="edge">
<title>q5&#45;&gt;p3</title>
<path fill="none" stroke="black" d="M133.16,-103.37C152.04,-86.38 176.28,-64.58 195.11,-47.64"/>
<polygon fill="black" stroke="black" points="197.39,-50.3 202.48,-41.01 192.71,-45.09 197.39,-50.3"/>
<text xml:space="preserve" text-anchor="middle" x="192.18" y="-60.7" font-family="Times New Roman,serif" font-size="14.00">Yes</text>
</g>
<!-- p4 -->
<g id="node10" class="node">
<title>p4</title>
<polygon fill="lightgreen" stroke="black" points="137.62,-39.5 68.38,-39.5 68.38,0 137.62,0 137.62,-39.5"/>
<text xml:space="preserve" text-anchor="middle" x="103" y="-22.2" font-family="Arial" font-size="14.00">P4 &#45; Low</text>
<text xml:space="preserve" text-anchor="middle" x="103" y="-6.45" font-family="Arial" font-size="14.00">Backlog</text>
</g>
<!-- q5&#45;&gt;p4 -->
<g id="edge11" class="edge">
<title>q5&#45;&gt;p4</title>
<path fill="none" stroke="black" d="M103,-91.5C103,-78.24 103,-63.62 103,-51.14"/>
<polygon fill="black" stroke="black" points="106.5,-51.45 103,-41.45 99.5,-51.45 106.5,-51.45"/>
<text xml:space="preserve" text-anchor="middle" x="111.25" y="-60.7" font-family="Times New Roman,serif" font-size="14.00">No</text>
</g>
<!-- p5 -->
<g id="node11" class="node">
<title>p5</title>
<polygon fill="lightgray" stroke="black" points="491.62,-773.5 398.38,-773.5 398.38,-734 491.62,-734 491.62,-773.5"/>
<text xml:space="preserve" text-anchor="middle" x="445" y="-756.2" font-family="Arial" font-size="14.00">P5 &#45; Trivial</text>
<text xml:space="preserve" text-anchor="middle" x="445" y="-740.45" font-family="Arial" font-size="14.00">Nice to Have</text>
</g>
</g>
</svg>
