<?xml version="1.0" encoding="UTF-8" standalone="no"?>
<!DOCTYPE svg PUBLIC "-//W3C//DTD SVG 1.1//EN"
 "http://www.w3.org/Graphics/SVG/1.1/DTD/svg11.dtd">
<!-- Generated by graphviz version 14.1.1 (20251213.1925)
 -->
<!-- Title: GitFlow Pages: 1 -->
<svg width="278pt" height="328pt"
 viewBox="0.00 0.00 278.00 328.00" xmlns="http://www.w3.org/2000/svg" xmlns:xlink="http://www.w3.org/1999/xlink">
<g id="graph0" class="graph" transform="scale(1 1) rotate(0) translate(4 324.4)">
<title>GitFlow</title>
<polygon fill="white" stroke="none" points="-4,4 -4,-324.4 273.77,-324.4 273.77,4 -4,4"/>
<g id="clust1" class="cluster">
<title>cluster_main</title>
<polygon fill="lightgreen" stroke="black" points="22.57,-149.4 22.57,-312.4 67.37,-312.4 67.37,-149.4 22.57,-149.4"/>
<text xml:space="preserve" text-anchor="middle" x="44.97" y="-295.1" font-family="Times New Roman,serif" font-size="14.00">main</text>
</g>
<g id="clust2" class="cluster">
<title>cluster_develop</title>
<polygon fill="lightblue" stroke="black" points="87.37,-170.4 87.37,-286.4 261.77,-286.4 261.77,-170.4 87.37,-170.4"/>
<text xml:space="preserve" text-anchor="middle" x="174.57" y="-269.1" font-family="Times New Roman,serif" font-size="14.00">develop</text>
</g>
<!-- m1 -->
<g id="node1" class="node">
<title>m1</title>
<ellipse fill="none" stroke="black" cx="44.97" cy="-265.4" rx="14.4" ry="14.4"/>
<text xml:space="preserve" text-anchor="middle" x="44.97" y="-262.67" font-family="Times New Roman,serif" font-size="8.00">1.0</text>
</g>
<!-- d1 -->
<g id="node4" class="node">
<title>d1</title>
<ellipse fill="none" stroke="black" cx="109.77" cy="-239.4" rx="14.4" ry="14.4"/>
</g>
<!-- m1&#45;&gt;d1 -->
<g id="edge1" class="edge">
<title>m1&#45;&gt;d1</title>
<path fill="none" stroke="black" stroke-dasharray="5,2" d="M58.68,-260.14C67.19,-256.61 78.59,-251.9 88.36,-247.85"/>
<polygon fill="black" stroke="black" points="89.15,-250.17 94.68,-245.23 87.28,-245.65 89.15,-250.17"/>
</g>
<!-- m2 -->
<g id="node2" class="node">
<title>m2</title>
<ellipse fill="none" stroke="black" cx="44.97" cy="-171.4" rx="14.4" ry="14.4"/>
<text xml:space="preserve" text-anchor="middle" x="44.97" y="-168.68" font-family="Times New Roman,serif" font-size="8.00">1.1</text>
</g>
<!-- h1 -->
<g id="node12" class="node">
<title>h1</title>
<ellipse fill="lightpink" stroke="black" cx="44.97" cy="-124.4" rx="14.4" ry="14.4"/>
<text xml:space="preserve" text-anchor="middle" x="44.97" y="-121.68" font-family="Times New Roman,serif" font-size="8.00">fix</text>
</g>
<!-- m2&#45;&gt;h1 -->
<g id="edge11" class="edge">
<title>m2&#45;&gt;h1</title>
<path fill="none" stroke="red" stroke-dasharray="5,2" d="M44.97,-156.51C44.97,-153.51 44.97,-150.52 44.97,-147.52"/>
<polygon fill="red" stroke="red" points="47.42,-147.6 44.97,-140.6 42.52,-147.6 47.42,-147.6"/>
</g>
<!-- m3 -->
<g id="node3" class="node">
<title>m3</title>
<ellipse fill="none" stroke="black" cx="44.97" cy="-218.4" rx="14.4" ry="14.4"/>
<text xml:space="preserve" text-anchor="middle" x="44.97" y="-215.68" font-family="Times New Roman,serif" font-size="8.00">1.2</text>
</g>
<!-- d2 -->
<g id="node5" class="node">
<title>d2</title>
<ellipse fill="none" stroke="black" cx="174.57" cy="-239.4" rx="14.4" ry="14.4"/>
</g>
<!-- d1&#45;&gt;d2 -->
<g id="edge2" class="edge">
<title>d1&#45;&gt;d2</title>
<path fill="none" stroke="black" d="M124.4,-239.4C132.38,-239.4 142.65,-239.4 151.74,-239.4"/>
<polygon fill="black" stroke="black" points="151.46,-241.85 158.46,-239.4 151.46,-236.95 151.46,-241.85"/>
</g>
<!-- f1 -->
<g id="node9" class="node">
<title>f1</title>
<ellipse fill="lightyellow" stroke="black" cx="109.77" cy="-145.4" rx="14.4" ry="14.4"/>
<text xml:space="preserve" text-anchor="middle" x="109.77" y="-142.68" font-family="Times New Roman,serif" font-size="8.00">feat</text>
</g>
<!-- d1&#45;&gt;f1 -->
<g id="edge3" class="edge">
<title>d1&#45;&gt;f1</title>
<path fill="none" stroke="black" stroke-dasharray="5,2" d="M97.81,-231.11C90.39,-225.19 81.5,-216.51 77.37,-206.4 72.16,-193.65 71.86,-188.03 77.37,-175.4 80.22,-168.88 85.26,-163.14 90.53,-158.48"/>
<polygon fill="black" stroke="black" points="92.06,-160.4 96,-154.12 89,-156.57 92.06,-160.4"/>
</g>
<!-- d3 -->
<g id="node6" class="node">
<title>d3</title>
<ellipse fill="none" stroke="black" cx="239.37" cy="-192.4" rx="14.4" ry="14.4"/>
</g>
<!-- d2&#45;&gt;d3 -->
<g id="edge5" class="edge">
<title>d2&#45;&gt;d3</title>
<path fill="none" stroke="black" d="M186.8,-231C196.18,-223.98 209.71,-213.85 220.57,-205.72"/>
<polygon fill="black" stroke="black" points="221.89,-207.79 226.03,-201.64 218.96,-203.87 221.89,-207.79"/>
</g>
<!-- f2 -->
<g id="node10" class="node">
<title>f2</title>
<ellipse fill="lightyellow" stroke="black" cx="174.57" cy="-14.4" rx="14.4" ry="14.4"/>
<text xml:space="preserve" text-anchor="middle" x="174.57" y="-11.68" font-family="Times New Roman,serif" font-size="8.00">feat</text>
</g>
<!-- d2&#45;&gt;f2 -->
<g id="edge6" class="edge">
<title>d2&#45;&gt;f2</title>
<path fill="none" stroke="black" stroke-dasharray="5,2" d="M162.61,-231.11C155.19,-225.19 146.3,-216.51 142.17,-206.4 118.03,-147.35 147.09,-71.01 164.03,-34.97"/>
<polygon fill="black" stroke="black" points="166.14,-36.24 166.98,-28.88 161.73,-34.11 166.14,-36.24"/>
</g>
<!-- r1 -->
<g id="node13" class="node">
<title>r1</title>
<ellipse fill="plum" stroke="black" cx="44.97" cy="-77.4" rx="14.4" ry="14.4"/>
<text xml:space="preserve" text-anchor="middle" x="44.97" y="-74.68" font-family="Times New Roman,serif" font-size="8.00">rel</text>
</g>
<!-- d3&#45;&gt;r1 -->
<g id="edge8" class="edge">
<title>d3&#45;&gt;r1</title>
<path fill="none" stroke="black" stroke-dasharray="5,2" d="M231.18,-180.08C215.55,-154.69 175.7,-97.11 124.17,-75.4 106.22,-67.84 83.84,-69.38 67.62,-72.19"/>
<polygon fill="black" stroke="black" points="67.19,-69.78 60.8,-73.55 68.14,-74.59 67.19,-69.78"/>
</g>
<!-- d4 -->
<g id="node7" class="node">
<title>d4</title>
<ellipse fill="none" stroke="black" cx="109.77" cy="-192.4" rx="14.4" ry="14.4"/>
</g>
<!-- d5 -->
<g id="node8" class="node">
<title>d5</title>
<ellipse fill="none" stroke="black" cx="174.57" cy="-192.4" rx="14.4" ry="14.4"/>
</g>
<!-- d4&#45;&gt;d5 -->
<g id="edge14" class="edge">
<title>d4&#45;&gt;d5</title>
<path fill="none" stroke="black" d="M124.4,-192.4C132.38,-192.4 142.65,-192.4 151.74,-192.4"/>
<polygon fill="black" stroke="black" points="151.46,-194.85 158.46,-192.4 151.46,-189.95 151.46,-194.85"/>
</g>
<!-- f3 -->
<g id="node11" class="node">
<title>f3</title>
<ellipse fill="lightyellow" stroke="black" cx="109.77" cy="-98.4" rx="14.4" ry="14.4"/>
<text xml:space="preserve" text-anchor="middle" x="109.77" y="-95.68" font-family="Times New Roman,serif" font-size="8.00">feat</text>
</g>
<!-- d4&#45;&gt;f3 -->
<g id="edge15" class="edge">
<title>d4&#45;&gt;f3</title>
<path fill="none" stroke="black" stroke-dasharray="5,2" d="M97.81,-184.11C90.39,-178.19 81.5,-169.51 77.37,-159.4 72.66,-147.88 72.66,-142.92 77.37,-131.4 80.41,-123.98 86,-117.32 91.7,-111.97"/>
<polygon fill="black" stroke="black" points="92.97,-114.11 96.67,-107.68 89.77,-110.4 92.97,-114.11"/>
</g>
<!-- f1&#45;&gt;d2 -->
<g id="edge4" class="edge">
<title>f1&#45;&gt;d2</title>
<path fill="none" stroke="black" d="M118.73,-157.31C129.39,-173.27 148.44,-201.78 161.04,-220.64"/>
<polygon fill="black" stroke="black" points="158.92,-221.87 164.84,-226.33 162.99,-219.15 158.92,-221.87"/>
</g>
<!-- f2&#45;&gt;d3 -->
<g id="edge7" class="edge">
<title>f2&#45;&gt;d3</title>
<path fill="none" stroke="black" d="M182.06,-27.07C184.38,-31.82 186.92,-37.3 188.97,-42.4 206.94,-87.09 223.51,-141.07 232.14,-170.56"/>
<polygon fill="black" stroke="black" points="229.73,-171.05 234.03,-177.08 234.43,-169.68 229.73,-171.05"/>
</g>
<!-- f3&#45;&gt;d5 -->
<g id="edge16" class="edge">
<title>f3&#45;&gt;d5</title>
<path fill="none" stroke="black" d="M118.73,-110.31C129.39,-126.27 148.44,-154.78 161.04,-173.64"/>
<polygon fill="black" stroke="black" points="158.92,-174.87 164.84,-179.33 162.99,-172.15 158.92,-174.87"/>
</g>
<!-- h1&#45;&gt;m3 -->
<g id="edge12" class="edge">
<title>h1&#45;&gt;m3</title>
<path fill="none" stroke="red" d="M31.39,-130.36C21.97,-135.3 10.15,-143.32 4.57,-154.4 -1.62,-166.71 -1.33,-172.95 4.57,-185.4 8.85,-194.42 16.94,-201.79 24.76,-207.26"/>
<polygon fill="red" stroke="red" points="23.26,-209.21 30.47,-210.93 25.9,-205.09 23.26,-209.21"/>
</g>
<!-- h1&#45;&gt;d4 -->
<g id="edge13" class="edge">
<title>h1&#45;&gt;d4</title>
<path fill="none" stroke="red" d="M56.15,-134.07C59.76,-137.58 63.8,-141.61 67.37,-145.4 76.66,-155.26 78.42,-158.23 87.37,-168.4 89.49,-170.8 91.73,-173.34 93.94,-175.82"/>
<polygon fill="red" stroke="red" points="92.09,-177.42 98.57,-181.02 95.74,-174.16 92.09,-177.42"/>
</g>
<!-- r1&#45;&gt;m2 -->
<g id="edge9" class="edge">
<title>r1&#45;&gt;m2</title>
<path fill="none" stroke="black" d="M31.75,-84.06C22.25,-89.65 10.16,-98.62 4.57,-110.4 -0.76,-121.64 -0.76,-127.16 4.57,-138.4 8.85,-147.42 16.94,-154.79 24.76,-160.26"/>
<polygon fill="black" stroke="black" points="23.26,-162.21 30.47,-163.93 25.9,-158.09 23.26,-162.21"/>
</g>
<!-- r1&#45;&gt;d4 -->
<g id="edge10" class="edge">
<title>r1&#45;&gt;d4</title>
<path fill="none" stroke="black" d="M56.21,-86.91C60.17,-91.04 64.43,-96.14 67.37,-101.4 82.52,-128.53 72.22,-141.27 87.37,-168.4 88.93,-171.2 90.87,-173.95 92.93,-176.53"/>
<polygon fill="black" stroke="black" points="91.07,-178.12 97.53,-181.75 94.75,-174.88 91.07,-178.12"/>
</g>
</g>
</svg>
