<?xml version="1.0" encoding="UTF-8" standalone="no"?>
<!DOCTYPE svg PUBLIC "-//W3C//DTD SVG 1.1//EN"
 "http://www.w3.org/Graphics/SVG/1.1/DTD/svg11.dtd">
<!-- Generated by graphviz version 14.1.1 (20251213.1925)
 -->
<!-- Title: APIFlow Pages: 1 -->
<svg width="682pt" height="239pt"
 viewBox="0.00 0.00 682.00 239.00" xmlns="http://www.w3.org/2000/svg" xmlns:xlink="http://www.w3.org/1999/xlink">
<g id="graph0" class="graph" transform="scale(1 1) rotate(0) translate(4 235.17)">
<title>APIFlow</title>
<polygon fill="white" stroke="none" points="-4,4 -4,-235.17 678,-235.17 678,4 -4,4"/>
<!-- Client -->
<g id="node1" class="node">
<title>Client</title>
<polygon fill="lightblue" stroke="black" points="54,-158.42 4,-158.42 0,-154.42 0,-122.42 50,-122.42 54,-126.42 54,-158.42"/>
<polyline fill="none" stroke="black" points="50,-154.42 0,-154.42"/>
<polyline fill="none" stroke="black" points="50,-154.42 50,-122.42"/>
<polyline fill="none" stroke="black" points="50,-154.42 54,-158.42"/>
<text xml:space="preserve" text-anchor="middle" x="27" y="-136.92" font-family="Arial" font-size="10.00">Client</text>
</g>
<!-- Gateway -->
<g id="node2" class="node">
<title>Gateway</title>
<polygon fill="lightyellow" stroke="black" points="292,-158.42 237,-158.42 237,-122.42 292,-122.42 292,-158.42"/>
<text xml:space="preserve" text-anchor="middle" x="264.5" y="-136.92" font-family="Arial" font-size="10.00">Gateway</text>
</g>
<!-- Client&#45;&gt;Gateway -->
<g id="edge1" class="edge">
<title>Client&#45;&gt;Gateway</title>
<path fill="none" stroke="black" d="M54.47,-144.62C60.23,-145.37 66.31,-146.03 72,-146.42 137.18,-150.84 153.81,-150.79 219,-146.42 221.07,-146.28 223.19,-146.11 225.32,-145.9"/>
<polygon fill="black" stroke="black" points="225.68,-149.39 235.23,-144.79 224.9,-142.43 225.68,-149.39"/>
<text xml:space="preserve" text-anchor="middle" x="145.5" y="-169.42" font-family="Times New Roman,serif" font-size="14.00">1. POST /api/orders</text>
<text xml:space="preserve" text-anchor="middle" x="145.5" y="-152.92" font-family="Times New Roman,serif" font-size="14.00">{Authorization: Bearer ...}</text>
</g>
<!-- Gateway&#45;&gt;Client -->
<g id="edge11" class="edge">
<title>Gateway&#45;&gt;Client</title>
<path fill="none" stroke="black" d="M242.74,-122.07C235.69,-116.95 227.44,-112.07 219,-109.42 156.67,-89.85 134.28,-89.68 72,-109.42 67.16,-110.95 62.39,-113.23 57.88,-115.87"/>
<polygon fill="black" stroke="black" points="56.17,-112.81 49.76,-121.24 60.03,-118.64 56.17,-112.81"/>
<text xml:space="preserve" text-anchor="middle" x="145.5" y="-129.12" font-family="Times New Roman,serif" font-size="14.00">11. 201 Created</text>
<text xml:space="preserve" text-anchor="middle" x="145.5" y="-112.62" font-family="Times New Roman,serif" font-size="14.00">{order_id: 456}</text>
</g>
<!-- Auth -->
<g id="node3" class="node">
<title>Auth</title>
<polygon fill="lightgreen" stroke="black" points="489.25,-214.42 435.25,-214.42 435.25,-178.42 489.25,-178.42 489.25,-214.42"/>
<text xml:space="preserve" text-anchor="middle" x="462.25" y="-192.92" font-family="Arial" font-size="10.00">Auth</text>
</g>
<!-- Gateway&#45;&gt;Auth -->
<g id="edge2" class="edge">
<title>Gateway&#45;&gt;Auth</title>
<path fill="none" stroke="black" d="M272.98,-158.84C280.08,-173.62 292.32,-193.34 310,-202.42 345.4,-220.58 391.83,-215.16 423.86,-207.7"/>
<polygon fill="black" stroke="black" points="424.66,-211.11 433.5,-205.27 422.95,-204.32 424.66,-211.11"/>
<text xml:space="preserve" text-anchor="middle" x="363.62" y="-217.87" font-family="Times New Roman,serif" font-size="14.00">2. Validate Token</text>
</g>
<!-- Service -->
<g id="node4" class="node">
<title>Service</title>
<polygon fill="lightcyan" stroke="black" points="489.25,-102.42 435.25,-102.42 435.25,-66.42 489.25,-66.42 489.25,-102.42"/>
<text xml:space="preserve" text-anchor="middle" x="462.25" y="-80.92" font-family="Arial" font-size="10.00">Service</text>
</g>
<!-- Gateway&#45;&gt;Service -->
<g id="edge4" class="edge">
<title>Gateway&#45;&gt;Service</title>
<path fill="none" stroke="black" d="M287.92,-121.92C294.67,-117.18 302.32,-112.54 310,-109.42 320.34,-105.21 382.13,-95.78 423.46,-89.78"/>
<polygon fill="black" stroke="black" points="423.88,-93.25 433.28,-88.36 422.88,-86.32 423.88,-93.25"/>
<text xml:space="preserve" text-anchor="middle" x="363.62" y="-129.12" font-family="Times New Roman,serif" font-size="14.00">4. Forward Request</text>
<text xml:space="preserve" text-anchor="middle" x="363.62" y="-112.62" font-family="Times New Roman,serif" font-size="14.00">+ user context</text>
</g>
<!-- Auth&#45;&gt;Gateway -->
<g id="edge3" class="edge">
<title>Auth&#45;&gt;Gateway</title>
<path fill="none" stroke="black" d="M439.56,-178.24C432.78,-173.38 425.03,-168.6 417.25,-165.42 406.91,-161.19 345.23,-151.8 303.75,-145.81"/>
<polygon fill="black" stroke="black" points="304.29,-142.35 293.89,-144.4 303.29,-149.28 304.29,-142.35"/>
<text xml:space="preserve" text-anchor="middle" x="363.62" y="-185.12" font-family="Times New Roman,serif" font-size="14.00">3. Token Valid</text>
<text xml:space="preserve" text-anchor="middle" x="363.62" y="-168.62" font-family="Times New Roman,serif" font-size="14.00">{user_id: 123}</text>
</g>
<!-- Service&#45;&gt;Gateway -->
<g id="edge10" class="edge">
<title>Service&#45;&gt;Gateway</title>
<path fill="none" stroke="black" d="M440.75,-66.08C433.78,-60.96 425.62,-56.07 417.25,-53.42 371.81,-39.02 350.66,-28.54 310,-53.42 289.55,-65.93 278.12,-91.12 271.98,-111.2"/>
<polygon fill="black" stroke="black" points="268.61,-110.26 269.35,-120.83 275.36,-112.1 268.61,-110.26"/>
<text xml:space="preserve" text-anchor="middle" x="363.62" y="-73.12" font-family="Times New Roman,serif" font-size="14.00">10. Response</text>
<text xml:space="preserve" text-anchor="middle" x="363.62" y="-56.62" font-family="Times New Roman,serif" font-size="14.00">{order_id: 456}</text>
</g>
<!-- Cache -->
<g id="node5" class="node">
<title>Cache</title>
<path fill="pink" stroke="black" d="M672,-139.15C672,-140.95 659.9,-142.42 645,-142.42 630.1,-142.42 618,-140.95 618,-139.15 618,-139.15 618,-109.69 618,-109.69 618,-107.89 630.1,-106.42 645,-106.42 659.9,-106.42 672,-107.89 672,-109.69 672,-109.69 672,-139.15 672,-139.15"/>
<path fill="none" stroke="black" d="M672,-139.15C672,-137.34 659.9,-135.87 645,-135.87 630.1,-135.87 618,-137.34 618,-139.15"/>
<text xml:space="preserve" text-anchor="middle" x="645" y="-120.92" font-family="Arial" font-size="10.00">Cache</text>
</g>
<!-- Service&#45;&gt;Cache -->
<g id="edge5" class="edge">
<title>Service&#45;&gt;Cache</title>
<path fill="none" stroke="black" d="M471.49,-102.8C478.74,-116.5 490.72,-134.21 507.25,-142.42 538.4,-157.89 578.21,-150.01 606.84,-140.3"/>
<polygon fill="black" stroke="black" points="607.98,-143.61 616.18,-136.91 605.58,-137.03 607.98,-143.61"/>
<text xml:space="preserve" text-anchor="middle" x="552.62" y="-154.34" font-family="Times New Roman,serif" font-size="14.00">5. Check Cache</text>
</g>
<!-- Service&#45;&gt;Cache -->
<g id="edge9" class="edge">
<title>Service&#45;&gt;Cache</title>
<path fill="none" stroke="black" d="M489.43,-96.27C495.21,-98.57 501.37,-100.77 507.25,-102.42 540.17,-111.67 578.7,-117.43 606.46,-120.72"/>
<polygon fill="black" stroke="black" points="605.82,-124.17 616.15,-121.82 606.61,-117.22 605.82,-124.17"/>
<text xml:space="preserve" text-anchor="middle" x="552.62" y="-122.86" font-family="Times New Roman,serif" font-size="14.00">9. Update Cache</text>
</g>
<!-- Database -->
<g id="node6" class="node">
<title>Database</title>
<path fill="lightgray" stroke="black" d="M674,-39.15C674,-40.95 661,-42.42 645,-42.42 629,-42.42 616,-40.95 616,-39.15 616,-39.15 616,-9.69 616,-9.69 616,-7.89 629,-6.42 645,-6.42 661,-6.42 674,-7.89 674,-9.69 674,-9.69 674,-39.15 674,-39.15"/>
<path fill="none" stroke="black" d="M674,-39.15C674,-37.34 661,-35.87 645,-35.87 629,-35.87 616,-37.34 616,-39.15"/>
<text xml:space="preserve" text-anchor="middle" x="645" y="-20.92" font-family="Arial" font-size="10.00">Database</text>
</g>
<!-- Service&#45;&gt;Database -->
<g id="edge7" class="edge">
<title>Service&#45;&gt;Database</title>
<path fill="none" stroke="black" d="M488.47,-65.96C494.42,-62.22 500.88,-58.62 507.25,-55.92 538.56,-42.66 576.37,-34.5 604.3,-29.81"/>
<polygon fill="black" stroke="black" points="604.79,-33.28 614.11,-28.25 603.69,-26.36 604.79,-33.28"/>
<text xml:space="preserve" text-anchor="middle" x="552.62" y="-59.12" font-family="Times New Roman,serif" font-size="14.00">7. Query Data</text>
</g>
<!-- Cache&#45;&gt;Service -->
<g id="edge6" class="edge">
<title>Cache&#45;&gt;Service</title>
<path fill="none" stroke="black" stroke-dasharray="5,2" d="M627.94,-106.23C619.84,-98.4 609.33,-90.11 598,-85.92 566.7,-74.35 528.45,-75.21 500.71,-78.23"/>
<polygon fill="black" stroke="black" points="500.51,-74.73 491.02,-79.45 501.38,-81.68 500.51,-74.73"/>
<text xml:space="preserve" text-anchor="middle" x="552.62" y="-89.12" font-family="Times New Roman,serif" font-size="14.00">6. Cache Miss</text>
</g>
<!-- Database&#45;&gt;Service -->
<g id="edge8" class="edge">
<title>Database&#45;&gt;Service</title>
<path fill="none" stroke="black" d="M615.56,-12.49C586.42,-2.26 540.77,8.08 507.25,-10.92 490.43,-20.45 479.35,-39.26 472.51,-55.46"/>
<polygon fill="black" stroke="black" points="469.28,-54.11 468.98,-64.7 475.82,-56.61 469.28,-54.11"/>
<text xml:space="preserve" text-anchor="middle" x="552.62" y="-14.12" font-family="Times New Roman,serif" font-size="14.00">8. Result Set</text>
</g>
</g>
</svg>
