<?xml version="1.0" encoding="UTF-8" standalone="no"?>
<!DOCTYPE svg PUBLIC "-//W3C//DTD SVG 1.1//EN"
 "http://www.w3.org/Graphics/SVG/1.1/DTD/svg11.dtd">
<!-- Generated by graphviz version 14.1.1 (20251213.1925)
 -->
<!-- Title: DataPipeline Pages: 1 -->
<svg width="961pt" height="209pt"
 viewBox="0.00 0.00 961.00 209.00" xmlns="http://www.w3.org/2000/svg" xmlns:xlink="http://www.w3.org/1999/xlink">
<g id="graph0" class="graph" transform="scale(1 1) rotate(0) translate(4 205)">
<title>DataPipeline</title>
<polygon fill="white" stroke="none" points="-4,4 -4,-205 957,-205 957,4 -4,4"/>
<g id="clust1" class="cluster">
<title>cluster_ingest</title>
<polygon fill="lightcyan" stroke="black" points="8,-44 8,-175 176.75,-175 176.75,-44 8,-44"/>
<text xml:space="preserve" text-anchor="middle" x="92.38" y="-157.7" font-family="Times New Roman,serif" font-size="14.00">Data Ingestion</text>
</g>
<g id="clust2" class="cluster">
<title>cluster_process</title>
<polygon fill="lightyellow" stroke="black" points="197.75,-46 197.75,-175 627.25,-175 627.25,-46 197.75,-46"/>
<text xml:space="preserve" text-anchor="middle" x="412.5" y="-157.7" font-family="Times New Roman,serif" font-size="14.00">Processing</text>
</g>
<g id="clust3" class="cluster">
<title>cluster_store</title>
<polygon fill="lightgreen" stroke="black" points="648.25,-46 648.25,-193 844,-193 844,-46 648.25,-46"/>
<text xml:space="preserve" text-anchor="middle" x="746.12" y="-175.7" font-family="Times New Roman,serif" font-size="14.00">Storage</text>
</g>
<g id="clust4" class="cluster">
<title>cluster_serve</title>
<polygon fill="lightpink" stroke="black" points="865,-8 865,-193 945,-193 945,-8 865,-8"/>
<text xml:space="preserve" text-anchor="middle" x="905" y="-175.7" font-family="Times New Roman,serif" font-size="14.00">Serving</text>
</g>
<!-- api -->
<g id="node1" class="node">
<title>api</title>
<polygon fill="none" stroke="black" points="77.75,-142 16,-142 16,-106 77.75,-106 77.75,-142"/>
<text xml:space="preserve" text-anchor="middle" x="46.88" y="-120.5" font-family="Arial" font-size="10.00">REST API</text>
</g>
<!-- kafka -->
<g id="node2" class="node">
<title>kafka</title>
<polygon fill="none" stroke="black" points="168.75,-140 118.75,-140 114.75,-136 114.75,-104 164.75,-104 168.75,-108 168.75,-140"/>
<polyline fill="none" stroke="black" points="164.75,-136 114.75,-136"/>
<polyline fill="none" stroke="black" points="164.75,-136 164.75,-104"/>
<polyline fill="none" stroke="black" points="164.75,-136 168.75,-140"/>
<text xml:space="preserve" text-anchor="middle" x="141.75" y="-124.5" font-family="Arial" font-size="10.00">Kafka</text>
<text xml:space="preserve" text-anchor="middle" x="141.75" y="-112.5" font-family="Arial" font-size="10.00">Topics</text>
</g>
<!-- api&#45;&gt;kafka -->
<g id="edge1" class="edge">
<title>api&#45;&gt;kafka</title>
<path fill="none" stroke="black" d="M78.03,-123.35C86.02,-123.18 94.75,-122.99 103.09,-122.81"/>
<polygon fill="black" stroke="black" points="103.06,-126.31 112.98,-122.6 102.91,-119.31 103.06,-126.31"/>
</g>
<!-- spark -->
<g id="node4" class="node">
<title>spark</title>
<polygon fill="none" stroke="black" points="260,-110 205.75,-110 205.75,-74 260,-74 260,-110"/>
<text xml:space="preserve" text-anchor="middle" x="232.88" y="-94.5" font-family="Arial" font-size="10.00">Spark</text>
<text xml:space="preserve" text-anchor="middle" x="232.88" y="-82.5" font-family="Arial" font-size="10.00">Cleaning</text>
</g>
<!-- kafka&#45;&gt;spark -->
<g id="edge3" class="edge">
<title>kafka&#45;&gt;spark</title>
<path fill="none" stroke="black" d="M169.01,-113.16C177.1,-110.44 186.16,-107.39 194.83,-104.47"/>
<polygon fill="black" stroke="black" points="195.7,-107.87 204.06,-101.36 193.47,-101.24 195.7,-107.87"/>
</g>
<!-- files -->
<g id="node3" class="node">
<title>files</title>
<polygon fill="none" stroke="black" points="73.88,-88 70.88,-92 49.88,-92 46.88,-88 19.88,-88 19.88,-52 73.88,-52 73.88,-88"/>
<text xml:space="preserve" text-anchor="middle" x="46.88" y="-66.5" font-family="Arial" font-size="10.00">S3 Files</text>
</g>
<!-- files&#45;&gt;spark -->
<g id="edge2" class="edge">
<title>files&#45;&gt;spark</title>
<path fill="none" stroke="black" d="M74.24,-73.15C105.57,-76.9 158.11,-83.18 193.84,-87.45"/>
<polygon fill="black" stroke="black" points="193.41,-90.93 203.76,-88.64 194.25,-83.98 193.41,-90.93"/>
</g>
<!-- transform -->
<g id="node5" class="node">
<title>transform</title>
<polygon fill="none" stroke="black" points="357.25,-90 297,-90 297,-54 357.25,-54 357.25,-90"/>
<text xml:space="preserve" text-anchor="middle" x="327.12" y="-74.5" font-family="Arial" font-size="10.00">Data</text>
<text xml:space="preserve" text-anchor="middle" x="327.12" y="-62.5" font-family="Arial" font-size="10.00">Transform</text>
</g>
<!-- spark&#45;&gt;transform -->
<g id="edge4" class="edge">
<title>spark&#45;&gt;transform</title>
<path fill="none" stroke="black" d="M260.06,-86.32C267.99,-84.6 276.89,-82.67 285.52,-80.8"/>
<polygon fill="black" stroke="black" points="286.11,-84.26 295.14,-78.72 284.63,-77.42 286.11,-84.26"/>
</g>
<!-- validate -->
<g id="node6" class="node">
<title>validate</title>
<polygon fill="none" stroke="black" points="444,-130 394.25,-98 444,-66 493.75,-98 444,-130"/>
<text xml:space="preserve" text-anchor="middle" x="444" y="-100.5" font-family="Arial" font-size="10.00">Quality</text>
<text xml:space="preserve" text-anchor="middle" x="444" y="-88.5" font-family="Arial" font-size="10.00">Checks</text>
</g>
<!-- transform&#45;&gt;validate -->
<g id="edge5" class="edge">
<title>transform&#45;&gt;validate</title>
<path fill="none" stroke="black" d="M357.71,-78.7C369.23,-81.3 382.71,-84.36 395.52,-87.25"/>
<polygon fill="black" stroke="black" points="394.53,-90.62 405.06,-89.41 396.08,-83.79 394.53,-90.62"/>
</g>
<!-- validate&#45;&gt;spark -->
<g id="edge7" class="edge">
<title>validate&#45;&gt;spark</title>
<path fill="none" stroke="black" stroke-dasharray="5,2" d="M396.28,-99.79C367.61,-100.53 330.16,-100.83 297,-99 288.77,-98.55 279.96,-97.76 271.62,-96.87"/>
<polygon fill="black" stroke="black" points="272.07,-93.4 261.74,-95.75 271.28,-100.36 272.07,-93.4"/>
<text xml:space="preserve" text-anchor="middle" x="327.12" y="-103.57" font-family="Times New Roman,serif" font-size="14.00">Fail</text>
</g>
<!-- enrich -->
<g id="node7" class="node">
<title>enrich</title>
<polygon fill="none" stroke="black" points="619.25,-116 553.75,-116 553.75,-80 619.25,-80 619.25,-116"/>
<text xml:space="preserve" text-anchor="middle" x="586.5" y="-94.5" font-family="Arial" font-size="10.00">Enrichment</text>
</g>
<!-- validate&#45;&gt;enrich -->
<g id="edge6" class="edge">
<title>validate&#45;&gt;enrich</title>
<path fill="none" stroke="black" d="M494.54,-98C510.15,-98 527.26,-98 542.39,-98"/>
<polygon fill="black" stroke="black" points="542,-101.5 552,-98 542,-94.5 542,-101.5"/>
<text xml:space="preserve" text-anchor="middle" x="523.75" y="-101.2" font-family="Times New Roman,serif" font-size="14.00">Pass</text>
</g>
<!-- lake -->
<g id="node8" class="node">
<title>lake</title>
<path fill="none" stroke="black" d="M731.12,-156C731.12,-158.21 717.45,-160 700.62,-160 683.8,-160 670.12,-158.21 670.12,-156 670.12,-156 670.12,-120 670.12,-120 670.12,-117.79 683.8,-116 700.62,-116 717.45,-116 731.12,-117.79 731.12,-120 731.12,-120 731.12,-156 731.12,-156"/>
<path fill="none" stroke="black" d="M731.12,-156C731.12,-153.79 717.45,-152 700.62,-152 683.8,-152 670.12,-153.79 670.12,-156"/>
<text xml:space="preserve" text-anchor="middle" x="700.62" y="-140.5" font-family="Arial" font-size="10.00">Data Lake</text>
<text xml:space="preserve" text-anchor="middle" x="700.62" y="-128.5" font-family="Arial" font-size="10.00">(Parquet)</text>
</g>
<!-- enrich&#45;&gt;lake -->
<g id="edge8" class="edge">
<title>enrich&#45;&gt;lake</title>
<path fill="none" stroke="black" d="M619.63,-109.46C631.97,-113.86 646.21,-118.94 659.22,-123.59"/>
<polygon fill="black" stroke="black" points="657.78,-126.79 668.37,-126.85 660.13,-120.19 657.78,-126.79"/>
</g>
<!-- warehouse -->
<g id="node9" class="node">
<title>warehouse</title>
<path fill="none" stroke="black" d="M745,-94C745,-96.21 725.11,-98 700.62,-98 676.14,-98 656.25,-96.21 656.25,-94 656.25,-94 656.25,-58 656.25,-58 656.25,-55.79 676.14,-54 700.62,-54 725.11,-54 745,-55.79 745,-58 745,-58 745,-94 745,-94"/>
<path fill="none" stroke="black" d="M745,-94C745,-91.79 725.11,-90 700.62,-90 676.14,-90 656.25,-91.79 656.25,-94"/>
<text xml:space="preserve" text-anchor="middle" x="700.62" y="-78.5" font-family="Arial" font-size="10.00">Data Warehouse</text>
<text xml:space="preserve" text-anchor="middle" x="700.62" y="-66.5" font-family="Arial" font-size="10.00">(Snowflake)</text>
</g>
<!-- enrich&#45;&gt;warehouse -->
<g id="edge9" class="edge">
<title>enrich&#45;&gt;warehouse</title>
<path fill="none" stroke="black" d="M619.63,-91.7C627.46,-90.16 636.06,-88.47 644.62,-86.79"/>
<polygon fill="black" stroke="black" points="645.16,-90.25 654.3,-84.89 643.82,-83.38 645.16,-90.25"/>
</g>
<!-- ml -->
<g id="node12" class="node">
<title>ml</title>
<polygon fill="none" stroke="black" points="937,-106 873,-106 873,-70 937,-70 937,-106"/>
<text xml:space="preserve" text-anchor="middle" x="905" y="-84.5" font-family="Arial" font-size="10.00">ML Models</text>
</g>
<!-- lake&#45;&gt;ml -->
<g id="edge10" class="edge">
<title>lake&#45;&gt;ml</title>
<path fill="none" stroke="black" d="M731.27,-124.82C746.23,-118.62 764.81,-111.6 782,-107 807.86,-100.08 837.53,-95.39 861.13,-92.4"/>
<polygon fill="black" stroke="black" points="861.52,-95.88 871.03,-91.21 860.68,-88.93 861.52,-95.88"/>
</g>
<!-- cache -->
<g id="node10" class="node">
<title>cache</title>
<path fill="none" stroke="black" d="M836,-156C836,-158.21 823.9,-160 809,-160 794.1,-160 782,-158.21 782,-156 782,-156 782,-120 782,-120 782,-117.79 794.1,-116 809,-116 823.9,-116 836,-117.79 836,-120 836,-120 836,-156 836,-156"/>
<path fill="none" stroke="black" d="M836,-156C836,-153.79 823.9,-152 809,-152 794.1,-152 782,-153.79 782,-156"/>
<text xml:space="preserve" text-anchor="middle" x="809" y="-140.5" font-family="Arial" font-size="10.00">Redis</text>
<text xml:space="preserve" text-anchor="middle" x="809" y="-128.5" font-family="Arial" font-size="10.00">Cache</text>
</g>
<!-- warehouse&#45;&gt;cache -->
<g id="edge12" class="edge">
<title>warehouse&#45;&gt;cache</title>
<path fill="none" stroke="black" d="M737.94,-97.16C748.9,-103.56 760.94,-110.57 771.89,-116.95"/>
<polygon fill="black" stroke="black" points="769.88,-119.83 780.28,-121.84 773.4,-113.78 769.88,-119.83"/>
</g>
<!-- bi -->
<g id="node11" class="node">
<title>bi</title>
<polygon fill="none" stroke="black" points="932.88,-52 877.12,-52 877.12,-16 932.88,-16 932.88,-52"/>
<text xml:space="preserve" text-anchor="middle" x="905" y="-36.5" font-family="Arial" font-size="10.00">BI Tools</text>
<text xml:space="preserve" text-anchor="middle" x="905" y="-24.5" font-family="Arial" font-size="10.00">(Tableau)</text>
</g>
<!-- warehouse&#45;&gt;bi -->
<g id="edge11" class="edge">
<title>warehouse&#45;&gt;bi</title>
<path fill="none" stroke="black" d="M745.04,-66.99C780.93,-59.54 831.42,-49.06 865.79,-41.93"/>
<polygon fill="black" stroke="black" points="866.23,-45.41 875.31,-39.95 864.81,-38.56 866.23,-45.41"/>
</g>
<!-- api_out -->
<g id="node13" class="node">
<title>api_out</title>
<polygon fill="none" stroke="black" points="932,-160 878,-160 878,-124 932,-124 932,-160"/>
<text xml:space="preserve" text-anchor="middle" x="905" y="-138.5" font-family="Arial" font-size="10.00">API</text>
</g>
<!-- cache&#45;&gt;api_out -->
<g id="edge13" class="edge">
<title>cache&#45;&gt;api_out</title>
<path fill="none" stroke="black" d="M836.43,-139.12C845.72,-139.52 856.35,-139.97 866.38,-140.4"/>
<polygon fill="black" stroke="black" points="866.11,-143.89 876.25,-140.82 866.41,-136.9 866.11,-143.89"/>
</g>
</g>
</svg>
