<?xml version="1.0" encoding="UTF-8" standalone="no"?>
<!DOCTYPE svg PUBLIC "-//W3C//DTD SVG 1.1//EN"
 "http://www.w3.org/Graphics/SVG/1.1/DTD/svg11.dtd">
<!-- Generated by graphviz version 14.1.1 (20251213.1925)
 -->
<!-- Title: QuickSort Pages: 1 -->
<svg width="540pt" height="585pt"
 viewBox="0.00 0.00 540.00 585.00" xmlns="http://www.w3.org/2000/svg" xmlns:xlink="http://www.w3.org/1999/xlink">
<g id="graph0" class="graph" transform="scale(1 1) rotate(0) translate(4 581)">
<title>QuickSort</title>
<polygon fill="white" stroke="none" points="-4,4 -4,-581 535.5,-581 535.5,4 -4,4"/>
<g id="clust1" class="cluster">
<title>cluster_partition</title>
<polygon fill="lightyellow" stroke="black" points="216.5,-8 216.5,-569 523.5,-569 523.5,-8 216.5,-8"/>
<text xml:space="preserve" text-anchor="middle" x="370" y="-551.7" font-family="Times New Roman,serif" font-size="14.00">partition(arr, low, high)</text>
</g>
<!-- start -->
<g id="node1" class="node">
<title>start</title>
<ellipse fill="lightgreen" stroke="black" cx="137.5" cy="-518.5" rx="70.51" ry="18"/>
<text xml:space="preserve" text-anchor="middle" x="137.5" y="-515" font-family="Arial" font-size="10.00">quicksort(arr, low, high)</text>
</g>
<!-- check -->
<g id="node2" class="node">
<title>check</title>
<polygon fill="none" stroke="black" points="137.5,-463.5 81.16,-445.5 137.5,-427.5 193.84,-445.5 137.5,-463.5"/>
<text xml:space="preserve" text-anchor="middle" x="137.5" y="-442" font-family="Arial" font-size="10.00">low &lt; high?</text>
</g>
<!-- start&#45;&gt;check -->
<g id="edge1" class="edge">
<title>start&#45;&gt;check</title>
<path fill="none" stroke="black" d="M137.5,-500.31C137.5,-492.84 137.5,-483.87 137.5,-475.42"/>
<polygon fill="black" stroke="black" points="141,-475.54 137.5,-465.54 134,-475.54 141,-475.54"/>
</g>
<!-- partition -->
<g id="node3" class="node">
<title>partition</title>
<polygon fill="none" stroke="black" points="145,-375 0,-375 0,-339 145,-339 145,-375"/>
<text xml:space="preserve" text-anchor="middle" x="72.5" y="-353.5" font-family="Arial" font-size="10.00">pivot = partition(arr, low, high)</text>
</g>
<!-- check&#45;&gt;partition -->
<g id="edge2" class="edge">
<title>check&#45;&gt;partition</title>
<path fill="none" stroke="black" d="M127.06,-430.6C117.72,-418.18 103.8,-399.65 92.35,-384.42"/>
<polygon fill="black" stroke="black" points="95.33,-382.55 86.52,-376.66 89.73,-386.75 95.33,-382.55"/>
<text xml:space="preserve" text-anchor="middle" x="120.95" y="-396.2" font-family="Times New Roman,serif" font-size="14.00">Yes</text>
</g>
<!-- done -->
<g id="node6" class="node">
<title>done</title>
<ellipse fill="lightpink" stroke="black" cx="125.5" cy="-107" rx="27" ry="18"/>
<text xml:space="preserve" text-anchor="middle" x="125.5" y="-103.5" font-family="Arial" font-size="10.00">return</text>
</g>
<!-- check&#45;&gt;done -->
<g id="edge3" class="edge">
<title>check&#45;&gt;done</title>
<path fill="none" stroke="black" d="M147.53,-430.25C158.18,-413.7 173.5,-385.16 173.5,-358 173.5,-358 173.5,-358 173.5,-194.5 173.5,-170.95 159.73,-147.82 146.95,-131.41"/>
<polygon fill="black" stroke="black" points="149.67,-129.22 140.61,-123.74 144.28,-133.68 149.67,-129.22"/>
<text xml:space="preserve" text-anchor="middle" x="181.75" y="-278.95" font-family="Times New Roman,serif" font-size="14.00">No</text>
</g>
<!-- left -->
<g id="node4" class="node">
<title>left</title>
<polygon fill="none" stroke="black" points="137.75,-302 9.25,-302 9.25,-266 137.75,-266 137.75,-302"/>
<text xml:space="preserve" text-anchor="middle" x="73.5" y="-280.5" font-family="Arial" font-size="10.00">quicksort(arr, low, pivot&#45;1)</text>
</g>
<!-- partition&#45;&gt;left -->
<g id="edge4" class="edge">
<title>partition&#45;&gt;left</title>
<path fill="none" stroke="black" d="M72.74,-338.81C72.85,-331.23 72.98,-322.1 73.1,-313.54"/>
<polygon fill="black" stroke="black" points="76.6,-313.59 73.24,-303.54 69.6,-313.49 76.6,-313.59"/>
</g>
<!-- right -->
<g id="node5" class="node">
<title>right</title>
<polygon fill="none" stroke="black" points="144.12,-213.5 8.88,-213.5 8.88,-177.5 144.12,-177.5 144.12,-213.5"/>
<text xml:space="preserve" text-anchor="middle" x="76.5" y="-192" font-family="Arial" font-size="10.00">quicksort(arr, pivot+1, high)</text>
</g>
<!-- left&#45;&gt;right -->
<g id="edge5" class="edge">
<title>left&#45;&gt;right</title>
<path fill="none" stroke="black" d="M74.09,-265.91C74.5,-254.26 75.04,-238.55 75.51,-225.02"/>
<polygon fill="black" stroke="black" points="79,-225.48 75.85,-215.36 72,-225.24 79,-225.48"/>
</g>
<!-- right&#45;&gt;done -->
<g id="edge6" class="edge">
<title>right&#45;&gt;done</title>
<path fill="none" stroke="black" d="M86.18,-177.41C93.23,-164.97 102.9,-147.9 110.88,-133.81"/>
<polygon fill="black" stroke="black" points="113.71,-135.92 115.59,-125.49 107.62,-132.47 113.71,-135.92"/>
</g>
<!-- p_start -->
<g id="node7" class="node">
<title>p_start</title>
<ellipse fill="none" stroke="black" cx="436.5" cy="-518.5" rx="27" ry="18"/>
<text xml:space="preserve" text-anchor="middle" x="436.5" y="-515" font-family="Arial" font-size="10.00">Start</text>
</g>
<!-- p_pivot -->
<g id="node8" class="node">
<title>p_pivot</title>
<polygon fill="none" stroke="black" points="478.62,-463.5 394.38,-463.5 394.38,-427.5 478.62,-427.5 478.62,-463.5"/>
<text xml:space="preserve" text-anchor="middle" x="436.5" y="-442" font-family="Arial" font-size="10.00">pivot = arr[high]</text>
</g>
<!-- p_start&#45;&gt;p_pivot -->
<g id="edge7" class="edge">
<title>p_start&#45;&gt;p_pivot</title>
<path fill="none" stroke="black" d="M436.5,-500.31C436.5,-492.73 436.5,-483.6 436.5,-475.04"/>
<polygon fill="black" stroke="black" points="440,-475.04 436.5,-465.04 433,-475.04 440,-475.04"/>
</g>
<!-- p_init -->
<g id="node9" class="node">
<title>p_init</title>
<polygon fill="none" stroke="black" points="466.25,-375 406.75,-375 406.75,-339 466.25,-339 466.25,-375"/>
<text xml:space="preserve" text-anchor="middle" x="436.5" y="-353.5" font-family="Arial" font-size="10.00">i = low &#45; 1</text>
</g>
<!-- p_pivot&#45;&gt;p_init -->
<g id="edge8" class="edge">
<title>p_pivot&#45;&gt;p_init</title>
<path fill="none" stroke="black" d="M436.5,-427.41C436.5,-415.76 436.5,-400.05 436.5,-386.52"/>
<polygon fill="black" stroke="black" points="440,-386.86 436.5,-376.86 433,-386.86 440,-386.86"/>
</g>
<!-- p_loop -->
<g id="node10" class="node">
<title>p_loop</title>
<polygon fill="none" stroke="black" points="436.5,-302 391,-284 436.5,-266 482,-284 436.5,-302"/>
<text xml:space="preserve" text-anchor="middle" x="436.5" y="-280.5" font-family="Arial" font-size="10.00">j &lt; high?</text>
</g>
<!-- p_init&#45;&gt;p_loop -->
<g id="edge9" class="edge">
<title>p_init&#45;&gt;p_loop</title>
<path fill="none" stroke="black" d="M436.5,-338.81C436.5,-331.34 436.5,-322.37 436.5,-313.92"/>
<polygon fill="black" stroke="black" points="440,-314.04 436.5,-304.04 433,-314.04 440,-314.04"/>
</g>
<!-- p_compare -->
<g id="node11" class="node">
<title>p_compare</title>
<polygon fill="none" stroke="black" points="292.5,-213.5 224.68,-195.5 292.5,-177.5 360.32,-195.5 292.5,-213.5"/>
<text xml:space="preserve" text-anchor="middle" x="292.5" y="-192" font-family="Arial" font-size="10.00">arr[j] &lt;= pivot?</text>
</g>
<!-- p_loop&#45;&gt;p_compare -->
<g id="edge10" class="edge">
<title>p_loop&#45;&gt;p_compare</title>
<path fill="none" stroke="black" d="M419.13,-272.57C395.17,-258.18 351.65,-232.03 322.4,-214.46"/>
<polygon fill="black" stroke="black" points="324.38,-211.57 314.01,-209.42 320.78,-217.57 324.38,-211.57"/>
<text xml:space="preserve" text-anchor="middle" x="387.52" y="-234.7" font-family="Times New Roman,serif" font-size="14.00">Yes</text>
</g>
<!-- p_swap_final -->
<g id="node14" class="node">
<title>p_swap_final</title>
<polygon fill="none" stroke="black" points="495.12,-213.5 377.88,-213.5 377.88,-177.5 495.12,-177.5 495.12,-213.5"/>
<text xml:space="preserve" text-anchor="middle" x="436.5" y="-192" font-family="Arial" font-size="10.00">swap(arr[i+1], arr[high])</text>
</g>
<!-- p_loop&#45;&gt;p_swap_final -->
<g id="edge11" class="edge">
<title>p_loop&#45;&gt;p_swap_final</title>
<path fill="none" stroke="black" d="M436.5,-265.5C436.5,-254.01 436.5,-238.7 436.5,-225.43"/>
<polygon fill="black" stroke="black" points="440,-225.49 436.5,-215.49 433,-225.49 440,-225.49"/>
<text xml:space="preserve" text-anchor="middle" x="444.75" y="-234.7" font-family="Times New Roman,serif" font-size="14.00">No</text>
</g>
<!-- p_swap_inner -->
<g id="node12" class="node">
<title>p_swap_inner</title>
<polygon fill="none" stroke="black" points="333.62,-125 243.38,-125 243.38,-89 333.62,-89 333.62,-125"/>
<text xml:space="preserve" text-anchor="middle" x="288.5" y="-109.5" font-family="Arial" font-size="10.00">i++</text>
<text xml:space="preserve" text-anchor="middle" x="288.5" y="-97.5" font-family="Arial" font-size="10.00">swap(arr[i], arr[j])</text>
</g>
<!-- p_compare&#45;&gt;p_swap_inner -->
<g id="edge12" class="edge">
<title>p_compare&#45;&gt;p_swap_inner</title>
<path fill="none" stroke="black" d="M291.71,-177.41C291.17,-165.76 290.44,-150.05 289.82,-136.52"/>
<polygon fill="black" stroke="black" points="293.33,-136.69 289.37,-126.86 286.34,-137.01 293.33,-136.69"/>
<text xml:space="preserve" text-anchor="middle" x="300.98" y="-146.2" font-family="Times New Roman,serif" font-size="14.00">Yes</text>
</g>
<!-- p_inc_j -->
<g id="node13" class="node">
<title>p_inc_j</title>
<polygon fill="none" stroke="black" points="396.5,-52 342.5,-52 342.5,-16 396.5,-16 396.5,-52"/>
<text xml:space="preserve" text-anchor="middle" x="369.5" y="-30.5" font-family="Arial" font-size="10.00">j++</text>
</g>
<!-- p_compare&#45;&gt;p_inc_j -->
<g id="edge13" class="edge">
<title>p_compare&#45;&gt;p_inc_j</title>
<path fill="none" stroke="black" d="M304.74,-180.49C315.93,-167.06 332.26,-145.8 342.5,-125 352.19,-105.31 359.16,-81.46 363.58,-63.26"/>
<polygon fill="black" stroke="black" points="366.95,-64.22 365.78,-53.69 360.13,-62.65 366.95,-64.22"/>
<text xml:space="preserve" text-anchor="middle" x="364.72" y="-101.95" font-family="Times New Roman,serif" font-size="14.00">No</text>
</g>
<!-- p_swap_inner&#45;&gt;p_inc_j -->
<g id="edge14" class="edge">
<title>p_swap_inner&#45;&gt;p_inc_j</title>
<path fill="none" stroke="black" d="M308.11,-88.81C318.08,-80.07 330.39,-69.28 341.35,-59.67"/>
<polygon fill="black" stroke="black" points="343.44,-62.5 348.65,-53.27 338.83,-57.23 343.44,-62.5"/>
</g>
<!-- p_inc_j&#45;&gt;p_loop -->
<g id="edge15" class="edge">
<title>p_inc_j&#45;&gt;p_loop</title>
<path fill="none" stroke="black" d="M396.65,-41.1C422.26,-48.26 459.85,-62.65 481.5,-89 483.3,-91.19 518.87,-178.28 504.5,-213.5 495.81,-234.8 477.11,-253.11 461.51,-265.59"/>
<polygon fill="black" stroke="black" points="459.83,-262.47 453.99,-271.32 464.07,-268.04 459.83,-262.47"/>
</g>
<!-- p_return -->
<g id="node15" class="node">
<title>p_return</title>
<ellipse fill="none" stroke="black" cx="438.5" cy="-107" rx="34.43" ry="18"/>
<text xml:space="preserve" text-anchor="middle" x="438.5" y="-103.5" font-family="Arial" font-size="10.00">return i+1</text>
</g>
<!-- p_swap_final&#45;&gt;p_return -->
<g id="edge16" class="edge">
<title>p_swap_final&#45;&gt;p_return</title>
<path fill="none" stroke="black" d="M436.9,-177.41C437.16,-165.76 437.53,-150.05 437.84,-136.52"/>
<polygon fill="black" stroke="black" points="441.33,-136.94 438.06,-126.86 434.33,-136.78 441.33,-136.94"/>
</g>
</g>
</svg>
