<?xml version="1.0" encoding="UTF-8" standalone="no"?>
<!DOCTYPE svg PUBLIC "-//W3C//DTD SVG 1.1//EN"
 "http://www.w3.org/Graphics/SVG/1.1/DTD/svg11.dtd">
<!-- Generated by graphviz version 14.1.1 (20251213.1925)
 -->
<!-- Title: RegexDFA Pages: 1 -->
<svg width="672pt" height="186pt"
 viewBox="0.00 0.00 672.00 186.00" xmlns="http://www.w3.org/2000/svg" xmlns:xlink="http://www.w3.org/1999/xlink">
<g id="graph0" class="graph" transform="scale(1 1) rotate(0) translate(4 181.6)">
<title>RegexDFA</title>
<polygon fill="white" stroke="none" points="-4,4 -4,-181.6 667.8,-181.6 667.8,4 -4,4"/>
<g id="clust1" class="cluster">
<title>cluster_legend</title>
<polygon fill="white" stroke="black" points="8,-38.6 8,-169.6 276.25,-169.6 276.25,-38.6 8,-38.6"/>
<text xml:space="preserve" text-anchor="middle" x="142.12" y="-152.3" font-family="Times New Roman,serif" font-size="14.00">Legend</text>
</g>
<!-- start -->
<g id="node1" class="node">
<title>start</title>
<ellipse fill="black" stroke="black" cx="142.12" cy="-21.6" rx="7.2" ry="7.2"/>
</g>
<!-- q0 -->
<g id="node2" class="node">
<title>q0</title>
<ellipse fill="none" stroke="black" cx="326.85" cy="-21.6" rx="21.6" ry="21.6"/>
<text xml:space="preserve" text-anchor="middle" x="326.85" y="-16.17" font-family="Arial Bold" font-size="14.00">q0</text>
</g>
<!-- start&#45;&gt;q0 -->
<g id="edge1" class="edge">
<title>start&#45;&gt;q0</title>
<path fill="none" stroke="black" d="M149.63,-21.6C172.34,-21.6 249.15,-21.6 293.51,-21.6"/>
<polygon fill="black" stroke="black" points="293.31,-25.1 303.31,-21.6 293.31,-18.1 293.31,-25.1"/>
</g>
<!-- q1 -->
<g id="node3" class="node">
<title>q1</title>
<ellipse fill="none" stroke="black" cx="412.05" cy="-55.6" rx="21.6" ry="21.6"/>
<text xml:space="preserve" text-anchor="middle" x="412.05" y="-50.17" font-family="Arial Bold" font-size="14.00">q1</text>
</g>
<!-- q0&#45;&gt;q1 -->
<g id="edge2" class="edge">
<title>q0&#45;&gt;q1</title>
<path fill="none" stroke="black" d="M347.15,-29.49C357.26,-33.62 369.87,-38.77 381.21,-43.41"/>
<polygon fill="black" stroke="black" points="379.59,-46.52 390.17,-47.07 382.24,-40.04 379.59,-46.52"/>
<text xml:space="preserve" text-anchor="middle" x="369.45" y="-42.82" font-family="Times New Roman,serif" font-size="14.00">a</text>
</g>
<!-- qerr -->
<g id="node5" class="node">
<title>qerr</title>
<ellipse fill="lightgray" stroke="black" cx="642.2" cy="-51.6" rx="21.6" ry="21.6"/>
<text xml:space="preserve" text-anchor="middle" x="642.2" y="-46.17" font-family="Arial Bold" font-size="14.00">∅</text>
</g>
<!-- q0&#45;&gt;qerr -->
<g id="edge3" class="edge">
<title>q0&#45;&gt;qerr</title>
<path fill="none" stroke="black" d="M348.56,-21.57C369.91,-21.68 404.16,-22.27 433.65,-24.6 496.16,-29.54 568.7,-40.09 609.35,-46.44"/>
<polygon fill="black" stroke="black" points="608.73,-49.89 619.16,-47.99 609.83,-42.97 608.73,-49.89"/>
<text xml:space="preserve" text-anchor="middle" x="465.15" y="-31.94" font-family="Times New Roman,serif" font-size="14.00">b,c,d</text>
</g>
<!-- q1&#45;&gt;q1 -->
<g id="edge4" class="edge">
<title>q1&#45;&gt;q1</title>
<path fill="none" stroke="black" d="M404.3,-75.97C403.23,-86.14 405.81,-95.2 412.05,-95.2 415.76,-95.2 418.17,-92 419.3,-87.28"/>
<polygon fill="black" stroke="black" points="422.79,-87.63 419.73,-77.49 415.79,-87.32 422.79,-87.63"/>
<text xml:space="preserve" text-anchor="middle" x="412.05" y="-98.4" font-family="Times New Roman,serif" font-size="14.00">b,c</text>
</g>
<!-- q2 -->
<g id="node4" class="node">
<title>q2</title>
<ellipse fill="none" stroke="black" cx="522.25" cy="-111.6" rx="21.6" ry="21.6"/>
<ellipse fill="none" stroke="black" cx="522.25" cy="-111.6" rx="25.6" ry="25.6"/>
<text xml:space="preserve" text-anchor="middle" x="522.25" y="-106.17" font-family="Arial Bold" font-size="14.00">q2</text>
</g>
<!-- q1&#45;&gt;q2 -->
<g id="edge5" class="edge">
<title>q1&#45;&gt;q2</title>
<path fill="none" stroke="black" d="M431.4,-65.1C447.1,-73.22 470.07,-85.11 488.85,-94.83"/>
<polygon fill="black" stroke="black" points="487.22,-97.93 497.71,-99.42 490.44,-91.71 487.22,-97.93"/>
<text xml:space="preserve" text-anchor="middle" x="465.15" y="-91.82" font-family="Times New Roman,serif" font-size="14.00">d</text>
</g>
<!-- q1&#45;&gt;qerr -->
<g id="edge6" class="edge">
<title>q1&#45;&gt;qerr</title>
<path fill="none" stroke="black" d="M434.1,-55.23C474.09,-54.53 561.24,-53 608.75,-52.17"/>
<polygon fill="black" stroke="black" points="608.75,-55.67 618.68,-51.99 608.62,-48.67 608.75,-55.67"/>
<text xml:space="preserve" text-anchor="middle" x="522.25" y="-57.33" font-family="Times New Roman,serif" font-size="14.00">a</text>
</g>
<!-- q2&#45;&gt;qerr -->
<g id="edge7" class="edge">
<title>q2&#45;&gt;qerr</title>
<path fill="none" stroke="black" d="M545.71,-100.17C564.61,-90.56 591.75,-76.75 612.27,-66.32"/>
<polygon fill="black" stroke="black" points="613.65,-69.54 620.97,-61.89 610.47,-63.3 613.65,-69.54"/>
<text xml:space="preserve" text-anchor="middle" x="584.22" y="-91.94" font-family="Times New Roman,serif" font-size="14.00">a,b,c,d</text>
</g>
<!-- qerr&#45;&gt;qerr -->
<g id="edge8" class="edge">
<title>qerr&#45;&gt;qerr</title>
<path fill="none" stroke="black" d="M631.85,-70.75C629.92,-81.4 633.37,-91.2 642.2,-91.2 647.72,-91.2 651.14,-87.37 652.45,-81.9"/>
<polygon fill="black" stroke="black" points="655.95,-82.29 652.54,-72.26 648.95,-82.23 655.95,-82.29"/>
<text xml:space="preserve" text-anchor="middle" x="642.2" y="-94.4" font-family="Times New Roman,serif" font-size="14.00">a,b,c,d</text>
</g>
<!-- leg1 -->
<g id="node6" class="node">
<title>leg1</title>
<text xml:space="preserve" text-anchor="middle" x="142.12" y="-59.17" font-family="Arial Bold" font-size="14.00">Pattern: a(b|c)*d</text>
</g>
<!-- leg2 -->
<g id="node7" class="node">
<title>leg2</title>
<text xml:space="preserve" text-anchor="middle" x="142.12" y="-113.17" font-family="Arial Bold" font-size="14.00">Accepts: ad, abd, acd, abbd, abcd, ...</text>
</g>
</g>
</svg>
