<?xml version="1.0" encoding="UTF-8" standalone="no"?>
<!DOCTYPE svg PUBLIC "-//W3C//DTD SVG 1.1//EN"
 "http://www.w3.org/Graphics/SVG/1.1/DTD/svg11.dtd">
<!-- Generated by graphviz version 14.1.1 (20251213.1925)
 -->
<!-- Title: MindMap Pages: 1 -->
<svg width="807pt" height="755pt"
 viewBox="0.00 0.00 807.00 755.00" xmlns="http://www.w3.org/2000/svg" xmlns:xlink="http://www.w3.org/1999/xlink">
<g id="graph0" class="graph" transform="scale(1 1) rotate(0) translate(4 751.14)">
<title>MindMap</title>
<polygon fill="white" stroke="none" points="-4,4 -4,-751.14 803.14,-751.14 803.14,4 -4,4"/>
<!-- center -->
<g id="node1" class="node">
<title>center</title>
<polygon fill="gold" stroke="black" points="424.44,-393.32 355.19,-393.32 355.19,-353.82 424.44,-353.82 424.44,-393.32"/>
<text xml:space="preserve" text-anchor="middle" x="389.82" y="-376.02" font-family="Arial" font-size="14.00">Software</text>
<text xml:space="preserve" text-anchor="middle" x="389.82" y="-360.27" font-family="Arial" font-size="14.00">Project</text>
</g>
<!-- planning -->
<g id="node2" class="node">
<title>planning</title>
<polygon fill="lightblue" stroke="black" points="569.69,-497.37 501.19,-497.37 501.19,-461.37 569.69,-461.37 569.69,-497.37"/>
<text xml:space="preserve" text-anchor="middle" x="535.44" y="-473.94" font-family="Arial" font-size="14.00">Planning</text>
</g>
<!-- center&#45;&gt;planning -->
<g id="edge1" class="edge">
<title>center&#45;&gt;planning</title>
<path fill="none" stroke="black" d="M417.55,-393.72C441.26,-410.94 475.48,-435.81 500.95,-454.31"/>
<polygon fill="black" stroke="black" points="498.87,-457.13 509.02,-460.17 502.99,-451.46 498.87,-457.13"/>
</g>
<!-- design -->
<g id="node3" class="node">
<title>design</title>
<polygon fill="lightgreen" stroke="black" points="363.19,-562.76 305.19,-562.76 305.19,-526.76 363.19,-526.76 363.19,-562.76"/>
<text xml:space="preserve" text-anchor="middle" x="334.19" y="-539.33" font-family="Arial" font-size="14.00">Design</text>
</g>
<!-- center&#45;&gt;design -->
<g id="edge2" class="edge">
<title>center&#45;&gt;design</title>
<path fill="none" stroke="black" d="M383.33,-393.54C373.54,-423.65 354.96,-480.84 343.67,-515.61"/>
<polygon fill="black" stroke="black" points="340.37,-514.44 340.6,-525.03 347.02,-516.6 340.37,-514.44"/>
</g>
<!-- develop -->
<g id="node4" class="node">
<title>develop</title>
<polygon fill="lightyellow" stroke="black" points="257.94,-391.57 161.69,-391.57 161.69,-355.57 257.94,-355.57 257.94,-391.57"/>
<text xml:space="preserve" text-anchor="middle" x="209.82" y="-368.14" font-family="Arial" font-size="14.00">Development</text>
</g>
<!-- center&#45;&gt;develop -->
<g id="edge3" class="edge">
<title>center&#45;&gt;develop</title>
<path fill="none" stroke="black" d="M355.11,-373.57C330.96,-373.57 298.13,-373.57 269.79,-373.57"/>
<polygon fill="black" stroke="black" points="269.88,-370.07 259.88,-373.57 269.88,-377.07 269.88,-370.07"/>
</g>
<!-- testing -->
<g id="node5" class="node">
<title>testing</title>
<polygon fill="lightpink" stroke="black" points="363.57,-220.38 304.82,-220.38 304.82,-184.38 363.57,-184.38 363.57,-220.38"/>
<text xml:space="preserve" text-anchor="middle" x="334.19" y="-196.95" font-family="Arial" font-size="14.00">Testing</text>
</g>
<!-- center&#45;&gt;testing -->
<g id="edge4" class="edge">
<title>center&#45;&gt;testing</title>
<path fill="none" stroke="black" d="M383.33,-353.6C373.54,-323.48 354.96,-266.29 343.67,-231.52"/>
<polygon fill="black" stroke="black" points="347.02,-230.53 340.6,-222.1 340.37,-232.7 347.02,-230.53"/>
</g>
<!-- deploy -->
<g id="node6" class="node">
<title>deploy</title>
<polygon fill="plum" stroke="black" points="579.82,-285.77 491.07,-285.77 491.07,-249.77 579.82,-249.77 579.82,-285.77"/>
<text xml:space="preserve" text-anchor="middle" x="535.44" y="-262.34" font-family="Arial" font-size="14.00">Deployment</text>
</g>
<!-- center&#45;&gt;deploy -->
<g id="edge5" class="edge">
<title>center&#45;&gt;deploy</title>
<path fill="none" stroke="black" d="M417.55,-353.42C441.26,-336.19 475.48,-311.33 500.95,-292.82"/>
<polygon fill="black" stroke="black" points="502.99,-295.67 509.02,-286.96 498.87,-290.01 502.99,-295.67"/>
</g>
<!-- reqs -->
<g id="node7" class="node">
<title>reqs</title>
<path fill="none" stroke="black" d="M783.76,-447.88C783.76,-447.88 707.01,-447.88 707.01,-447.88 701.01,-447.88 695.01,-441.88 695.01,-435.88 695.01,-435.88 695.01,-423.88 695.01,-423.88 695.01,-417.88 701.01,-411.88 707.01,-411.88 707.01,-411.88 783.76,-411.88 783.76,-411.88 789.76,-411.88 795.76,-417.88 795.76,-423.88 795.76,-423.88 795.76,-435.88 795.76,-435.88 795.76,-441.88 789.76,-447.88 783.76,-447.88"/>
<text xml:space="preserve" text-anchor="middle" x="745.39" y="-424.46" font-family="Arial" font-size="14.00">Requirements</text>
</g>
<!-- planning&#45;&gt;reqs -->
<g id="edge6" class="edge">
<title>planning&#45;&gt;reqs</title>
<path fill="none" stroke="black" d="M570.11,-471.2C600.82,-463.96 646.4,-453.22 683.38,-444.5"/>
<polygon fill="black" stroke="black" points="684.15,-447.91 693.08,-442.21 682.54,-441.1 684.15,-447.91"/>
</g>
<!-- scope -->
<g id="node8" class="node">
<title>scope</title>
<path fill="none" stroke="black" d="M725.71,-555C725.71,-555 695.46,-555 695.46,-555 689.46,-555 683.46,-549 683.46,-543 683.46,-543 683.46,-531 683.46,-531 683.46,-525 689.46,-519 695.46,-519 695.46,-519 725.71,-519 725.71,-519 731.71,-519 737.71,-525 737.71,-531 737.71,-531 737.71,-543 737.71,-543 737.71,-549 731.71,-555 725.71,-555"/>
<text xml:space="preserve" text-anchor="middle" x="710.58" y="-531.58" font-family="Arial" font-size="14.00">Scope</text>
</g>
<!-- planning&#45;&gt;scope -->
<g id="edge7" class="edge">
<title>planning&#45;&gt;scope</title>
<path fill="none" stroke="black" d="M570.04,-490.76C599.52,-500.46 641.82,-514.38 672.31,-524.41"/>
<polygon fill="black" stroke="black" points="670.92,-527.64 681.52,-527.44 673.11,-520.99 670.92,-527.64"/>
</g>
<!-- timeline -->
<g id="node9" class="node">
<title>timeline</title>
<path fill="none" stroke="black" d="M666.25,-646.13C666.25,-646.13 622.5,-646.13 622.5,-646.13 616.5,-646.13 610.5,-640.13 610.5,-634.13 610.5,-634.13 610.5,-622.13 610.5,-622.13 610.5,-616.13 616.5,-610.13 622.5,-610.13 622.5,-610.13 666.25,-610.13 666.25,-610.13 672.25,-610.13 678.25,-616.13 678.25,-622.13 678.25,-622.13 678.25,-634.13 678.25,-634.13 678.25,-640.13 672.25,-646.13 666.25,-646.13"/>
<text xml:space="preserve" text-anchor="middle" x="644.38" y="-622.7" font-family="Arial" font-size="14.00">Timeline</text>
</g>
<!-- planning&#45;&gt;timeline -->
<g id="edge8" class="edge">
<title>planning&#45;&gt;timeline</title>
<path fill="none" stroke="black" d="M548.8,-497.61C567.66,-523.37 602.26,-570.62 624.25,-600.64"/>
<polygon fill="black" stroke="black" points="621.28,-602.52 630.02,-608.52 626.93,-598.38 621.28,-602.52"/>
</g>
<!-- budget -->
<g id="node10" class="node">
<title>budget</title>
<path fill="none" stroke="black" d="M570.63,-712.33C570.63,-712.33 535.88,-712.33 535.88,-712.33 529.88,-712.33 523.88,-706.33 523.88,-700.33 523.88,-700.33 523.88,-688.33 523.88,-688.33 523.88,-682.33 529.88,-676.33 535.88,-676.33 535.88,-676.33 570.63,-676.33 570.63,-676.33 576.63,-676.33 582.63,-682.33 582.63,-688.33 582.63,-688.33 582.63,-700.33 582.63,-700.33 582.63,-706.33 576.63,-712.33 570.63,-712.33"/>
<text xml:space="preserve" text-anchor="middle" x="553.25" y="-688.91" font-family="Arial" font-size="14.00">Budget</text>
</g>
<!-- planning&#45;&gt;budget -->
<g id="edge9" class="edge">
<title>planning&#45;&gt;budget</title>
<path fill="none" stroke="black" d="M536.96,-497.7C540.04,-534.9 547.06,-619.56 550.8,-664.7"/>
<polygon fill="black" stroke="black" points="547.3,-664.86 551.61,-674.54 554.28,-664.29 547.3,-664.86"/>
</g>
<!-- arch -->
<g id="node11" class="node">
<title>arch</title>
<path fill="none" stroke="black" d="M478.13,-747.14C478.13,-747.14 414.13,-747.14 414.13,-747.14 408.13,-747.14 402.13,-741.14 402.13,-735.14 402.13,-735.14 402.13,-723.14 402.13,-723.14 402.13,-717.14 408.13,-711.14 414.13,-711.14 414.13,-711.14 478.13,-711.14 478.13,-711.14 484.13,-711.14 490.13,-717.14 490.13,-723.14 490.13,-723.14 490.13,-735.14 490.13,-735.14 490.13,-741.14 484.13,-747.14 478.13,-747.14"/>
<text xml:space="preserve" text-anchor="middle" x="446.13" y="-723.71" font-family="Arial" font-size="14.00">Architecture</text>
</g>
<!-- design&#45;&gt;arch -->
<g id="edge10" class="edge">
<title>design&#45;&gt;arch</title>
<path fill="none" stroke="black" d="M345.34,-563.11C365.03,-595.55 406.1,-663.2 429.28,-701.38"/>
<polygon fill="black" stroke="black" points="426.07,-702.83 434.25,-709.56 432.05,-699.2 426.07,-702.83"/>
</g>
<!-- uiux -->
<g id="node12" class="node">
<title>uiux</title>
<path fill="none" stroke="black" d="M348.5,-747.14C348.5,-747.14 318.5,-747.14 318.5,-747.14 312.5,-747.14 306.5,-741.14 306.5,-735.14 306.5,-735.14 306.5,-723.14 306.5,-723.14 306.5,-717.14 312.5,-711.14 318.5,-711.14 318.5,-711.14 348.5,-711.14 348.5,-711.14 354.5,-711.14 360.5,-717.14 360.5,-723.14 360.5,-723.14 360.5,-735.14 360.5,-735.14 360.5,-741.14 354.5,-747.14 348.5,-747.14"/>
<text xml:space="preserve" text-anchor="middle" x="333.5" y="-723.71" font-family="Arial" font-size="14.00">UI/UX</text>
</g>
<!-- design&#45;&gt;uiux -->
<g id="edge11" class="edge">
<title>design&#45;&gt;uiux</title>
<path fill="none" stroke="black" d="M334.13,-563.11C334.01,-595 333.76,-660.91 333.61,-699.4"/>
<polygon fill="black" stroke="black" points="330.11,-699.33 333.58,-709.34 337.11,-699.36 330.11,-699.33"/>
</g>
<!-- db_design -->
<g id="node13" class="node">
<title>db_design</title>
<path fill="none" stroke="black" d="M251.26,-712.33C251.26,-712.33 201.51,-712.33 201.51,-712.33 195.51,-712.33 189.51,-706.33 189.51,-700.33 189.51,-700.33 189.51,-688.33 189.51,-688.33 189.51,-682.33 195.51,-676.33 201.51,-676.33 201.51,-676.33 251.26,-676.33 251.26,-676.33 257.26,-676.33 263.26,-682.33 263.26,-688.33 263.26,-688.33 263.26,-700.33 263.26,-700.33 263.26,-706.33 257.26,-712.33 251.26,-712.33"/>
<text xml:space="preserve" text-anchor="middle" x="226.38" y="-688.91" font-family="Arial" font-size="14.00">Database</text>
</g>
<!-- design&#45;&gt;db_design -->
<g id="edge12" class="edge">
<title>design&#45;&gt;db_design</title>
<path fill="none" stroke="black" d="M320.97,-563.1C302.3,-589 268.06,-636.51 246.3,-666.7"/>
<polygon fill="black" stroke="black" points="243.6,-664.45 240.59,-674.61 249.28,-668.55 243.6,-664.45"/>
</g>
<!-- api_design -->
<g id="node14" class="node">
<title>api_design</title>
<path fill="none" stroke="black" d="M150.26,-646.13C150.26,-646.13 120.26,-646.13 120.26,-646.13 114.26,-646.13 108.26,-640.13 108.26,-634.13 108.26,-634.13 108.26,-622.13 108.26,-622.13 108.26,-616.13 114.26,-610.13 120.26,-610.13 120.26,-610.13 150.26,-610.13 150.26,-610.13 156.26,-610.13 162.26,-616.13 162.26,-622.13 162.26,-622.13 162.26,-634.13 162.26,-634.13 162.26,-640.13 156.26,-646.13 150.26,-646.13"/>
<text xml:space="preserve" text-anchor="middle" x="135.26" y="-622.7" font-family="Arial" font-size="14.00">API</text>
</g>
<!-- design&#45;&gt;api_design -->
<g id="edge13" class="edge">
<title>design&#45;&gt;api_design</title>
<path fill="none" stroke="black" d="M304.84,-557.06C269.77,-571.76 211.04,-596.37 172.72,-612.43"/>
<polygon fill="black" stroke="black" points="171.76,-609.04 163.89,-616.13 174.47,-615.49 171.76,-609.04"/>
</g>
<!-- frontend -->
<g id="node15" class="node">
<title>frontend</title>
<path fill="none" stroke="black" d="M92.06,-555C92.06,-555 46.06,-555 46.06,-555 40.06,-555 34.06,-549 34.06,-543 34.06,-543 34.06,-531 34.06,-531 34.06,-525 40.06,-519 46.06,-519 46.06,-519 92.06,-519 92.06,-519 98.06,-519 104.06,-525 104.06,-531 104.06,-531 104.06,-543 104.06,-543 104.06,-549 98.06,-555 92.06,-555"/>
<text xml:space="preserve" text-anchor="middle" x="69.06" y="-531.58" font-family="Arial" font-size="14.00">Frontend</text>
</g>
<!-- develop&#45;&gt;frontend -->
<g id="edge14" class="edge">
<title>develop&#45;&gt;frontend</title>
<path fill="none" stroke="black" d="M193.94,-392C169,-420.97 120.5,-477.27 91.84,-510.56"/>
<polygon fill="black" stroke="black" points="89.52,-507.88 85.64,-517.74 94.82,-512.45 89.52,-507.88"/>
</g>
<!-- backend -->
<g id="node16" class="node">
<title>backend</title>
<path fill="none" stroke="black" d="M56.5,-447.88C56.5,-447.88 12,-447.88 12,-447.88 6,-447.88 0,-441.88 0,-435.88 0,-435.88 0,-423.88 0,-423.88 0,-417.88 6,-411.88 12,-411.88 12,-411.88 56.5,-411.88 56.5,-411.88 62.5,-411.88 68.5,-417.88 68.5,-423.88 68.5,-423.88 68.5,-435.88 68.5,-435.88 68.5,-441.88 62.5,-447.88 56.5,-447.88"/>
<text xml:space="preserve" text-anchor="middle" x="34.25" y="-424.46" font-family="Arial" font-size="14.00">Backend</text>
</g>
<!-- develop&#45;&gt;backend -->
<g id="edge15" class="edge">
<title>develop&#45;&gt;backend</title>
<path fill="none" stroke="black" d="M161.38,-389.11C135.83,-397.3 104.67,-407.3 79.59,-415.34"/>
<polygon fill="black" stroke="black" points="78.79,-411.92 70.34,-418.31 80.93,-418.59 78.79,-411.92"/>
</g>
<!-- mobile -->
<g id="node17" class="node">
<title>mobile</title>
<path fill="none" stroke="black" d="M50.5,-335.25C50.5,-335.25 18,-335.25 18,-335.25 12,-335.25 6,-329.25 6,-323.25 6,-323.25 6,-311.25 6,-311.25 6,-305.25 12,-299.25 18,-299.25 18,-299.25 50.5,-299.25 50.5,-299.25 56.5,-299.25 62.5,-305.25 62.5,-311.25 62.5,-311.25 62.5,-323.25 62.5,-323.25 62.5,-329.25 56.5,-335.25 50.5,-335.25"/>
<text xml:space="preserve" text-anchor="middle" x="34.25" y="-311.83" font-family="Arial" font-size="14.00">Mobile</text>
</g>
<!-- develop&#45;&gt;mobile -->
<g id="edge16" class="edge">
<title>develop&#45;&gt;mobile</title>
<path fill="none" stroke="black" d="M161.38,-358.03C133.79,-349.18 99.67,-338.24 73.73,-329.91"/>
<polygon fill="black" stroke="black" points="74.83,-326.59 64.23,-326.87 72.69,-333.26 74.83,-326.59"/>
</g>
<!-- devops -->
<g id="node18" class="node">
<title>devops</title>
<path fill="none" stroke="black" d="M89.81,-228.13C89.81,-228.13 48.31,-228.13 48.31,-228.13 42.31,-228.13 36.31,-222.13 36.31,-216.13 36.31,-216.13 36.31,-204.13 36.31,-204.13 36.31,-198.13 42.31,-192.13 48.31,-192.13 48.31,-192.13 89.81,-192.13 89.81,-192.13 95.81,-192.13 101.81,-198.13 101.81,-204.13 101.81,-204.13 101.81,-216.13 101.81,-216.13 101.81,-222.13 95.81,-228.13 89.81,-228.13"/>
<text xml:space="preserve" text-anchor="middle" x="69.06" y="-204.71" font-family="Arial" font-size="14.00">DevOps</text>
</g>
<!-- develop&#45;&gt;devops -->
<g id="edge17" class="edge">
<title>develop&#45;&gt;devops</title>
<path fill="none" stroke="black" d="M193.94,-355.14C169,-326.17 120.5,-269.86 91.84,-236.58"/>
<polygon fill="black" stroke="black" points="94.82,-234.68 85.64,-229.39 89.52,-239.25 94.82,-234.68"/>
</g>
<!-- unit -->
<g id="node19" class="node">
<title>unit</title>
<path fill="none" stroke="black" d="M160.88,-137.01C160.88,-137.01 109.63,-137.01 109.63,-137.01 103.63,-137.01 97.63,-131.01 97.63,-125.01 97.63,-125.01 97.63,-113.01 97.63,-113.01 97.63,-107.01 103.63,-101.01 109.63,-101.01 109.63,-101.01 160.88,-101.01 160.88,-101.01 166.88,-101.01 172.88,-107.01 172.88,-113.01 172.88,-113.01 172.88,-125.01 172.88,-125.01 172.88,-131.01 166.88,-137.01 160.88,-137.01"/>
<text xml:space="preserve" text-anchor="middle" x="135.26" y="-113.58" font-family="Arial" font-size="14.00">Unit Tests</text>
</g>
<!-- testing&#45;&gt;unit -->
<g id="edge18" class="edge">
<title>testing&#45;&gt;unit</title>
<path fill="none" stroke="black" d="M304.41,-189.9C272.41,-176.49 221.07,-154.97 183.33,-139.16"/>
<polygon fill="black" stroke="black" points="185.05,-136.08 174.47,-135.44 182.34,-142.54 185.05,-136.08"/>
</g>
<!-- integration -->
<g id="node20" class="node">
<title>integration</title>
<path fill="none" stroke="black" d="M254.26,-70.81C254.26,-70.81 198.51,-70.81 198.51,-70.81 192.51,-70.81 186.51,-64.81 186.51,-58.81 186.51,-58.81 186.51,-46.81 186.51,-46.81 186.51,-40.81 192.51,-34.81 198.51,-34.81 198.51,-34.81 254.26,-34.81 254.26,-34.81 260.26,-34.81 266.26,-40.81 266.26,-46.81 266.26,-46.81 266.26,-58.81 266.26,-58.81 266.26,-64.81 260.26,-70.81 254.26,-70.81"/>
<text xml:space="preserve" text-anchor="middle" x="226.38" y="-47.38" font-family="Arial" font-size="14.00">Integration</text>
</g>
<!-- testing&#45;&gt;integration -->
<g id="edge19" class="edge">
<title>testing&#45;&gt;integration</title>
<path fill="none" stroke="black" d="M320.97,-184.04C302.3,-158.13 268.06,-110.63 246.3,-80.44"/>
<polygon fill="black" stroke="black" points="249.28,-78.59 240.59,-72.52 243.6,-82.68 249.28,-78.59"/>
</g>
<!-- e2e -->
<g id="node21" class="node">
<title>e2e</title>
<path fill="none" stroke="black" d="M359.88,-36C359.88,-36 307.13,-36 307.13,-36 301.13,-36 295.13,-30 295.13,-24 295.13,-24 295.13,-12 295.13,-12 295.13,-6 301.13,0 307.13,0 307.13,0 359.88,0 359.88,0 365.88,0 371.88,-6 371.88,-12 371.88,-12 371.88,-24 371.88,-24 371.88,-30 365.88,-36 359.88,-36"/>
<text xml:space="preserve" text-anchor="middle" x="333.5" y="-12.58" font-family="Arial" font-size="14.00">E2E Tests</text>
</g>
<!-- testing&#45;&gt;e2e -->
<g id="edge20" class="edge">
<title>testing&#45;&gt;e2e</title>
<path fill="none" stroke="black" d="M334.13,-184.02C334.01,-152.13 333.76,-86.23 333.61,-47.73"/>
<polygon fill="black" stroke="black" points="337.11,-47.78 333.58,-37.79 330.11,-47.81 337.11,-47.78"/>
</g>
<!-- perf -->
<g id="node22" class="node">
<title>perf</title>
<path fill="none" stroke="black" d="M481.13,-36C481.13,-36 411.13,-36 411.13,-36 405.13,-36 399.13,-30 399.13,-24 399.13,-24 399.13,-12 399.13,-12 399.13,-6 405.13,0 411.13,0 411.13,0 481.13,0 481.13,0 487.13,0 493.13,-6 493.13,-12 493.13,-12 493.13,-24 493.13,-24 493.13,-30 487.13,-36 481.13,-36"/>
<text xml:space="preserve" text-anchor="middle" x="446.13" y="-12.57" font-family="Arial" font-size="14.00">Performance</text>
</g>
<!-- testing&#45;&gt;perf -->
<g id="edge21" class="edge">
<title>testing&#45;&gt;perf</title>
<path fill="none" stroke="black" d="M345.34,-184.02C365.03,-151.58 406.1,-83.93 429.28,-45.76"/>
<polygon fill="black" stroke="black" points="432.05,-47.94 434.25,-37.57 426.07,-44.3 432.05,-47.94"/>
</g>
<!-- staging -->
<g id="node23" class="node">
<title>staging</title>
<path fill="none" stroke="black" d="M572.13,-70.81C572.13,-70.81 534.38,-70.81 534.38,-70.81 528.38,-70.81 522.38,-64.81 522.38,-58.81 522.38,-58.81 522.38,-46.81 522.38,-46.81 522.38,-40.81 528.38,-34.81 534.38,-34.81 534.38,-34.81 572.13,-34.81 572.13,-34.81 578.13,-34.81 584.13,-40.81 584.13,-46.81 584.13,-46.81 584.13,-58.81 584.13,-58.81 584.13,-64.81 578.13,-70.81 572.13,-70.81"/>
<text xml:space="preserve" text-anchor="middle" x="553.25" y="-47.38" font-family="Arial" font-size="14.00">Staging</text>
</g>
<!-- deploy&#45;&gt;staging -->
<g id="edge22" class="edge">
<title>deploy&#45;&gt;staging</title>
<path fill="none" stroke="black" d="M536.96,-249.44C540.04,-212.24 547.06,-127.58 550.8,-82.44"/>
<polygon fill="black" stroke="black" points="554.28,-82.85 551.61,-72.59 547.3,-82.27 554.28,-82.85"/>
</g>
<!-- prod -->
<g id="node24" class="node">
<title>prod</title>
<path fill="none" stroke="black" d="M672.63,-137.01C672.63,-137.01 616.13,-137.01 616.13,-137.01 610.13,-137.01 604.13,-131.01 604.13,-125.01 604.13,-125.01 604.13,-113.01 604.13,-113.01 604.13,-107.01 610.13,-101.01 616.13,-101.01 616.13,-101.01 672.63,-101.01 672.63,-101.01 678.63,-101.01 684.63,-107.01 684.63,-113.01 684.63,-113.01 684.63,-125.01 684.63,-125.01 684.63,-131.01 678.63,-137.01 672.63,-137.01"/>
<text xml:space="preserve" text-anchor="middle" x="644.38" y="-113.58" font-family="Arial" font-size="14.00">Production</text>
</g>
<!-- deploy&#45;&gt;prod -->
<g id="edge23" class="edge">
<title>deploy&#45;&gt;prod</title>
<path fill="none" stroke="black" d="M548.8,-249.53C567.66,-223.76 602.26,-176.52 624.25,-146.49"/>
<polygon fill="black" stroke="black" points="626.93,-148.76 630.02,-138.62 621.28,-144.62 626.93,-148.76"/>
</g>
<!-- monitor -->
<g id="node25" class="node">
<title>monitor</title>
<path fill="none" stroke="black" d="M738.46,-228.13C738.46,-228.13 682.71,-228.13 682.71,-228.13 676.71,-228.13 670.71,-222.13 670.71,-216.13 670.71,-216.13 670.71,-204.13 670.71,-204.13 670.71,-198.13 676.71,-192.13 682.71,-192.13 682.71,-192.13 738.46,-192.13 738.46,-192.13 744.46,-192.13 750.46,-198.13 750.46,-204.13 750.46,-204.13 750.46,-216.13 750.46,-216.13 750.46,-222.13 744.46,-228.13 738.46,-228.13"/>
<text xml:space="preserve" text-anchor="middle" x="710.58" y="-204.71" font-family="Arial" font-size="14.00">Monitoring</text>
</g>
<!-- deploy&#45;&gt;monitor -->
<g id="edge24" class="edge">
<title>deploy&#45;&gt;monitor</title>
<path fill="none" stroke="black" d="M580.09,-253.07C604.28,-245.11 634.27,-235.24 659.4,-226.97"/>
<polygon fill="black" stroke="black" points="660.36,-230.34 668.77,-223.89 658.17,-223.69 660.36,-230.34"/>
</g>
<!-- docs -->
<g id="node26" class="node">
<title>docs</title>
<path fill="none" stroke="black" d="M787.14,-335.25C787.14,-335.25 703.64,-335.25 703.64,-335.25 697.64,-335.25 691.64,-329.25 691.64,-323.25 691.64,-323.25 691.64,-311.25 691.64,-311.25 691.64,-305.25 697.64,-299.25 703.64,-299.25 703.64,-299.25 787.14,-299.25 787.14,-299.25 793.14,-299.25 799.14,-305.25 799.14,-311.25 799.14,-311.25 799.14,-323.25 799.14,-323.25 799.14,-329.25 793.14,-335.25 787.14,-335.25"/>
<text xml:space="preserve" text-anchor="middle" x="745.39" y="-311.83" font-family="Arial" font-size="14.00">Documentation</text>
</g>
<!-- deploy&#45;&gt;docs -->
<g id="edge25" class="edge">
<title>deploy&#45;&gt;docs</title>
<path fill="none" stroke="black" d="M580.22,-278.32C609.31,-285.18 647.71,-294.23 680.16,-301.88"/>
<polygon fill="black" stroke="black" points="679.35,-305.28 689.89,-304.17 680.96,-298.47 679.35,-305.28"/>
</g>
</g>
</svg>
