<?xml version="1.0" encoding="UTF-8" standalone="no"?>
<!DOCTYPE svg PUBLIC "-//W3C//DTD SVG 1.1//EN"
 "http://www.w3.org/Graphics/SVG/1.1/DTD/svg11.dtd">
<!-- Generated by graphviz version 14.1.1 (20251213.1925)
 -->
<!-- Title: ComponentDiagram Pages: 1 -->
<svg width="627pt" height="431pt"
 viewBox="0.00 0.00 627.00 431.00" xmlns="http://www.w3.org/2000/svg" xmlns:xlink="http://www.w3.org/1999/xlink">
<g id="graph0" class="graph" transform="scale(1 1) rotate(0) translate(4 426.5)">
<title>ComponentDiagram</title>
<polygon fill="white" stroke="none" points="-4,4 -4,-426.5 623,-426.5 623,4 -4,4"/>
<g id="clust1" class="cluster">
<title>cluster_presentation</title>
<polygon fill="lightcyan" stroke="black" points="17,-338 17,-414.5 275,-414.5 275,-338 17,-338"/>
<text xml:space="preserve" text-anchor="middle" x="146" y="-397.2" font-family="Times New Roman,serif" font-size="14.00">Presentation Layer</text>
</g>
<g id="clust2" class="cluster">
<title>cluster_api</title>
<polygon fill="lightyellow" stroke="black" points="46,-253.5 46,-330 281,-330 281,-253.5 46,-253.5"/>
<text xml:space="preserve" text-anchor="middle" x="163.5" y="-312.7" font-family="Times New Roman,serif" font-size="14.00">API Layer</text>
</g>
<g id="clust3" class="cluster">
<title>cluster_business</title>
<polygon fill="lightgreen" stroke="black" points="8,-92.5 8,-245.5 306,-245.5 306,-92.5 8,-92.5"/>
<text xml:space="preserve" text-anchor="middle" x="157" y="-228.2" font-family="Times New Roman,serif" font-size="14.00">Business Logic</text>
</g>
<g id="clust4" class="cluster">
<title>cluster_data</title>
<polygon fill="lightpink" stroke="black" points="314,-92.5 314,-169 556,-169 556,-92.5 314,-92.5"/>
<text xml:space="preserve" text-anchor="middle" x="435" y="-151.7" font-family="Times New Roman,serif" font-size="14.00">Data Access</text>
</g>
<g id="clust5" class="cluster">
<title>cluster_external</title>
<polygon fill="lightgray" stroke="black" points="397,-8 397,-84.5 611,-84.5 611,-8 397,-8"/>
<text xml:space="preserve" text-anchor="middle" x="504" y="-67.2" font-family="Times New Roman,serif" font-size="14.00">External Services</text>
</g>
<!-- WebUI -->
<g id="node1" class="node">
<title>WebUI</title>
<polygon fill="none" stroke="black" points="267,-382 213,-382 213,-378 209,-378 209,-374 213,-374 213,-354 209,-354 209,-350 213,-350 213,-346 267,-346 267,-382"/>
<polyline fill="none" stroke="black" points="213,-378 217,-378 217,-374 213,-374"/>
<polyline fill="none" stroke="black" points="213,-354 217,-354 217,-350 213,-350"/>
<text xml:space="preserve" text-anchor="middle" x="240" y="-366.5" font-family="Arial" font-size="10.00">Web UI</text>
<text xml:space="preserve" text-anchor="middle" x="240" y="-354.5" font-family="Arial" font-size="10.00">(React)</text>
</g>
<!-- RestAPI -->
<g id="node4" class="node">
<title>RestAPI</title>
<polygon fill="none" stroke="black" points="188.88,-297.5 127.12,-297.5 127.12,-293.5 123.12,-293.5 123.12,-289.5 127.12,-289.5 127.12,-269.5 123.12,-269.5 123.12,-265.5 127.12,-265.5 127.12,-261.5 188.88,-261.5 188.88,-297.5"/>
<polyline fill="none" stroke="black" points="127.12,-293.5 131.12,-293.5 131.12,-289.5 127.12,-289.5"/>
<polyline fill="none" stroke="black" points="127.12,-269.5 131.12,-269.5 131.12,-265.5 127.12,-265.5"/>
<text xml:space="preserve" text-anchor="middle" x="158" y="-282" font-family="Arial" font-size="10.00">REST API</text>
<text xml:space="preserve" text-anchor="middle" x="158" y="-270" font-family="Arial" font-size="10.00">(Express)</text>
</g>
<!-- WebUI&#45;&gt;RestAPI -->
<g id="edge1" class="edge">
<title>WebUI&#45;&gt;RestAPI</title>
<path fill="none" stroke="black" d="M216.11,-345.74C209.97,-340.9 203.55,-335.47 198,-330 190.84,-322.94 183.72,-314.64 177.51,-306.88"/>
<polygon fill="black" stroke="black" points="180.28,-304.74 171.38,-299 174.75,-309.04 180.28,-304.74"/>
</g>
<!-- WebSocket -->
<g id="node6" class="node">
<title>WebSocket</title>
<polygon fill="none" stroke="black" points="273.12,-297.5 206.88,-297.5 206.88,-293.5 202.88,-293.5 202.88,-289.5 206.88,-289.5 206.88,-269.5 202.88,-269.5 202.88,-265.5 206.88,-265.5 206.88,-261.5 273.12,-261.5 273.12,-297.5"/>
<polyline fill="none" stroke="black" points="206.88,-293.5 210.88,-293.5 210.88,-289.5 206.88,-289.5"/>
<polyline fill="none" stroke="black" points="206.88,-269.5 210.88,-269.5 210.88,-265.5 206.88,-265.5"/>
<text xml:space="preserve" text-anchor="middle" x="240" y="-282" font-family="Arial" font-size="10.00">WebSocket</text>
<text xml:space="preserve" text-anchor="middle" x="240" y="-270" font-family="Arial" font-size="10.00">(Socket.io)</text>
</g>
<!-- WebUI&#45;&gt;WebSocket -->
<g id="edge2" class="edge">
<title>WebUI&#45;&gt;WebSocket</title>
<path fill="none" stroke="black" d="M240,-345.5C240,-335 240,-321.39 240,-309.33"/>
<polygon fill="black" stroke="black" points="243.5,-309.48 240,-299.48 236.5,-309.48 243.5,-309.48"/>
</g>
<!-- AdminUI -->
<g id="node2" class="node">
<title>AdminUI</title>
<polygon fill="none" stroke="black" points="194.75,-382 123.25,-382 123.25,-378 119.25,-378 119.25,-374 123.25,-374 123.25,-354 119.25,-354 119.25,-350 123.25,-350 123.25,-346 194.75,-346 194.75,-382"/>
<polyline fill="none" stroke="black" points="123.25,-378 127.25,-378 127.25,-374 123.25,-374"/>
<polyline fill="none" stroke="black" points="123.25,-354 127.25,-354 127.25,-350 123.25,-350"/>
<text xml:space="preserve" text-anchor="middle" x="159" y="-366.5" font-family="Arial" font-size="10.00">Admin Panel</text>
<text xml:space="preserve" text-anchor="middle" x="159" y="-354.5" font-family="Arial" font-size="10.00">(Angular)</text>
</g>
<!-- AdminUI&#45;&gt;RestAPI -->
<g id="edge3" class="edge">
<title>AdminUI&#45;&gt;RestAPI</title>
<path fill="none" stroke="black" d="M158.79,-345.5C158.66,-335 158.5,-321.39 158.35,-309.33"/>
<polygon fill="black" stroke="black" points="161.85,-309.44 158.23,-299.48 154.85,-309.53 161.85,-309.44"/>
</g>
<!-- MobileUI -->
<g id="node3" class="node">
<title>MobileUI</title>
<polygon fill="none" stroke="black" points="104.88,-382 25.12,-382 25.12,-378 21.12,-378 21.12,-374 25.12,-374 25.12,-354 21.12,-354 21.12,-350 25.12,-350 25.12,-346 104.88,-346 104.88,-382"/>
<polyline fill="none" stroke="black" points="25.12,-378 29.12,-378 29.12,-374 25.12,-374"/>
<polyline fill="none" stroke="black" points="25.12,-354 29.12,-354 29.12,-350 25.12,-350"/>
<text xml:space="preserve" text-anchor="middle" x="65" y="-366.5" font-family="Arial" font-size="10.00">Mobile App</text>
<text xml:space="preserve" text-anchor="middle" x="65" y="-354.5" font-family="Arial" font-size="10.00">(React Native)</text>
</g>
<!-- GraphQL -->
<g id="node5" class="node">
<title>GraphQL</title>
<polygon fill="none" stroke="black" points="109.5,-297.5 54.5,-297.5 54.5,-293.5 50.5,-293.5 50.5,-289.5 54.5,-289.5 54.5,-269.5 50.5,-269.5 50.5,-265.5 54.5,-265.5 54.5,-261.5 109.5,-261.5 109.5,-297.5"/>
<polyline fill="none" stroke="black" points="54.5,-293.5 58.5,-293.5 58.5,-289.5 54.5,-289.5"/>
<polyline fill="none" stroke="black" points="54.5,-269.5 58.5,-269.5 58.5,-265.5 54.5,-265.5"/>
<text xml:space="preserve" text-anchor="middle" x="82" y="-282" font-family="Arial" font-size="10.00">GraphQL</text>
<text xml:space="preserve" text-anchor="middle" x="82" y="-270" font-family="Arial" font-size="10.00">(Apollo)</text>
</g>
<!-- MobileUI&#45;&gt;GraphQL -->
<g id="edge4" class="edge">
<title>MobileUI&#45;&gt;GraphQL</title>
<path fill="none" stroke="black" d="M68.61,-345.5C70.79,-334.89 73.63,-321.1 76.14,-308.96"/>
<polygon fill="black" stroke="black" points="79.5,-309.95 78.09,-299.45 72.65,-308.54 79.5,-309.95"/>
</g>
<!-- AuthSvc -->
<g id="node7" class="node">
<title>AuthSvc</title>
<polygon fill="none" stroke="black" points="214,-213 160,-213 160,-209 156,-209 156,-205 160,-205 160,-185 156,-185 156,-181 160,-181 160,-177 214,-177 214,-213"/>
<polyline fill="none" stroke="black" points="160,-209 164,-209 164,-205 160,-205"/>
<polyline fill="none" stroke="black" points="160,-185 164,-185 164,-181 160,-181"/>
<text xml:space="preserve" text-anchor="middle" x="187" y="-197.5" font-family="Arial" font-size="10.00">Auth</text>
<text xml:space="preserve" text-anchor="middle" x="187" y="-185.5" font-family="Arial" font-size="10.00">Service</text>
</g>
<!-- RestAPI&#45;&gt;AuthSvc -->
<g id="edge5" class="edge">
<title>RestAPI&#45;&gt;AuthSvc</title>
<path fill="none" stroke="black" d="M164.15,-261C167.92,-250.28 172.83,-236.32 177.13,-224.08"/>
<polygon fill="black" stroke="black" points="180.34,-225.49 180.36,-214.9 173.74,-223.17 180.34,-225.49"/>
</g>
<!-- UserSvc -->
<g id="node8" class="node">
<title>UserSvc</title>
<polygon fill="none" stroke="black" points="142,-213 88,-213 88,-209 84,-209 84,-205 88,-205 88,-185 84,-185 84,-181 88,-181 88,-177 142,-177 142,-213"/>
<polyline fill="none" stroke="black" points="88,-209 92,-209 92,-205 88,-205"/>
<polyline fill="none" stroke="black" points="88,-185 92,-185 92,-181 88,-181"/>
<text xml:space="preserve" text-anchor="middle" x="115" y="-197.5" font-family="Arial" font-size="10.00">User</text>
<text xml:space="preserve" text-anchor="middle" x="115" y="-185.5" font-family="Arial" font-size="10.00">Service</text>
</g>
<!-- RestAPI&#45;&gt;UserSvc -->
<g id="edge6" class="edge">
<title>RestAPI&#45;&gt;UserSvc</title>
<path fill="none" stroke="black" d="M148.88,-261C143.18,-250.07 135.72,-235.75 129.25,-223.33"/>
<polygon fill="black" stroke="black" points="132.53,-222.06 124.81,-214.81 126.32,-225.3 132.53,-222.06"/>
</g>
<!-- OrderSvc -->
<g id="node9" class="node">
<title>OrderSvc</title>
<polygon fill="none" stroke="black" points="70,-213 16,-213 16,-209 12,-209 12,-205 16,-205 16,-185 12,-185 12,-181 16,-181 16,-177 70,-177 70,-213"/>
<polyline fill="none" stroke="black" points="16,-209 20,-209 20,-205 16,-205"/>
<polyline fill="none" stroke="black" points="16,-185 20,-185 20,-181 16,-181"/>
<text xml:space="preserve" text-anchor="middle" x="43" y="-197.5" font-family="Arial" font-size="10.00">Order</text>
<text xml:space="preserve" text-anchor="middle" x="43" y="-185.5" font-family="Arial" font-size="10.00">Service</text>
</g>
<!-- RestAPI&#45;&gt;OrderSvc -->
<g id="edge7" class="edge">
<title>RestAPI&#45;&gt;OrderSvc</title>
<path fill="none" stroke="black" d="M134,-261.17C129.2,-258.27 124.07,-255.55 119,-253.5 102.19,-246.71 94.27,-255.28 79,-245.5 70.25,-239.9 62.94,-231.36 57.24,-222.94"/>
<polygon fill="black" stroke="black" points="60.31,-221.26 52.09,-214.58 54.35,-224.93 60.31,-221.26"/>
</g>
<!-- GraphQL&#45;&gt;UserSvc -->
<g id="edge8" class="edge">
<title>GraphQL&#45;&gt;UserSvc</title>
<path fill="none" stroke="black" d="M89,-261C93.29,-250.28 98.87,-236.32 103.77,-224.08"/>
<polygon fill="black" stroke="black" points="106.99,-225.46 107.45,-214.88 100.49,-222.86 106.99,-225.46"/>
</g>
<!-- GraphQL&#45;&gt;OrderSvc -->
<g id="edge9" class="edge">
<title>GraphQL&#45;&gt;OrderSvc</title>
<path fill="none" stroke="black" d="M73.73,-261C68.61,-250.18 61.93,-236.03 56.1,-223.71"/>
<polygon fill="black" stroke="black" points="59.34,-222.38 51.91,-214.84 53.02,-225.38 59.34,-222.38"/>
</g>
<!-- NotifySvc -->
<g id="node11" class="node">
<title>NotifySvc</title>
<polygon fill="none" stroke="black" points="297.75,-213 232.25,-213 232.25,-209 228.25,-209 228.25,-205 232.25,-205 232.25,-185 228.25,-185 228.25,-181 232.25,-181 232.25,-177 297.75,-177 297.75,-213"/>
<polyline fill="none" stroke="black" points="232.25,-209 236.25,-209 236.25,-205 232.25,-205"/>
<polyline fill="none" stroke="black" points="232.25,-185 236.25,-185 236.25,-181 232.25,-181"/>
<text xml:space="preserve" text-anchor="middle" x="265" y="-197.5" font-family="Arial" font-size="10.00">Notification</text>
<text xml:space="preserve" text-anchor="middle" x="265" y="-185.5" font-family="Arial" font-size="10.00">Service</text>
</g>
<!-- WebSocket&#45;&gt;NotifySvc -->
<g id="edge10" class="edge">
<title>WebSocket&#45;&gt;NotifySvc</title>
<path fill="none" stroke="black" d="M245.3,-261C248.52,-250.39 252.7,-236.6 256.38,-224.46"/>
<polygon fill="black" stroke="black" points="259.72,-225.5 259.27,-214.92 253.02,-223.47 259.72,-225.5"/>
</g>
<!-- UserRepo -->
<g id="node12" class="node">
<title>UserRepo</title>
<polygon fill="none" stroke="black" points="547.62,-136.5 484.38,-136.5 484.38,-132.5 480.38,-132.5 480.38,-128.5 484.38,-128.5 484.38,-108.5 480.38,-108.5 480.38,-104.5 484.38,-104.5 484.38,-100.5 547.62,-100.5 547.62,-136.5"/>
<polyline fill="none" stroke="black" points="484.38,-132.5 488.38,-132.5 488.38,-128.5 484.38,-128.5"/>
<polyline fill="none" stroke="black" points="484.38,-108.5 488.38,-108.5 488.38,-104.5 484.38,-104.5"/>
<text xml:space="preserve" text-anchor="middle" x="516" y="-121" font-family="Arial" font-size="10.00">User</text>
<text xml:space="preserve" text-anchor="middle" x="516" y="-109" font-family="Arial" font-size="10.00">Repository</text>
</g>
<!-- AuthSvc&#45;&gt;UserRepo -->
<g id="edge11" class="edge">
<title>AuthSvc&#45;&gt;UserRepo</title>
<path fill="none" stroke="black" d="M214.49,-179.65C217.31,-178.59 220.18,-177.68 223,-177 250.34,-170.41 450.82,-181.52 476,-169 486.17,-163.94 494.63,-154.96 501.1,-146.03"/>
<polygon fill="black" stroke="black" points="503.94,-148.08 506.5,-137.8 498.09,-144.24 503.94,-148.08"/>
</g>
<!-- UserSvc&#45;&gt;UserRepo -->
<g id="edge12" class="edge">
<title>UserSvc&#45;&gt;UserRepo</title>
<path fill="none" stroke="black" d="M142.49,-179.63C145.31,-178.58 148.18,-177.67 151,-177 186.15,-168.66 443.6,-184.97 476,-169 486.19,-163.98 494.65,-155.01 501.12,-146.07"/>
<polygon fill="black" stroke="black" points="503.96,-148.11 506.52,-137.83 498.11,-144.27 503.96,-148.11"/>
</g>
<!-- CacheRepo -->
<g id="node14" class="node">
<title>CacheRepo</title>
<polygon fill="none" stroke="black" points="466.62,-136.5 403.38,-136.5 403.38,-132.5 399.38,-132.5 399.38,-128.5 403.38,-128.5 403.38,-108.5 399.38,-108.5 399.38,-104.5 403.38,-104.5 403.38,-100.5 466.62,-100.5 466.62,-136.5"/>
<polyline fill="none" stroke="black" points="403.38,-132.5 407.38,-132.5 407.38,-128.5 403.38,-128.5"/>
<polyline fill="none" stroke="black" points="403.38,-108.5 407.38,-108.5 407.38,-104.5 403.38,-104.5"/>
<text xml:space="preserve" text-anchor="middle" x="435" y="-121" font-family="Arial" font-size="10.00">Cache</text>
<text xml:space="preserve" text-anchor="middle" x="435" y="-109" font-family="Arial" font-size="10.00">Repository</text>
</g>
<!-- UserSvc&#45;&gt;CacheRepo -->
<g id="edge13" class="edge">
<title>UserSvc&#45;&gt;CacheRepo</title>
<path fill="none" stroke="black" d="M142.5,-179.65C145.31,-178.6 148.18,-177.68 151,-177 177.37,-170.63 370.72,-181.09 395,-169 405.17,-163.94 413.62,-154.96 420.1,-146.02"/>
<polygon fill="black" stroke="black" points="422.93,-148.08 425.5,-137.8 417.08,-144.23 422.93,-148.08"/>
</g>
<!-- PaymentSvc -->
<g id="node10" class="node">
<title>PaymentSvc</title>
<polygon fill="none" stroke="black" points="184.5,-136.5 129.5,-136.5 129.5,-132.5 125.5,-132.5 125.5,-128.5 129.5,-128.5 129.5,-108.5 125.5,-108.5 125.5,-104.5 129.5,-104.5 129.5,-100.5 184.5,-100.5 184.5,-136.5"/>
<polyline fill="none" stroke="black" points="129.5,-132.5 133.5,-132.5 133.5,-128.5 129.5,-128.5"/>
<polyline fill="none" stroke="black" points="129.5,-108.5 133.5,-108.5 133.5,-104.5 129.5,-104.5"/>
<text xml:space="preserve" text-anchor="middle" x="157" y="-121" font-family="Arial" font-size="10.00">Payment</text>
<text xml:space="preserve" text-anchor="middle" x="157" y="-109" font-family="Arial" font-size="10.00">Service</text>
</g>
<!-- OrderSvc&#45;&gt;PaymentSvc -->
<g id="edge15" class="edge">
<title>OrderSvc&#45;&gt;PaymentSvc</title>
<path fill="none" stroke="black" d="M69.73,-176.53C85.02,-166.54 104.41,-153.87 121.03,-143.01"/>
<polygon fill="black" stroke="black" points="122.72,-146.09 129.17,-137.69 118.89,-140.23 122.72,-146.09"/>
</g>
<!-- OrderRepo -->
<g id="node13" class="node">
<title>OrderRepo</title>
<polygon fill="none" stroke="black" points="385.62,-136.5 322.38,-136.5 322.38,-132.5 318.38,-132.5 318.38,-128.5 322.38,-128.5 322.38,-108.5 318.38,-108.5 318.38,-104.5 322.38,-104.5 322.38,-100.5 385.62,-100.5 385.62,-136.5"/>
<polyline fill="none" stroke="black" points="322.38,-132.5 326.38,-132.5 326.38,-128.5 322.38,-128.5"/>
<polyline fill="none" stroke="black" points="322.38,-108.5 326.38,-108.5 326.38,-104.5 322.38,-104.5"/>
<text xml:space="preserve" text-anchor="middle" x="354" y="-121" font-family="Arial" font-size="10.00">Order</text>
<text xml:space="preserve" text-anchor="middle" x="354" y="-109" font-family="Arial" font-size="10.00">Repository</text>
</g>
<!-- OrderSvc&#45;&gt;OrderRepo -->
<g id="edge14" class="edge">
<title>OrderSvc&#45;&gt;OrderRepo</title>
<path fill="none" stroke="black" d="M70.5,-179.66C73.31,-178.6 76.18,-177.68 79,-177 103.96,-170.95 286.76,-179.92 310,-169 320.81,-163.92 330.1,-154.81 337.31,-145.77"/>
<polygon fill="black" stroke="black" points="340.08,-147.92 343.16,-137.78 334.43,-143.78 340.08,-147.92"/>
</g>
<!-- Stripe -->
<g id="node15" class="node">
<title>Stripe</title>
<polygon fill="none" stroke="black" points="459,-52 405,-52 405,-48 401,-48 401,-44 405,-44 405,-24 401,-24 401,-20 405,-20 405,-16 459,-16 459,-52"/>
<polyline fill="none" stroke="black" points="405,-48 409,-48 409,-44 405,-44"/>
<polyline fill="none" stroke="black" points="405,-24 409,-24 409,-20 405,-20"/>
<text xml:space="preserve" text-anchor="middle" x="432" y="-36.5" font-family="Arial" font-size="10.00">Stripe</text>
<text xml:space="preserve" text-anchor="middle" x="432" y="-24.5" font-family="Arial" font-size="10.00">API</text>
</g>
<!-- PaymentSvc&#45;&gt;Stripe -->
<g id="edge16" class="edge">
<title>PaymentSvc&#45;&gt;Stripe</title>
<path fill="none" stroke="black" d="M184.88,-109.14C234.45,-94.27 337.94,-63.22 393.99,-46.4"/>
<polygon fill="black" stroke="black" points="394.84,-49.8 403.41,-43.58 392.83,-43.1 394.84,-49.8"/>
</g>
<!-- Twilio -->
<g id="node16" class="node">
<title>Twilio</title>
<polygon fill="none" stroke="black" points="603,-52 549,-52 549,-48 545,-48 545,-44 549,-44 549,-24 545,-24 545,-20 549,-20 549,-16 603,-16 603,-52"/>
<polyline fill="none" stroke="black" points="549,-48 553,-48 553,-44 549,-44"/>
<polyline fill="none" stroke="black" points="549,-24 553,-24 553,-20 549,-20"/>
<text xml:space="preserve" text-anchor="middle" x="576" y="-36.5" font-family="Arial" font-size="10.00">Twilio</text>
<text xml:space="preserve" text-anchor="middle" x="576" y="-24.5" font-family="Arial" font-size="10.00">SMS</text>
</g>
<!-- NotifySvc&#45;&gt;Twilio -->
<g id="edge17" class="edge">
<title>NotifySvc&#45;&gt;Twilio</title>
<path fill="none" stroke="black" d="M298.25,-193.5C371.44,-192.08 541.5,-186.88 560,-169 587.81,-142.12 586.41,-94.19 581.9,-63.53"/>
<polygon fill="black" stroke="black" points="585.38,-63.09 580.26,-53.81 578.48,-64.26 585.38,-63.09"/>
</g>
<!-- AWS -->
<g id="node17" class="node">
<title>AWS</title>
<polygon fill="none" stroke="black" points="531,-52 477,-52 477,-48 473,-48 473,-44 477,-44 477,-24 473,-24 473,-20 477,-20 477,-16 531,-16 531,-52"/>
<polyline fill="none" stroke="black" points="477,-48 481,-48 481,-44 477,-44"/>
<polyline fill="none" stroke="black" points="477,-24 481,-24 481,-20 477,-20"/>
<text xml:space="preserve" text-anchor="middle" x="504" y="-36.5" font-family="Arial" font-size="10.00">AWS</text>
<text xml:space="preserve" text-anchor="middle" x="504" y="-24.5" font-family="Arial" font-size="10.00">S3</text>
</g>
<!-- UserRepo&#45;&gt;AWS -->
<g id="edge18" class="edge">
<title>UserRepo&#45;&gt;AWS</title>
<path fill="none" stroke="black" d="M513.46,-100C511.93,-89.5 509.95,-75.89 508.19,-63.83"/>
<polygon fill="black" stroke="black" points="511.66,-63.36 506.76,-53.97 504.74,-64.37 511.66,-63.36"/>
</g>
</g>
</svg>
