<?xml version="1.0" encoding="UTF-8" standalone="no"?>
<!DOCTYPE svg PUBLIC "-//W3C//DTD SVG 1.1//EN"
 "http://www.w3.org/Graphics/SVG/1.1/DTD/svg11.dtd">
<!-- Generated by graphviz version 14.1.1 (20251213.1925)
 -->
<!-- Title: BONObserver Pages: 1 -->
<svg width="373pt" height="537pt"
 viewBox="0.00 0.00 373.00 537.00" xmlns="http://www.w3.org/2000/svg" xmlns:xlink="http://www.w3.org/1999/xlink">
<g id="graph0" class="graph" transform="scale(1 1) rotate(0) translate(4 532.5)">
<title>BONObserver</title>
<polygon fill="white" stroke="none" points="-4,4 -4,-532.5 368.75,-532.5 368.75,4 -4,4"/>
<!-- SUBJECT -->
<g id="node1" class="node">
<title>SUBJECT</title>
<polygon fill="lightyellow" stroke="black" stroke-width="2" points="254.25,-426 96.5,-426 96.5,-344.5 254.25,-344.5 254.25,-426"/>
<text xml:space="preserve" text-anchor="middle" x="175.38" y="-413.45" font-family="Courier,monospace" font-size="9.00">SUBJECT*</text>
<text xml:space="preserve" text-anchor="middle" x="175.38" y="-402.95" font-family="Courier,monospace" font-size="9.00">─────────────────</text>
<text xml:space="preserve" text-anchor="middle" x="175.38" y="-392.45" font-family="Courier,monospace" font-size="9.00">+ observers: LIST[OBSERVER]</text>
<text xml:space="preserve" text-anchor="middle" x="175.38" y="-381.95" font-family="Courier,monospace" font-size="9.00">─────────────────</text>
<text xml:space="preserve" text-anchor="middle" x="175.38" y="-371.45" font-family="Courier,monospace" font-size="9.00">+ attach(o: OBSERVER)</text>
<text xml:space="preserve" text-anchor="middle" x="175.38" y="-360.95" font-family="Courier,monospace" font-size="9.00">+ detach(o: OBSERVER)</text>
<text xml:space="preserve" text-anchor="middle" x="175.38" y="-350.45" font-family="Courier,monospace" font-size="9.00">+ notify()*</text>
</g>
<!-- OBSERVER -->
<g id="node2" class="node">
<title>OBSERVER</title>
<polygon fill="lightyellow" stroke="black" stroke-width="2" points="238.5,-528.5 112.25,-528.5 112.25,-478.5 238.5,-478.5 238.5,-528.5"/>
<text xml:space="preserve" text-anchor="middle" x="175.38" y="-515.95" font-family="Courier,monospace" font-size="9.00">OBSERVER*</text>
<text xml:space="preserve" text-anchor="middle" x="175.38" y="-505.45" font-family="Courier,monospace" font-size="9.00">─────────────────</text>
<text xml:space="preserve" text-anchor="middle" x="175.38" y="-494.95" font-family="Courier,monospace" font-size="9.00">─────────────────</text>
<text xml:space="preserve" text-anchor="middle" x="175.38" y="-484.45" font-family="Courier,monospace" font-size="9.00">+ update(s: SUBJECT)*</text>
</g>
<!-- SUBJECT&#45;&gt;OBSERVER -->
<g id="edge4" class="edge">
<title>SUBJECT&#45;&gt;OBSERVER</title>
<path fill="none" stroke="black" stroke-dasharray="5,2" d="M175.38,-426.26C175.38,-439.43 175.38,-453.99 175.38,-466.82"/>
<polygon fill="black" stroke="black" points="175.38,-476.81 170.88,-466.81 175.38,-473.03 175.38,-466.81 175.38,-466.81 175.38,-466.81 175.38,-473.03 179.88,-466.81 175.38,-476.81"/>
<text xml:space="preserve" text-anchor="middle" x="206.5" y="-447.2" font-family="Times New Roman,serif" font-size="14.00">observers *</text>
</g>
<!-- CONCRETE_SUBJECT -->
<g id="node3" class="node">
<title>CONCRETE_SUBJECT</title>
<polygon fill="lightblue" stroke="black" points="236.5,-307.5 110.25,-307.5 110.25,-226 236.5,-226 236.5,-307.5"/>
<text xml:space="preserve" text-anchor="middle" x="173.38" y="-294.95" font-family="Courier,monospace" font-size="9.00">CONCRETE_SUBJECT</text>
<text xml:space="preserve" text-anchor="middle" x="173.38" y="-284.45" font-family="Courier,monospace" font-size="9.00">─────────────────</text>
<text xml:space="preserve" text-anchor="middle" x="173.38" y="-273.95" font-family="Courier,monospace" font-size="9.00">+ state: STATE</text>
<text xml:space="preserve" text-anchor="middle" x="173.38" y="-263.45" font-family="Courier,monospace" font-size="9.00">─────────────────</text>
<text xml:space="preserve" text-anchor="middle" x="173.38" y="-252.95" font-family="Courier,monospace" font-size="9.00">+ get_state: STATE</text>
<text xml:space="preserve" text-anchor="middle" x="173.38" y="-242.45" font-family="Courier,monospace" font-size="9.00">+ set_state(s: STATE)</text>
<text xml:space="preserve" text-anchor="middle" x="173.38" y="-231.95" font-family="Courier,monospace" font-size="9.00">+ notify()</text>
</g>
<!-- CONCRETE_SUBJECT&#45;&gt;SUBJECT -->
<g id="edge1" class="edge">
<title>CONCRETE_SUBJECT&#45;&gt;SUBJECT</title>
<path fill="none" stroke="black" d="M174.06,-307.84C174.2,-315.9 174.35,-324.47 174.49,-332.84"/>
<polygon fill="none" stroke="black" points="170.99,-332.63 174.66,-342.57 177.99,-332.51 170.99,-332.63"/>
</g>
<!-- CONCRETE_OBSERVER_A -->
<g id="node4" class="node">
<title>CONCRETE_OBSERVER_A</title>
<polygon fill="lightgreen" stroke="black" points="136.75,-173.5 0,-173.5 0,-102.5 136.75,-102.5 136.75,-173.5"/>
<text xml:space="preserve" text-anchor="middle" x="68.38" y="-160.95" font-family="Courier,monospace" font-size="9.00">CONCRETE_OBSERVER_A</text>
<text xml:space="preserve" text-anchor="middle" x="68.38" y="-150.45" font-family="Courier,monospace" font-size="9.00">─────────────────</text>
<text xml:space="preserve" text-anchor="middle" x="68.38" y="-139.95" font-family="Courier,monospace" font-size="9.00">+ subject: SUBJECT</text>
<text xml:space="preserve" text-anchor="middle" x="68.38" y="-129.45" font-family="Courier,monospace" font-size="9.00">+ observed_state: STATE</text>
<text xml:space="preserve" text-anchor="middle" x="68.38" y="-118.95" font-family="Courier,monospace" font-size="9.00">─────────────────</text>
<text xml:space="preserve" text-anchor="middle" x="68.38" y="-108.45" font-family="Courier,monospace" font-size="9.00">+ update(s: SUBJECT)</text>
</g>
<!-- CONCRETE_OBSERVER_A&#45;&gt;OBSERVER -->
<g id="edge2" class="edge">
<title>CONCRETE_OBSERVER_A&#45;&gt;OBSERVER</title>
<path fill="none" stroke="black" d="M62.47,-173.89C54.67,-230.22 46.31,-343.25 87.38,-426 96.18,-443.74 111.1,-459.09 126.18,-471.28"/>
<polygon fill="none" stroke="black" points="123.77,-473.85 133.83,-477.17 128.04,-468.3 123.77,-473.85"/>
</g>
<!-- CONCRETE_OBSERVER_A&#45;&gt;CONCRETE_SUBJECT -->
<g id="edge5" class="edge">
<title>CONCRETE_OBSERVER_A&#45;&gt;CONCRETE_SUBJECT</title>
<path fill="none" stroke="black" stroke-dasharray="5,2" d="M93.5,-173.93C101.75,-185.01 111.12,-197.18 120.12,-208 122.67,-211.06 125.34,-214.18 128.05,-217.3"/>
<polygon fill="black" stroke="black" points="134.51,-224.6 124.51,-220.09 132,-221.77 127.89,-217.11 127.89,-217.11 127.89,-217.11 132,-221.77 131.26,-214.13 134.51,-224.6"/>
<text xml:space="preserve" text-anchor="middle" x="139.25" y="-194.7" font-family="Times New Roman,serif" font-size="14.00">subject</text>
</g>
<!-- CONCRETE_OBSERVER_B -->
<g id="node5" class="node">
<title>CONCRETE_OBSERVER_B</title>
<polygon fill="lightgreen" stroke="black" points="364.75,-173.5 228,-173.5 228,-102.5 364.75,-102.5 364.75,-173.5"/>
<text xml:space="preserve" text-anchor="middle" x="296.38" y="-160.95" font-family="Courier,monospace" font-size="9.00">CONCRETE_OBSERVER_B</text>
<text xml:space="preserve" text-anchor="middle" x="296.38" y="-150.45" font-family="Courier,monospace" font-size="9.00">─────────────────</text>
<text xml:space="preserve" text-anchor="middle" x="296.38" y="-139.95" font-family="Courier,monospace" font-size="9.00">+ subject: SUBJECT</text>
<text xml:space="preserve" text-anchor="middle" x="296.38" y="-129.45" font-family="Courier,monospace" font-size="9.00">+ observed_state: STATE</text>
<text xml:space="preserve" text-anchor="middle" x="296.38" y="-118.95" font-family="Courier,monospace" font-size="9.00">─────────────────</text>
<text xml:space="preserve" text-anchor="middle" x="296.38" y="-108.45" font-family="Courier,monospace" font-size="9.00">+ update(s: SUBJECT)</text>
</g>
<!-- CONCRETE_OBSERVER_B&#45;&gt;OBSERVER -->
<g id="edge3" class="edge">
<title>CONCRETE_OBSERVER_B&#45;&gt;OBSERVER</title>
<path fill="none" stroke="black" d="M297.34,-173.7C297.79,-228.82 294.24,-339.03 263.38,-426 257.29,-443.14 254.24,-447.65 241.38,-460.5 237.55,-464.32 233.32,-467.96 228.91,-471.4"/>
<polygon fill="none" stroke="black" points="226.9,-468.53 220.88,-477.25 231.02,-474.19 226.9,-468.53"/>
</g>
<!-- CONCRETE_OBSERVER_B&#45;&gt;CONCRETE_SUBJECT -->
<g id="edge6" class="edge">
<title>CONCRETE_OBSERVER_B&#45;&gt;CONCRETE_SUBJECT</title>
<path fill="none" stroke="black" stroke-dasharray="5,2" d="M255.54,-173.87C249.24,-179.62 242.91,-185.62 237.12,-191.5 229.18,-199.57 221.04,-208.48 213.36,-217.24"/>
<polygon fill="black" stroke="black" points="206.95,-224.63 210.1,-214.13 209.43,-221.78 213.5,-217.08 213.5,-217.08 213.5,-217.08 209.43,-221.78 216.9,-220.02 206.95,-224.63"/>
<text xml:space="preserve" text-anchor="middle" x="256.25" y="-194.7" font-family="Times New Roman,serif" font-size="14.00">subject</text>
</g>
<!-- CLIENT -->
<g id="node6" class="node">
<title>CLIENT</title>
<polygon fill="lightgray" stroke="black" points="225,-50 119.75,-50 119.75,0 225,0 225,-50"/>
<text xml:space="preserve" text-anchor="middle" x="172.38" y="-37.45" font-family="Courier,monospace" font-size="9.00">CLIENT</text>
<text xml:space="preserve" text-anchor="middle" x="172.38" y="-26.95" font-family="Courier,monospace" font-size="9.00">─────────────────</text>
<text xml:space="preserve" text-anchor="middle" x="172.38" y="-16.45" font-family="Courier,monospace" font-size="9.00">─────────────────</text>
<text xml:space="preserve" text-anchor="middle" x="172.38" y="-5.95" font-family="Courier,monospace" font-size="9.00">+ run()</text>
</g>
<!-- CLIENT&#45;&gt;CONCRETE_SUBJECT -->
<g id="edge7" class="edge">
<title>CLIENT&#45;&gt;CONCRETE_SUBJECT</title>
<path fill="none" stroke="black" stroke-dasharray="1,5" d="M172.48,-50.31C172.64,-88.71 172.95,-164.25 173.16,-214.88"/>
<polygon fill="black" stroke="black" points="173.2,-224.7 168.66,-214.72 173.19,-220.92 173.16,-214.7 173.16,-214.7 173.16,-214.7 173.19,-220.92 177.66,-214.68 173.2,-224.7"/>
<text xml:space="preserve" text-anchor="middle" x="191.72" y="-132.95" font-family="Times New Roman,serif" font-size="14.00">creates</text>
</g>
<!-- CLIENT&#45;&gt;CONCRETE_OBSERVER_A -->
<g id="edge8" class="edge">
<title>CLIENT&#45;&gt;CONCRETE_OBSERVER_A</title>
<path fill="none" stroke="black" stroke-dasharray="1,5" d="M140.02,-50.42C133.43,-55.93 126.73,-61.95 120.88,-68 113.42,-75.71 106.05,-84.47 99.29,-93.11"/>
<polygon fill="black" stroke="black" points="93.23,-101.04 95.73,-90.36 95.53,-98.03 99.3,-93.09 99.3,-93.09 99.3,-93.09 95.53,-98.03 102.88,-95.82 93.23,-101.04"/>
<text xml:space="preserve" text-anchor="middle" x="139.62" y="-71.2" font-family="Times New Roman,serif" font-size="14.00">creates</text>
</g>
<!-- CLIENT&#45;&gt;CONCRETE_OBSERVER_B -->
<g id="edge9" class="edge">
<title>CLIENT&#45;&gt;CONCRETE_OBSERVER_B</title>
<path fill="none" stroke="black" stroke-dasharray="1,5" d="M199.59,-50.36C214.17,-63.41 232.55,-79.86 249.36,-94.91"/>
<polygon fill="black" stroke="black" points="256.56,-101.36 246.1,-98.04 253.74,-98.83 249.1,-94.69 249.1,-94.69 249.1,-94.69 253.74,-98.83 252.11,-91.33 256.56,-101.36"/>
<text xml:space="preserve" text-anchor="middle" x="253.12" y="-71.2" font-family="Times New Roman,serif" font-size="14.00">creates</text>
</g>
</g>
</svg>
