<?xml version="1.0" encoding="UTF-8" standalone="no"?>
<!DOCTYPE svg PUBLIC "-//W3C//DTD SVG 1.1//EN"
 "http://www.w3.org/Graphics/SVG/1.1/DTD/svg11.dtd">
<!-- Generated by graphviz version 14.1.1 (20251213.1925)
 -->
<!-- Title: InheritanceTree Pages: 1 -->
<svg width="464pt" height="2085pt"
 viewBox="0.00 0.00 464.00 2085.00" xmlns="http://www.w3.org/2000/svg" xmlns:xlink="http://www.w3.org/1999/xlink">
<g id="graph0" class="graph" transform="scale(1 1) rotate(0) translate(4 2080.5)">
<title>InheritanceTree</title>
<polygon fill="white" stroke="none" points="-4,4 -4,-2080.5 459.75,-2080.5 459.75,4 -4,4"/>
<text xml:space="preserve" text-anchor="middle" x="227.88" y="-7.2" font-family="Times New Roman,serif" font-size="14.00">simple_graphviz &#45; Inheritance Hierarchy</text>
<!-- BON_DIAGRAM_BUILDER -->
<g id="node1" class="node">
<title>BON_DIAGRAM_BUILDER</title>
<path fill="none" stroke="black" d="M196,-60.5C196,-60.5 38.25,-60.5 38.25,-60.5 32.25,-60.5 26.25,-54.5 26.25,-48.5 26.25,-48.5 26.25,-36.5 26.25,-36.5 26.25,-30.5 32.25,-24.5 38.25,-24.5 38.25,-24.5 196,-24.5 196,-24.5 202,-24.5 208,-30.5 208,-36.5 208,-36.5 208,-48.5 208,-48.5 208,-54.5 202,-60.5 196,-60.5"/>
<text xml:space="preserve" text-anchor="middle" x="117.12" y="-37.45" font-family="Times New Roman,serif" font-size="14.00">BON_DIAGRAM_BUILDER</text>
</g>
<!-- CONTRACT_COVERAGE_BUILDER -->
<g id="node2" class="node">
<title>CONTRACT_COVERAGE_BUILDER</title>
<path fill="none" stroke="black" d="M222.25,-132.5C222.25,-132.5 12,-132.5 12,-132.5 6,-132.5 0,-126.5 0,-120.5 0,-120.5 0,-108.5 0,-108.5 0,-102.5 6,-96.5 12,-96.5 12,-96.5 222.25,-96.5 222.25,-96.5 228.25,-96.5 234.25,-102.5 234.25,-108.5 234.25,-108.5 234.25,-120.5 234.25,-120.5 234.25,-126.5 228.25,-132.5 222.25,-132.5"/>
<text xml:space="preserve" text-anchor="middle" x="117.12" y="-109.45" font-family="Times New Roman,serif" font-size="14.00">CONTRACT_COVERAGE_BUILDER</text>
</g>
<!-- DEPENDENCY_BUILDER -->
<g id="node3" class="node">
<title>DEPENDENCY_BUILDER</title>
<path fill="none" stroke="black" d="M190.75,-204.5C190.75,-204.5 43.5,-204.5 43.5,-204.5 37.5,-204.5 31.5,-198.5 31.5,-192.5 31.5,-192.5 31.5,-180.5 31.5,-180.5 31.5,-174.5 37.5,-168.5 43.5,-168.5 43.5,-168.5 190.75,-168.5 190.75,-168.5 196.75,-168.5 202.75,-174.5 202.75,-180.5 202.75,-180.5 202.75,-192.5 202.75,-192.5 202.75,-198.5 196.75,-204.5 190.75,-204.5"/>
<text xml:space="preserve" text-anchor="middle" x="117.12" y="-181.45" font-family="Times New Roman,serif" font-size="14.00">DEPENDENCY_BUILDER</text>
</g>
<!-- DOT_ATTRIBUTES -->
<g id="node4" class="node">
<title>DOT_ATTRIBUTES</title>
<path fill="none" stroke="black" d="M170.88,-420.5C170.88,-420.5 63.38,-420.5 63.38,-420.5 57.38,-420.5 51.38,-414.5 51.38,-408.5 51.38,-408.5 51.38,-396.5 51.38,-396.5 51.38,-390.5 57.38,-384.5 63.38,-384.5 63.38,-384.5 170.88,-384.5 170.88,-384.5 176.88,-384.5 182.88,-390.5 182.88,-396.5 182.88,-396.5 182.88,-408.5 182.88,-408.5 182.88,-414.5 176.88,-420.5 170.88,-420.5"/>
<text xml:space="preserve" text-anchor="middle" x="117.12" y="-397.45" font-family="Times New Roman,serif" font-size="14.00">DOT_ATTRIBUTES</text>
</g>
<!-- ANY -->
<g id="node5" class="node">
<title>ANY</title>
<path fill="none" stroke="black" d="M414,-348.5C414,-348.5 384,-348.5 384,-348.5 378,-348.5 372,-342.5 372,-336.5 372,-336.5 372,-324.5 372,-324.5 372,-318.5 378,-312.5 384,-312.5 384,-312.5 414,-312.5 414,-312.5 420,-312.5 426,-318.5 426,-324.5 426,-324.5 426,-336.5 426,-336.5 426,-342.5 420,-348.5 414,-348.5"/>
<text xml:space="preserve" text-anchor="middle" x="399" y="-325.45" font-family="Times New Roman,serif" font-size="14.00">ANY</text>
</g>
<!-- DOT_ATTRIBUTES&#45;&gt;ANY -->
<g id="edge1" class="edge">
<title>DOT_ATTRIBUTES&#45;&gt;ANY</title>
<path fill="none" stroke="black" d="M183.07,-408.5C268.82,-408.5 407.75,-408.5 407.75,-408.5 407.75,-408.5 407.75,-360.5 407.75,-360.5"/>
<polygon fill="none" stroke="black" points="411.25,-360.5 407.75,-350.5 404.25,-360.5 411.25,-360.5"/>
</g>
<!-- DOT_ATTRIBUTES&#45;&gt;ANY -->
<g id="edge4" class="edge">
<title>DOT_ATTRIBUTES&#45;&gt;ANY</title>
<path fill="none" stroke="black" d="M183.12,-396.5C263.8,-396.5 389.75,-396.5 389.75,-396.5 389.75,-396.5 389.75,-360.4 389.75,-360.4"/>
<polygon fill="none" stroke="black" points="393.25,-360.4 389.75,-350.4 386.25,-360.4 393.25,-360.4"/>
</g>
<!-- DOT_EDGE -->
<g id="node6" class="node">
<title>DOT_EDGE</title>
<path fill="none" stroke="black" d="M148.38,-492.5C148.38,-492.5 85.88,-492.5 85.88,-492.5 79.88,-492.5 73.88,-486.5 73.88,-480.5 73.88,-480.5 73.88,-468.5 73.88,-468.5 73.88,-462.5 79.88,-456.5 85.88,-456.5 85.88,-456.5 148.38,-456.5 148.38,-456.5 154.38,-456.5 160.38,-462.5 160.38,-468.5 160.38,-468.5 160.38,-480.5 160.38,-480.5 160.38,-486.5 154.38,-492.5 148.38,-492.5"/>
<text xml:space="preserve" text-anchor="middle" x="117.12" y="-469.45" font-family="Times New Roman,serif" font-size="14.00">DOT_EDGE</text>
</g>
<!-- DOT_GRAPH -->
<g id="node7" class="node">
<title>DOT_GRAPH</title>
<path fill="none" stroke="black" d="M153.25,-564.5C153.25,-564.5 81,-564.5 81,-564.5 75,-564.5 69,-558.5 69,-552.5 69,-552.5 69,-540.5 69,-540.5 69,-534.5 75,-528.5 81,-528.5 81,-528.5 153.25,-528.5 153.25,-528.5 159.25,-528.5 165.25,-534.5 165.25,-540.5 165.25,-540.5 165.25,-552.5 165.25,-552.5 165.25,-558.5 159.25,-564.5 153.25,-564.5"/>
<text xml:space="preserve" text-anchor="middle" x="117.12" y="-541.45" font-family="Times New Roman,serif" font-size="14.00">DOT_GRAPH</text>
</g>
<!-- DOT_NODE -->
<g id="node8" class="node">
<title>DOT_NODE</title>
<path fill="none" stroke="black" d="M149.12,-636.5C149.12,-636.5 85.12,-636.5 85.12,-636.5 79.12,-636.5 73.12,-630.5 73.12,-624.5 73.12,-624.5 73.12,-612.5 73.12,-612.5 73.12,-606.5 79.12,-600.5 85.12,-600.5 85.12,-600.5 149.12,-600.5 149.12,-600.5 155.12,-600.5 161.12,-606.5 161.12,-612.5 161.12,-612.5 161.12,-624.5 161.12,-624.5 161.12,-630.5 155.12,-636.5 149.12,-636.5"/>
<text xml:space="preserve" text-anchor="middle" x="117.12" y="-613.45" font-family="Times New Roman,serif" font-size="14.00">DOT_NODE</text>
</g>
<!-- DOT_SUBGRAPH -->
<g id="node9" class="node">
<title>DOT_SUBGRAPH</title>
<path fill="none" stroke="black" d="M166.38,-708.5C166.38,-708.5 67.88,-708.5 67.88,-708.5 61.88,-708.5 55.88,-702.5 55.88,-696.5 55.88,-696.5 55.88,-684.5 55.88,-684.5 55.88,-678.5 61.88,-672.5 67.88,-672.5 67.88,-672.5 166.38,-672.5 166.38,-672.5 172.38,-672.5 178.38,-678.5 178.38,-684.5 178.38,-684.5 178.38,-696.5 178.38,-696.5 178.38,-702.5 172.38,-708.5 166.38,-708.5"/>
<text xml:space="preserve" text-anchor="middle" x="117.12" y="-685.45" font-family="Times New Roman,serif" font-size="14.00">DOT_SUBGRAPH</text>
</g>
<!-- ECF_PARSER -->
<g id="node10" class="node">
<title>ECF_PARSER</title>
<path fill="none" stroke="black" d="M154,-780.5C154,-780.5 80.25,-780.5 80.25,-780.5 74.25,-780.5 68.25,-774.5 68.25,-768.5 68.25,-768.5 68.25,-756.5 68.25,-756.5 68.25,-750.5 74.25,-744.5 80.25,-744.5 80.25,-744.5 154,-744.5 154,-744.5 160,-744.5 166,-750.5 166,-756.5 166,-756.5 166,-768.5 166,-768.5 166,-774.5 160,-780.5 154,-780.5"/>
<text xml:space="preserve" text-anchor="middle" x="117.12" y="-757.45" font-family="Times New Roman,serif" font-size="14.00">ECF_PARSER</text>
</g>
<!-- EIFFEL_GRAPH_GENERATOR -->
<g id="node11" class="node">
<title>EIFFEL_GRAPH_GENERATOR</title>
<path fill="none" stroke="black" d="M205,-852.5C205,-852.5 29.25,-852.5 29.25,-852.5 23.25,-852.5 17.25,-846.5 17.25,-840.5 17.25,-840.5 17.25,-828.5 17.25,-828.5 17.25,-822.5 23.25,-816.5 29.25,-816.5 29.25,-816.5 205,-816.5 205,-816.5 211,-816.5 217,-822.5 217,-828.5 217,-828.5 217,-840.5 217,-840.5 217,-846.5 211,-852.5 205,-852.5"/>
<text xml:space="preserve" text-anchor="middle" x="117.12" y="-829.45" font-family="Times New Roman,serif" font-size="14.00">EIFFEL_GRAPH_GENERATOR</text>
</g>
<!-- FLOWCHART_BUILDER -->
<g id="node12" class="node">
<title>FLOWCHART_BUILDER</title>
<path fill="none" stroke="black" d="M187.75,-924.5C187.75,-924.5 46.5,-924.5 46.5,-924.5 40.5,-924.5 34.5,-918.5 34.5,-912.5 34.5,-912.5 34.5,-900.5 34.5,-900.5 34.5,-894.5 40.5,-888.5 46.5,-888.5 46.5,-888.5 187.75,-888.5 187.75,-888.5 193.75,-888.5 199.75,-894.5 199.75,-900.5 199.75,-900.5 199.75,-912.5 199.75,-912.5 199.75,-918.5 193.75,-924.5 187.75,-924.5"/>
<text xml:space="preserve" text-anchor="middle" x="117.12" y="-901.45" font-family="Times New Roman,serif" font-size="14.00">FLOWCHART_BUILDER</text>
</g>
<!-- GRAPHVIZ_CLI -->
<g id="node13" class="node">
<title>GRAPHVIZ_CLI</title>
<path fill="none" stroke="black" d="M161.5,-996.5C161.5,-996.5 72.75,-996.5 72.75,-996.5 66.75,-996.5 60.75,-990.5 60.75,-984.5 60.75,-984.5 60.75,-972.5 60.75,-972.5 60.75,-966.5 66.75,-960.5 72.75,-960.5 72.75,-960.5 161.5,-960.5 161.5,-960.5 167.5,-960.5 173.5,-966.5 173.5,-972.5 173.5,-972.5 173.5,-984.5 173.5,-984.5 173.5,-990.5 167.5,-996.5 161.5,-996.5"/>
<text xml:space="preserve" text-anchor="middle" x="117.12" y="-973.45" font-family="Times New Roman,serif" font-size="14.00">GRAPHVIZ_CLI</text>
</g>
<!-- GRAPHVIZ_ERROR -->
<g id="node14" class="node">
<title>GRAPHVIZ_ERROR</title>
<path fill="none" stroke="black" d="M173.12,-1068.5C173.12,-1068.5 61.12,-1068.5 61.12,-1068.5 55.12,-1068.5 49.12,-1062.5 49.12,-1056.5 49.12,-1056.5 49.12,-1044.5 49.12,-1044.5 49.12,-1038.5 55.12,-1032.5 61.12,-1032.5 61.12,-1032.5 173.12,-1032.5 173.12,-1032.5 179.12,-1032.5 185.12,-1038.5 185.12,-1044.5 185.12,-1044.5 185.12,-1056.5 185.12,-1056.5 185.12,-1062.5 179.12,-1068.5 173.12,-1068.5"/>
<text xml:space="preserve" text-anchor="middle" x="117.12" y="-1045.45" font-family="Times New Roman,serif" font-size="14.00">GRAPHVIZ_ERROR</text>
</g>
<!-- GRAPHVIZ_PAGE_SIZER -->
<g id="node15" class="node">
<title>GRAPHVIZ_PAGE_SIZER</title>
<path fill="none" stroke="black" d="M190,-1140.5C190,-1140.5 44.25,-1140.5 44.25,-1140.5 38.25,-1140.5 32.25,-1134.5 32.25,-1128.5 32.25,-1128.5 32.25,-1116.5 32.25,-1116.5 32.25,-1110.5 38.25,-1104.5 44.25,-1104.5 44.25,-1104.5 190,-1104.5 190,-1104.5 196,-1104.5 202,-1110.5 202,-1116.5 202,-1116.5 202,-1128.5 202,-1128.5 202,-1134.5 196,-1140.5 190,-1140.5"/>
<text xml:space="preserve" text-anchor="middle" x="117.12" y="-1117.45" font-family="Times New Roman,serif" font-size="14.00">GRAPHVIZ_PAGE_SIZER</text>
</g>
<!-- GRAPHVIZ_RENDERER -->
<g id="node16" class="node">
<title>GRAPHVIZ_RENDERER</title>
<path fill="none" stroke="black" d="M186.25,-348.5C186.25,-348.5 48,-348.5 48,-348.5 42,-348.5 36,-342.5 36,-336.5 36,-336.5 36,-324.5 36,-324.5 36,-318.5 42,-312.5 48,-312.5 48,-312.5 186.25,-312.5 186.25,-312.5 192.25,-312.5 198.25,-318.5 198.25,-324.5 198.25,-324.5 198.25,-336.5 198.25,-336.5 198.25,-342.5 192.25,-348.5 186.25,-348.5"/>
<text xml:space="preserve" text-anchor="middle" x="117.12" y="-325.45" font-family="Times New Roman,serif" font-size="14.00">GRAPHVIZ_RENDERER</text>
</g>
<!-- GRAPHVIZ_RENDERER&#45;&gt;ANY -->
<g id="edge2" class="edge">
<title>GRAPHVIZ_RENDERER&#45;&gt;ANY</title>
<path fill="none" stroke="black" d="M198.65,-324.5C198.65,-324.5 360.14,-324.5 360.14,-324.5"/>
<polygon fill="none" stroke="black" points="360.14,-328 370.14,-324.5 360.14,-321 360.14,-328"/>
</g>
<!-- GRAPHVIZ_RENDERER&#45;&gt;ANY -->
<g id="edge5" class="edge">
<title>GRAPHVIZ_RENDERER&#45;&gt;ANY</title>
<path fill="none" stroke="black" d="M198.65,-336.5C198.65,-336.5 360.14,-336.5 360.14,-336.5"/>
<polygon fill="none" stroke="black" points="360.14,-340 370.14,-336.5 360.14,-333 360.14,-340"/>
</g>
<!-- GRAPHVIZ_RESULT -->
<g id="node17" class="node">
<title>GRAPHVIZ_RESULT</title>
<path fill="none" stroke="black" d="M175.75,-1212.5C175.75,-1212.5 58.5,-1212.5 58.5,-1212.5 52.5,-1212.5 46.5,-1206.5 46.5,-1200.5 46.5,-1200.5 46.5,-1188.5 46.5,-1188.5 46.5,-1182.5 52.5,-1176.5 58.5,-1176.5 58.5,-1176.5 175.75,-1176.5 175.75,-1176.5 181.75,-1176.5 187.75,-1182.5 187.75,-1188.5 187.75,-1188.5 187.75,-1200.5 187.75,-1200.5 187.75,-1206.5 181.75,-1212.5 175.75,-1212.5"/>
<text xml:space="preserve" text-anchor="middle" x="117.12" y="-1189.45" font-family="Times New Roman,serif" font-size="14.00">GRAPHVIZ_RESULT</text>
</g>
<!-- GRAPHVIZ_STYLE -->
<g id="node18" class="node">
<title>GRAPHVIZ_STYLE</title>
<path fill="none" stroke="black" d="M171.62,-1284.5C171.62,-1284.5 62.62,-1284.5 62.62,-1284.5 56.62,-1284.5 50.62,-1278.5 50.62,-1272.5 50.62,-1272.5 50.62,-1260.5 50.62,-1260.5 50.62,-1254.5 56.62,-1248.5 62.62,-1248.5 62.62,-1248.5 171.62,-1248.5 171.62,-1248.5 177.62,-1248.5 183.62,-1254.5 183.62,-1260.5 183.62,-1260.5 183.62,-1272.5 183.62,-1272.5 183.62,-1278.5 177.62,-1284.5 171.62,-1284.5"/>
<text xml:space="preserve" text-anchor="middle" x="117.12" y="-1261.45" font-family="Times New Roman,serif" font-size="14.00">GRAPHVIZ_STYLE</text>
</g>
<!-- GRAPH_GEN_CLI -->
<g id="node19" class="node">
<title>GRAPH_GEN_CLI</title>
<path fill="none" stroke="black" d="M167.5,-1356.5C167.5,-1356.5 66.75,-1356.5 66.75,-1356.5 60.75,-1356.5 54.75,-1350.5 54.75,-1344.5 54.75,-1344.5 54.75,-1332.5 54.75,-1332.5 54.75,-1326.5 60.75,-1320.5 66.75,-1320.5 66.75,-1320.5 167.5,-1320.5 167.5,-1320.5 173.5,-1320.5 179.5,-1326.5 179.5,-1332.5 179.5,-1332.5 179.5,-1344.5 179.5,-1344.5 179.5,-1350.5 173.5,-1356.5 167.5,-1356.5"/>
<text xml:space="preserve" text-anchor="middle" x="117.12" y="-1333.45" font-family="Times New Roman,serif" font-size="14.00">GRAPH_GEN_CLI</text>
</g>
<!-- INHERITANCE_BUILDER -->
<g id="node20" class="node">
<title>INHERITANCE_BUILDER</title>
<path fill="none" stroke="black" d="M190.75,-1428.5C190.75,-1428.5 43.5,-1428.5 43.5,-1428.5 37.5,-1428.5 31.5,-1422.5 31.5,-1416.5 31.5,-1416.5 31.5,-1404.5 31.5,-1404.5 31.5,-1398.5 37.5,-1392.5 43.5,-1392.5 43.5,-1392.5 190.75,-1392.5 190.75,-1392.5 196.75,-1392.5 202.75,-1398.5 202.75,-1404.5 202.75,-1404.5 202.75,-1416.5 202.75,-1416.5 202.75,-1422.5 196.75,-1428.5 190.75,-1428.5"/>
<text xml:space="preserve" text-anchor="middle" x="117.12" y="-1405.45" font-family="Times New Roman,serif" font-size="14.00">INHERITANCE_BUILDER</text>
</g>
<!-- PHYSICS_POST_PROCESSOR -->
<g id="node21" class="node">
<title>PHYSICS_POST_PROCESSOR</title>
<path fill="none" stroke="black" d="M202.75,-1500.5C202.75,-1500.5 31.5,-1500.5 31.5,-1500.5 25.5,-1500.5 19.5,-1494.5 19.5,-1488.5 19.5,-1488.5 19.5,-1476.5 19.5,-1476.5 19.5,-1470.5 25.5,-1464.5 31.5,-1464.5 31.5,-1464.5 202.75,-1464.5 202.75,-1464.5 208.75,-1464.5 214.75,-1470.5 214.75,-1476.5 214.75,-1476.5 214.75,-1488.5 214.75,-1488.5 214.75,-1494.5 208.75,-1500.5 202.75,-1500.5"/>
<text xml:space="preserve" text-anchor="middle" x="117.12" y="-1477.45" font-family="Times New Roman,serif" font-size="14.00">PHYSICS_POST_PROCESSOR</text>
</g>
<!-- SIMPLE_GRAPHVIZ -->
<g id="node22" class="node">
<title>SIMPLE_GRAPHVIZ</title>
<path fill="none" stroke="black" d="M175,-276.5C175,-276.5 59.25,-276.5 59.25,-276.5 53.25,-276.5 47.25,-270.5 47.25,-264.5 47.25,-264.5 47.25,-252.5 47.25,-252.5 47.25,-246.5 53.25,-240.5 59.25,-240.5 59.25,-240.5 175,-240.5 175,-240.5 181,-240.5 187,-246.5 187,-252.5 187,-252.5 187,-264.5 187,-264.5 187,-270.5 181,-276.5 175,-276.5"/>
<text xml:space="preserve" text-anchor="middle" x="117.12" y="-253.45" font-family="Times New Roman,serif" font-size="14.00">SIMPLE_GRAPHVIZ</text>
</g>
<!-- SIMPLE_GRAPHVIZ&#45;&gt;ANY -->
<g id="edge3" class="edge">
<title>SIMPLE_GRAPHVIZ&#45;&gt;ANY</title>
<path fill="none" stroke="black" d="M187.48,-252.5C273.49,-252.5 407.75,-252.5 407.75,-252.5 407.75,-252.5 407.75,-300.5 407.75,-300.5"/>
<polygon fill="none" stroke="black" points="404.25,-300.5 407.75,-310.5 411.25,-300.5 404.25,-300.5"/>
</g>
<!-- SIMPLE_GRAPHVIZ&#45;&gt;ANY -->
<g id="edge6" class="edge">
<title>SIMPLE_GRAPHVIZ&#45;&gt;ANY</title>
<path fill="none" stroke="black" d="M187.33,-264.5C268.11,-264.5 389.75,-264.5 389.75,-264.5 389.75,-264.5 389.75,-300.6 389.75,-300.6"/>
<polygon fill="none" stroke="black" points="386.25,-300.6 389.75,-310.6 393.25,-300.6 386.25,-300.6"/>
</g>
<!-- STATE_MACHINE_BUILDER -->
<g id="node23" class="node">
<title>STATE_MACHINE_BUILDER</title>
<path fill="none" stroke="black" d="M200.88,-1572.5C200.88,-1572.5 33.38,-1572.5 33.38,-1572.5 27.38,-1572.5 21.38,-1566.5 21.38,-1560.5 21.38,-1560.5 21.38,-1548.5 21.38,-1548.5 21.38,-1542.5 27.38,-1536.5 33.38,-1536.5 33.38,-1536.5 200.88,-1536.5 200.88,-1536.5 206.88,-1536.5 212.88,-1542.5 212.88,-1548.5 212.88,-1548.5 212.88,-1560.5 212.88,-1560.5 212.88,-1566.5 206.88,-1572.5 200.88,-1572.5"/>
<text xml:space="preserve" text-anchor="middle" x="117.12" y="-1549.45" font-family="Times New Roman,serif" font-size="14.00">STATE_MACHINE_BUILDER</text>
</g>
<!-- TEST_ADVERSARIAL -->
<g id="node24" class="node">
<title>TEST_ADVERSARIAL</title>
<path fill="none" stroke="black" d="M180.25,-2004.5C180.25,-2004.5 54,-2004.5 54,-2004.5 48,-2004.5 42,-1998.5 42,-1992.5 42,-1992.5 42,-1980.5 42,-1980.5 42,-1974.5 48,-1968.5 54,-1968.5 54,-1968.5 180.25,-1968.5 180.25,-1968.5 186.25,-1968.5 192.25,-1974.5 192.25,-1980.5 192.25,-1980.5 192.25,-1992.5 192.25,-1992.5 192.25,-1998.5 186.25,-2004.5 180.25,-2004.5"/>
<text xml:space="preserve" text-anchor="middle" x="117.12" y="-1981.45" font-family="Times New Roman,serif" font-size="14.00">TEST_ADVERSARIAL</text>
</g>
<!-- EQA_TEST_SET -->
<g id="node25" class="node">
<title>EQA_TEST_SET</title>
<path fill="none" stroke="black" d="M443.75,-1824.5C443.75,-1824.5 354.25,-1824.5 354.25,-1824.5 348.25,-1824.5 342.25,-1818.5 342.25,-1812.5 342.25,-1812.5 342.25,-1800.5 342.25,-1800.5 342.25,-1794.5 348.25,-1788.5 354.25,-1788.5 354.25,-1788.5 443.75,-1788.5 443.75,-1788.5 449.75,-1788.5 455.75,-1794.5 455.75,-1800.5 455.75,-1800.5 455.75,-1812.5 455.75,-1812.5 455.75,-1818.5 449.75,-1824.5 443.75,-1824.5"/>
<text xml:space="preserve" text-anchor="middle" x="399" y="-1801.45" font-family="Times New Roman,serif" font-size="14.00">EQA_TEST_SET</text>
</g>
<!-- TEST_ADVERSARIAL&#45;&gt;EQA_TEST_SET -->
<g id="edge7" class="edge">
<title>TEST_ADVERSARIAL&#45;&gt;EQA_TEST_SET</title>
<path fill="none" stroke="black" d="M188.75,-1968.21C188.75,-1923.53 188.75,-1812.5 188.75,-1812.5 188.75,-1812.5 330.31,-1812.5 330.31,-1812.5"/>
<polygon fill="none" stroke="black" points="330.31,-1816 340.31,-1812.5 330.31,-1809 330.31,-1816"/>
</g>
<!-- TEST_APP -->
<g id="node26" class="node">
<title>TEST_APP</title>
<path fill="none" stroke="black" d="M145,-2076.5C145,-2076.5 89.25,-2076.5 89.25,-2076.5 83.25,-2076.5 77.25,-2070.5 77.25,-2064.5 77.25,-2064.5 77.25,-2052.5 77.25,-2052.5 77.25,-2046.5 83.25,-2040.5 89.25,-2040.5 89.25,-2040.5 145,-2040.5 145,-2040.5 151,-2040.5 157,-2046.5 157,-2052.5 157,-2052.5 157,-2064.5 157,-2064.5 157,-2070.5 151,-2076.5 145,-2076.5"/>
<text xml:space="preserve" text-anchor="middle" x="117.12" y="-2053.45" font-family="Times New Roman,serif" font-size="14.00">TEST_APP</text>
</g>
<!-- TEST_BUILDERS -->
<g id="node27" class="node">
<title>TEST_BUILDERS</title>
<path fill="none" stroke="black" d="M165.62,-1932.5C165.62,-1932.5 68.62,-1932.5 68.62,-1932.5 62.62,-1932.5 56.62,-1926.5 56.62,-1920.5 56.62,-1920.5 56.62,-1908.5 56.62,-1908.5 56.62,-1902.5 62.62,-1896.5 68.62,-1896.5 68.62,-1896.5 165.62,-1896.5 165.62,-1896.5 171.62,-1896.5 177.62,-1902.5 177.62,-1908.5 177.62,-1908.5 177.62,-1920.5 177.62,-1920.5 177.62,-1926.5 171.62,-1932.5 165.62,-1932.5"/>
<text xml:space="preserve" text-anchor="middle" x="117.12" y="-1909.45" font-family="Times New Roman,serif" font-size="14.00">TEST_BUILDERS</text>
</g>
<!-- TEST_BUILDERS&#45;&gt;EQA_TEST_SET -->
<g id="edge8" class="edge">
<title>TEST_BUILDERS&#45;&gt;EQA_TEST_SET</title>
<path fill="none" stroke="black" d="M177.96,-1914.5C265.8,-1914.5 417.75,-1914.5 417.75,-1914.5 417.75,-1914.5 417.75,-1836.33 417.75,-1836.33"/>
<polygon fill="none" stroke="black" points="421.25,-1836.33 417.75,-1826.33 414.25,-1836.33 421.25,-1836.33"/>
</g>
<!-- TEST_DOT_GRAPH -->
<g id="node28" class="node">
<title>TEST_DOT_GRAPH</title>
<path fill="none" stroke="black" d="M172.75,-1860.5C172.75,-1860.5 61.5,-1860.5 61.5,-1860.5 55.5,-1860.5 49.5,-1854.5 49.5,-1848.5 49.5,-1848.5 49.5,-1836.5 49.5,-1836.5 49.5,-1830.5 55.5,-1824.5 61.5,-1824.5 61.5,-1824.5 172.75,-1824.5 172.75,-1824.5 178.75,-1824.5 184.75,-1830.5 184.75,-1836.5 184.75,-1836.5 184.75,-1848.5 184.75,-1848.5 184.75,-1854.5 178.75,-1860.5 172.75,-1860.5"/>
<text xml:space="preserve" text-anchor="middle" x="117.12" y="-1837.45" font-family="Times New Roman,serif" font-size="14.00">TEST_DOT_GRAPH</text>
</g>
<!-- TEST_DOT_GRAPH&#45;&gt;EQA_TEST_SET -->
<g id="edge9" class="edge">
<title>TEST_DOT_GRAPH&#45;&gt;EQA_TEST_SET</title>
<path fill="none" stroke="black" d="M185.1,-1842.5C262.91,-1842.5 379.75,-1842.5 379.75,-1842.5 379.75,-1842.5 379.75,-1836.44 379.75,-1836.44"/>
<polygon fill="none" stroke="black" points="383.25,-1836.44 379.75,-1826.44 376.25,-1836.44 383.25,-1836.44"/>
</g>
<!-- TEST_RENDERING_DEMOS -->
<g id="node29" class="node">
<title>TEST_RENDERING_DEMOS</title>
<path fill="none" stroke="black" d="M199,-1788.5C199,-1788.5 35.25,-1788.5 35.25,-1788.5 29.25,-1788.5 23.25,-1782.5 23.25,-1776.5 23.25,-1776.5 23.25,-1764.5 23.25,-1764.5 23.25,-1758.5 29.25,-1752.5 35.25,-1752.5 35.25,-1752.5 199,-1752.5 199,-1752.5 205,-1752.5 211,-1758.5 211,-1764.5 211,-1764.5 211,-1776.5 211,-1776.5 211,-1782.5 205,-1788.5 199,-1788.5"/>
<text xml:space="preserve" text-anchor="middle" x="117.12" y="-1765.45" font-family="Times New Roman,serif" font-size="14.00">TEST_RENDERING_DEMOS</text>
</g>
<!-- TEST_RENDERING_DEMOS&#45;&gt;EQA_TEST_SET -->
<g id="edge10" class="edge">
<title>TEST_RENDERING_DEMOS&#45;&gt;EQA_TEST_SET</title>
<path fill="none" stroke="black" d="M201.75,-1788.99C201.75,-1795.16 201.75,-1800.5 201.75,-1800.5 201.75,-1800.5 330.43,-1800.5 330.43,-1800.5"/>
<polygon fill="none" stroke="black" points="330.43,-1804 340.43,-1800.5 330.43,-1797 330.43,-1804"/>
</g>
<!-- TEST_SCOOP_CONSUMER -->
<g id="node30" class="node">
<title>TEST_SCOOP_CONSUMER</title>
<path fill="none" stroke="black" d="M195.62,-1716.5C195.62,-1716.5 38.62,-1716.5 38.62,-1716.5 32.62,-1716.5 26.62,-1710.5 26.62,-1704.5 26.62,-1704.5 26.62,-1692.5 26.62,-1692.5 26.62,-1686.5 32.62,-1680.5 38.62,-1680.5 38.62,-1680.5 195.62,-1680.5 195.62,-1680.5 201.62,-1680.5 207.62,-1686.5 207.62,-1692.5 207.62,-1692.5 207.62,-1704.5 207.62,-1704.5 207.62,-1710.5 201.62,-1716.5 195.62,-1716.5"/>
<text xml:space="preserve" text-anchor="middle" x="117.12" y="-1693.45" font-family="Times New Roman,serif" font-size="14.00">TEST_SCOOP_CONSUMER</text>
</g>
<!-- TEST_SCOOP_CONSUMER&#45;&gt;EQA_TEST_SET -->
<g id="edge11" class="edge">
<title>TEST_SCOOP_CONSUMER&#45;&gt;EQA_TEST_SET</title>
<path fill="none" stroke="black" d="M207.84,-1698.5C273.86,-1698.5 351.75,-1698.5 351.75,-1698.5 351.75,-1698.5 351.75,-1776.67 351.75,-1776.67"/>
<polygon fill="none" stroke="black" points="348.25,-1776.67 351.75,-1786.67 355.25,-1776.67 348.25,-1776.67"/>
</g>
<!-- TEST_SIMPLE_GRAPHVIZ -->
<g id="node31" class="node">
<title>TEST_SIMPLE_GRAPHVIZ</title>
<path fill="none" stroke="black" d="M194.5,-1644.5C194.5,-1644.5 39.75,-1644.5 39.75,-1644.5 33.75,-1644.5 27.75,-1638.5 27.75,-1632.5 27.75,-1632.5 27.75,-1620.5 27.75,-1620.5 27.75,-1614.5 33.75,-1608.5 39.75,-1608.5 39.75,-1608.5 194.5,-1608.5 194.5,-1608.5 200.5,-1608.5 206.5,-1614.5 206.5,-1620.5 206.5,-1620.5 206.5,-1632.5 206.5,-1632.5 206.5,-1638.5 200.5,-1644.5 194.5,-1644.5"/>
<text xml:space="preserve" text-anchor="middle" x="117.12" y="-1621.45" font-family="Times New Roman,serif" font-size="14.00">TEST_SIMPLE_GRAPHVIZ</text>
</g>
<!-- TEST_SIMPLE_GRAPHVIZ&#45;&gt;EQA_TEST_SET -->
<g id="edge12" class="edge">
<title>TEST_SIMPLE_GRAPHVIZ&#45;&gt;EQA_TEST_SET</title>
<path fill="none" stroke="black" d="M206.83,-1626.5C276.64,-1626.5 361.75,-1626.5 361.75,-1626.5 361.75,-1626.5 361.75,-1776.74 361.75,-1776.74"/>
<polygon fill="none" stroke="black" points="358.25,-1776.74 361.75,-1786.74 365.25,-1776.74 358.25,-1776.74"/>
</g>
</g>
</svg>
