<?xml version="1.0" encoding="UTF-8" standalone="no"?>
<!DOCTYPE svg PUBLIC "-//W3C//DTD SVG 1.1//EN"
 "http://www.w3.org/Graphics/SVG/1.1/DTD/svg11.dtd">
<!-- Generated by graphviz version 14.1.1 (20251213.1925)
 -->
<!-- Title: Dependencies Pages: 1 -->
<svg width="387pt" height="429pt"
 viewBox="0.00 0.00 387.00 429.00" xmlns="http://www.w3.org/2000/svg" xmlns:xlink="http://www.w3.org/1999/xlink">
<g id="graph0" class="graph" transform="scale(1 1) rotate(0) translate(4 424.5)">
<title>Dependencies</title>
<polygon fill="white" stroke="none" points="-4,4 -4,-424.5 382.5,-424.5 382.5,4 -4,4"/>
<text xml:space="preserve" text-anchor="middle" x="189.25" y="-7.2" font-family="Times New Roman,serif" font-size="14.00">simple_graphviz &#45; Dependencies</text>
<!-- simple_graphviz -->
<g id="node1" class="node">
<title>simple_graphviz</title>
<polygon fill="lightblue" stroke="black" points="106.75,-276.5 0,-276.5 0,-240.5 106.75,-240.5 106.75,-276.5"/>
<text xml:space="preserve" text-anchor="middle" x="53.38" y="-253.45" font-family="Times New Roman,serif" font-size="14.00">simple_graphviz</text>
</g>
<!-- simple_mml -->
<g id="node2" class="node">
<title>simple_mml</title>
<polygon fill="lightblue" stroke="black" points="357.5,-420.5 271.75,-420.5 271.75,-384.5 357.5,-384.5 357.5,-420.5"/>
<text xml:space="preserve" text-anchor="middle" x="314.62" y="-397.45" font-family="Times New Roman,serif" font-size="14.00">simple_mml</text>
</g>
<!-- simple_graphviz&#45;&gt;simple_mml -->
<g id="edge1" class="edge">
<title>simple_graphviz&#45;&gt;simple_mml</title>
<path fill="none" stroke="black" stroke-dasharray="5,2" d="M21.5,-276.89C21.5,-316.95 21.5,-408.5 21.5,-408.5 21.5,-408.5 259.86,-408.5 259.86,-408.5"/>
<polygon fill="black" stroke="black" points="259.86,-412 269.86,-408.5 259.86,-405 259.86,-412"/>
</g>
<!-- simple_graphviz&#45;&gt;simple_mml -->
<g id="edge5" class="edge">
<title>simple_graphviz&#45;&gt;simple_mml</title>
<path fill="none" stroke="black" stroke-dasharray="5,2" d="M42.5,-276.83C42.5,-314.36 42.5,-396.5 42.5,-396.5 42.5,-396.5 259.99,-396.5 259.99,-396.5"/>
<polygon fill="black" stroke="black" points="259.99,-400 269.99,-396.5 259.99,-393 259.99,-400"/>
</g>
<!-- simple_logger -->
<g id="node3" class="node">
<title>simple_logger</title>
<polygon fill="lightblue" stroke="black" points="361.62,-348.5 267.62,-348.5 267.62,-312.5 361.62,-312.5 361.62,-348.5"/>
<text xml:space="preserve" text-anchor="middle" x="314.62" y="-325.45" font-family="Times New Roman,serif" font-size="14.00">simple_logger</text>
</g>
<!-- simple_graphviz&#45;&gt;simple_logger -->
<g id="edge2" class="edge">
<title>simple_graphviz&#45;&gt;simple_logger</title>
<path fill="none" stroke="black" stroke-dasharray="5,2" d="M85.5,-276.88C85.5,-296.41 85.5,-324.5 85.5,-324.5 85.5,-324.5 255.64,-324.5 255.64,-324.5"/>
<polygon fill="black" stroke="black" points="255.64,-328 265.64,-324.5 255.64,-321 255.64,-328"/>
</g>
<!-- simple_graphviz&#45;&gt;simple_logger -->
<g id="edge6" class="edge">
<title>simple_graphviz&#45;&gt;simple_logger</title>
<path fill="none" stroke="black" stroke-dasharray="5,2" d="M64.5,-276.98C64.5,-300.05 64.5,-336.5 64.5,-336.5 64.5,-336.5 255.77,-336.5 255.77,-336.5"/>
<polygon fill="black" stroke="black" points="255.77,-340 265.77,-336.5 255.77,-333 255.77,-340"/>
</g>
<!-- simple_eiffel_parser -->
<g id="node4" class="node">
<title>simple_eiffel_parser</title>
<polygon fill="lightblue" stroke="black" points="378.5,-276.5 250.75,-276.5 250.75,-240.5 378.5,-240.5 378.5,-276.5"/>
<text xml:space="preserve" text-anchor="middle" x="314.62" y="-253.45" font-family="Times New Roman,serif" font-size="14.00">simple_eiffel_parser</text>
</g>
<!-- simple_graphviz&#45;&gt;simple_eiffel_parser -->
<g id="edge3" class="edge">
<title>simple_graphviz&#45;&gt;simple_eiffel_parser</title>
<path fill="none" stroke="black" stroke-dasharray="5,2" d="M107.19,-252.5C107.19,-252.5 238.75,-252.5 238.75,-252.5"/>
<polygon fill="black" stroke="black" points="238.75,-256 248.75,-252.5 238.75,-249 238.75,-256"/>
</g>
<!-- simple_graphviz&#45;&gt;simple_eiffel_parser -->
<g id="edge7" class="edge">
<title>simple_graphviz&#45;&gt;simple_eiffel_parser</title>
<path fill="none" stroke="black" stroke-dasharray="5,2" d="M107.19,-264.5C107.19,-264.5 238.75,-264.5 238.75,-264.5"/>
<polygon fill="black" stroke="black" points="238.75,-268 248.75,-264.5 238.75,-261 238.75,-268"/>
</g>
<!-- simple_xml -->
<g id="node5" class="node">
<title>simple_xml</title>
<polygon fill="lightblue" stroke="black" points="355.25,-204.5 274,-204.5 274,-168.5 355.25,-168.5 355.25,-204.5"/>
<text xml:space="preserve" text-anchor="middle" x="314.62" y="-181.45" font-family="Times New Roman,serif" font-size="14.00">simple_xml</text>
</g>
<!-- simple_graphviz&#45;&gt;simple_xml -->
<g id="edge4" class="edge">
<title>simple_graphviz&#45;&gt;simple_xml</title>
<path fill="none" stroke="black" stroke-dasharray="5,2" d="M71.5,-240.02C71.5,-216.95 71.5,-180.5 71.5,-180.5 71.5,-180.5 262.14,-180.5 262.14,-180.5"/>
<polygon fill="black" stroke="black" points="262.14,-184 272.14,-180.5 262.14,-177 262.14,-184"/>
</g>
<!-- simple_graphviz&#45;&gt;simple_xml -->
<g id="edge8" class="edge">
<title>simple_graphviz&#45;&gt;simple_xml</title>
<path fill="none" stroke="black" stroke-dasharray="5,2" d="M88.5,-240.12C88.5,-220.59 88.5,-192.5 88.5,-192.5 88.5,-192.5 262.16,-192.5 262.16,-192.5"/>
<polygon fill="black" stroke="black" points="262.16,-196 272.16,-192.5 262.16,-189 262.16,-196"/>
</g>
<!-- base -->
<g id="node6" class="node">
<title>base</title>
<polygon fill="lightgray" stroke="black" points="341.62,-132.5 287.62,-132.5 287.62,-96.5 341.62,-96.5 341.62,-132.5"/>
<text xml:space="preserve" text-anchor="middle" x="314.62" y="-109.45" font-family="Times New Roman,serif" font-size="14.00">base</text>
</g>
<!-- simple_graphviz&#45;&gt;base -->
<g id="edge9" class="edge">
<title>simple_graphviz&#45;&gt;base</title>
<path fill="none" stroke="black" stroke-dasharray="5,2" d="M35.5,-240.11C35.5,-200.05 35.5,-108.5 35.5,-108.5 35.5,-108.5 275.84,-108.5 275.84,-108.5"/>
<polygon fill="black" stroke="black" points="275.84,-112 285.84,-108.5 275.84,-105 275.84,-112"/>
</g>
<!-- simple_graphviz&#45;&gt;base -->
<g id="edge10" class="edge">
<title>simple_graphviz&#45;&gt;base</title>
<path fill="none" stroke="black" stroke-dasharray="5,2" d="M53.5,-240.17C53.5,-202.64 53.5,-120.5 53.5,-120.5 53.5,-120.5 275.66,-120.5 275.66,-120.5"/>
<polygon fill="black" stroke="black" points="275.66,-124 285.66,-120.5 275.66,-117 275.66,-124"/>
</g>
<!-- testing -->
<g id="node7" class="node">
<title>testing</title>
<polygon fill="lightgray" stroke="black" points="341.62,-60.5 287.62,-60.5 287.62,-24.5 341.62,-24.5 341.62,-60.5"/>
<text xml:space="preserve" text-anchor="middle" x="314.62" y="-37.45" font-family="Times New Roman,serif" font-size="14.00">testing</text>
</g>
<!-- simple_graphviz&#45;&gt;testing -->
<g id="edge11" class="edge">
<title>simple_graphviz&#45;&gt;testing</title>
<path fill="none" stroke="black" stroke-dasharray="5,2" d="M17.5,-240.08C17.5,-187.85 17.5,-42.5 17.5,-42.5 17.5,-42.5 275.69,-42.5 275.69,-42.5"/>
<polygon fill="black" stroke="black" points="275.69,-46 285.69,-42.5 275.69,-39 275.69,-46"/>
</g>
</g>
</svg>
